<svg xmlns="http://www.w3.org/2000/svg" xmlns:xlink="http://www.w3.org/1999/xlink" width="24" height="24" viewBox="0 0 24 24">
    <defs>
        <path id="a" d="M111.737 11.202a.71.71 0 0 1-.722-.798s-.035.26.001-.006C111.802 4.528 116.848 0 122.954 0 129.607 0 135 5.372 135 12c0 6.627-5.393 12-12.046 12-6.105 0-11.149-4.525-11.937-10.393-.036-.267-.002-.013-.002-.013a.71.71 0 0 1 .722-.796h13.714c.221 0 .273.126.118.28l-3.165 3.145c-.757.752.378 1.882 1.136 1.129l4.742-4.665a.98.98 0 0 0-.006-1.405l-4.736-4.634c-.758-.753-1.893.376-1.136 1.13l3.165 3.143c.156.155.104.28-.118.28h-13.714z"/>
    </defs>
    <use fill="#AE232C" fill-rule="evenodd" transform="translate(-111)" xlink:href="#a"/>
</svg>
