<svg xmlns="http://www.w3.org/2000/svg" width="17" height="14" viewBox="0 0 17 14">
    <g fill="#002D56" fill-rule="evenodd">
        <path d="M.5 6.351h15.992V5.243H.5zM3.492.072A2.068 2.068 0 0 0 1.424 2.14v2.401h.96v-2.4h3.175A2.068 2.068 0 0 0 3.492.071M15.642 9.779V7.027H1.424v2.752c0 .852.388 1.615.997 2.12l-.34.483a.684.684 0 0 0 1.12.785l.479-.683c.16.03.326.047.496.047h8.715c.146 0 .289-.015.429-.037l.472.673a.682.682 0 1 0 1.12-.785l-.314-.446a2.747 2.747 0 0 0 1.044-2.157"/>
    </g>
</svg>
