<svg xmlns="http://www.w3.org/2000/svg" width="17" height="13" viewBox="0 0 17 13">
    <path fill="#002D56" fill-rule="evenodd" d="M0 11.917C0 12.515.46 13 1.03 13c.568 0 1.028-.485 1.028-1.083V9.75h12.35v2.167c0 .598.461 1.083 1.03 1.083.568 0 1.029-.485 1.029-1.083V4.063c0-1.347-1.037-2.438-2.316-2.438H8.748c-.568 0-1.03.485-1.03 1.083v4.875h-5.66v-6.5C2.058.485 1.598 0 1.03 0 .461 0 0 .485 0 1.083v10.834zM4.889 6.5c-.995 0-1.802-.849-1.802-1.896s.807-1.896 1.802-1.896c.994 0 1.8.85 1.8 1.896 0 1.047-.806 1.896-1.8 1.896z"/>
</svg>
