<svg xmlns="http://www.w3.org/2000/svg" width="21" height="13" viewBox="0 0 21 13">
    <path fill="#002D56" fill-rule="evenodd" d="M15.2 10.563c0-.447.36-.813.8-.813.44 0 .8.366.8.813 0 .446-.36.812-.8.812-.44 0-.8-.366-.8-.813zm-11.2 0c0-.447.36-.813.8-.813.44 0 .8.366.8.813 0 .446-.36.812-.8.812-.44 0-.8-.366-.8-.813zm6.4-8.938v3.25H5.552c.096-.154.188-.305.276-.455.808-1.373 1.64-2.795 4.572-2.795zm1.6.102c2.916.402 3.48 1.913 3.904 3.063.008.028.02.057.032.085H12V1.727zm5.404 2.494C16.896 2.844 15.98.357 11.42.037A.776.776 0 0 0 11.2 0c-.052 0-.1.004-.152.016A16.387 16.387 0 0 0 10.4 0C6.56 0 5.292 2.157 4.452 3.587c-.548.935-.8 1.288-1.252 1.288-1.764 0-3.2 1.458-3.2 3.25 0 1.552 1.076 2.852 2.512 3.173A2.406 2.406 0 0 0 4.8 13c1.044 0 1.928-.678 2.26-1.625h6.68C14.072 12.322 14.956 13 16 13c1.072 0 1.98-.715 2.288-1.702 1.436-.321 2.512-1.621 2.512-3.173 0-1.767-1.396-3.21-3.124-3.25-.08-.126-.192-.427-.272-.654z"/>
</svg>
