<svg xmlns="http://www.w3.org/2000/svg" width="24" height="16" viewBox="0 0 24 16">
    <path fill="#002D56" fill-rule="evenodd" d="M20.041 0v6.935h-.654v.945h-1.399V3.42l-5.661 2.573V3.421L6.665 5.994V3.421L.438 6.251v9.124H0V16h23.778v-.625h-.438V7.88h-1.406v-.945h-.654V0H20.04zm.806 10.368h.794v-.794h-.794v.794zm-1.549 0h.794v-.794h-.794v.794zm-5.347 0h.794v-.794h-.794v.794zm-1.55 0h.795v-.794h-.794v.794zm-1.548 0h.794v-.794h-.794v.794zm-4.451 0h.794v-.794h-.794v.794zm-1.549 0h.794v-.794h-.794v.794zm-1.548 0h.794v-.794h-.794v.794zm17.542 1.55h.794v-.795h-.794v.794zm-1.549 0h.794v-.795h-.794v.794zm-5.347 0h.794v-.795h-.794v.794zm-1.55 0h.795v-.795h-.794v.794zm-1.548 0h.794v-.795h-.794v.794zm-4.451 0h.794v-.795h-.794v.794zm-1.549 0h.794v-.795h-.794v.794zm-1.548 0h.794v-.795h-.794v.794zm17.542 1.548h.794v-.794h-.794v.794zm-1.549 0h.794v-.794h-.794v.794z"/>
</svg>
