<svg xmlns="http://www.w3.org/2000/svg" xmlns:xlink="http://www.w3.org/1999/xlink" width="42" height="42" viewBox="0 0 42 42">
    <defs>
        <path id="a" d="M243.29 26.603c-.775 0-1.346-.627-1.263-1.396 0 0-.061.454.001-.011C243.404 14.923 252.233 7 262.92 7 274.562 7 284 16.402 284 28s-9.438 21-21.08 21c-10.684 0-19.511-7.92-20.89-18.187-.064-.467-.004-.023-.004-.023a1.243 1.243 0 0 1 1.263-1.393h24c.387 0 .479.22.208.49l-5.54 5.503c-1.325 1.317.662 3.293 1.988 1.975l8.299-8.162a1.714 1.714 0 0 0-.011-2.459l-8.288-8.11c-1.326-1.317-3.313.659-1.988 1.976l5.54 5.502c.271.272.182.49-.208.49h-24z"/>
    </defs>
    <use fill="#AE232C" fill-rule="evenodd" transform="rotate(90 145.5 -96.5)" xlink:href="#a"/>
</svg>
