<svg xmlns="http://www.w3.org/2000/svg" width="145" height="48" viewBox="0 0 145 48">
    <g fill="none" fill-rule="evenodd">
        <path fill="#FFF" d="M49.578 46.979a.41.41 0 0 1-.41-.41V4.63a.41.41 0 1 1 .82 0V46.57a.41.41 0 0 1-.41.41zM56.653 5.148H65.2v1.837h-6.53v3.133h5.792v1.838H58.67v4.675h-2.018zM71.465 13.514v-.59a5.505 5.505 0 0 0-1.968-.345c-1.28 0-2.035.541-2.035 1.443v.033c0 .837.74 1.312 1.69 1.312 1.313 0 2.313-.754 2.313-1.853m-5.938.623v-.033c0-1.87 1.46-2.788 3.576-2.788.968 0 1.657.147 2.33.36v-.213c0-1.23-.755-1.886-2.15-1.886-.967 0-1.69.213-2.477.541l-.525-1.558c.952-.426 1.887-.705 3.265-.705 1.296 0 2.264.344 2.87.968.64.623.936 1.541.936 2.673v5.134h-1.936v-1.082c-.59.705-1.493 1.263-2.822 1.263-1.623 0-3.067-.935-3.067-2.674M75.057 7.97h1.985v1.312c.558-.771 1.313-1.493 2.641-1.493 1.247 0 2.133.607 2.592 1.526.69-.919 1.608-1.526 2.92-1.526 1.887 0 3.034 1.198 3.034 3.314v5.528h-1.984v-4.922c0-1.377-.64-2.116-1.755-2.116-1.083 0-1.854.755-1.854 2.15v4.888h-1.985v-4.938c0-1.345-.656-2.1-1.755-2.1-1.099 0-1.854.82-1.854 2.15v4.888h-1.985V7.97zM90.083 16.631h1.985V7.97h-1.985v8.661zM90 6.641h2.132V4.754h-2.132v1.887zM94.102 16.63h1.984V4.656h-1.984zM104.008 7.97h2.067l-3.445 8.907c-.688 1.772-1.46 2.428-2.854 2.428a4.09 4.09 0 0 1-2.05-.525l.673-1.477c.36.197.754.328 1.164.328.558 0 .902-.246 1.23-.984L97.185 7.97h2.131l2.445 6.43 2.247-6.43zM115.475 7.51v-.033c0-1.017-.788-1.804-1.822-1.804-1.164 0-1.985.82-1.985 1.854v.032c0 .722.312 1.28 1.33 2.362 1.64-.524 2.477-1.328 2.477-2.41zm.524 6.743l-3.396-3.511c-1.82.623-2.624 1.69-2.624 2.805v.033c0 1.394 1.116 2.476 2.69 2.476 1.28 0 2.378-.688 3.33-1.803zm.541.557c-1.082 1.263-2.345 1.984-3.887 1.984-2.018 0-3.527-1.312-3.527-3.182v-.032c0-1.543 1.1-2.674 2.97-3.363-.87-.968-1.28-1.673-1.28-2.625V7.56c0-1.476 1.198-2.608 2.87-2.608 1.493 0 2.642 1.116 2.642 2.494v.032c0 1.428-1.067 2.362-2.822 2.97l3.018 3.1c.558-.788 1.05-1.74 1.492-2.789l.772.312c-.525 1.18-1.083 2.214-1.706 3.051l2.115 2.182-.671.558-1.986-2.051zM55.98 26.063v-.033c0-3.264 2.445-5.937 5.922-5.937 2.116 0 3.396.738 4.495 1.788l-1.296 1.492c-.919-.853-1.903-1.427-3.215-1.427-2.182 0-3.79 1.805-3.79 4.052v.032c0 2.248 1.592 4.069 3.79 4.069 1.411 0 2.313-.558 3.298-1.476l1.295 1.312c-1.198 1.246-2.51 2.034-4.659 2.034-3.346 0-5.84-2.608-5.84-5.906M74.303 27.49v-.032c0-1.526-1.099-2.789-2.658-2.789-1.59 0-2.608 1.247-2.608 2.756v.033c0 1.509 1.1 2.772 2.642 2.772 1.607 0 2.624-1.246 2.624-2.74m-7.25 0v-.032c0-2.478 1.968-4.528 4.626-4.528 2.657 0 4.608 2.018 4.608 4.495v.033c0 2.46-1.968 4.511-4.642 4.511-2.64 0-4.593-2.018-4.593-4.479M77.633 23.11h1.984v1.313c.558-.77 1.313-1.493 2.642-1.493 1.246 0 2.132.607 2.591 1.525.69-.918 1.608-1.525 2.92-1.525 1.887 0 3.035 1.198 3.035 3.314v5.528H88.82v-4.921c0-1.378-.64-2.116-1.755-2.116-1.083 0-1.854.754-1.854 2.15v4.887h-1.984v-4.937c0-1.346-.657-2.1-1.756-2.1s-1.854.82-1.854 2.15v4.887h-1.984v-8.661zM92.543 23.11h1.984v1.313c.558-.77 1.313-1.493 2.642-1.493 1.247 0 2.132.607 2.591 1.525.69-.918 1.608-1.525 2.92-1.525 1.887 0 3.035 1.198 3.035 3.314v5.528h-1.985v-4.921c0-1.378-.64-2.116-1.755-2.116-1.083 0-1.853.754-1.853 2.15v4.887h-1.985v-4.937c0-1.346-.656-2.1-1.755-2.1-1.1 0-1.855.82-1.855 2.15v4.887h-1.984v-8.661zM107.356 28.623V23.11h1.984v4.92c0 1.346.673 2.1 1.854 2.1 1.148 0 1.952-.787 1.952-2.132v-4.888h2.002v8.661h-2.002v-1.346c-.558.821-1.362 1.526-2.707 1.526-1.952 0-3.083-1.312-3.083-3.33M116.95 23.11h1.985v1.33c.558-.804 1.363-1.51 2.708-1.51 1.952 0 3.083 1.312 3.083 3.314v5.528h-1.984v-4.921c0-1.346-.673-2.116-1.855-2.116-1.147 0-1.952.803-1.952 2.15v4.887h-1.984v-8.661zM126.563 31.773h1.985V23.11h-1.985v8.662zm-.082-9.991h2.133v-1.887h-2.133v1.887zM130.877 29.377v-4.56h-1.099V23.11h1.099v-2.379h1.985v2.379h2.329v1.705h-2.33v4.25c0 .77.395 1.082 1.067 1.082.443 0 .837-.099 1.23-.296v1.624c-.492.28-1.033.443-1.788.443-1.459 0-2.493-.64-2.493-2.542M142.54 23.11h2.066l-3.445 8.908c-.689 1.771-1.46 2.428-2.854 2.428a4.09 4.09 0 0 1-2.05-.525l.672-1.477c.361.197.755.329 1.165.329.558 0 .902-.247 1.23-.985l-3.608-8.677h2.132l2.445 6.43 2.246-6.43zM55.718 45.24l1.214-1.444c1.1.952 2.215 1.493 3.625 1.493 1.247 0 2.035-.59 2.035-1.444v-.032c0-.82-.46-1.263-2.592-1.756-2.444-.59-3.822-1.312-3.822-3.428v-.033c0-1.967 1.64-3.33 3.92-3.33 1.674 0 3.002.509 4.166 1.444l-1.082 1.525c-1.034-.77-2.067-1.18-3.117-1.18-1.18 0-1.87.606-1.87 1.361v.033c0 .885.525 1.28 2.74 1.805 2.427.59 3.675 1.46 3.675 3.362v.033c0 2.149-1.69 3.428-4.102 3.428-1.755 0-3.412-.607-4.79-1.837M72.023 41.976c-.131-1.28-.886-2.28-2.198-2.28-1.214 0-2.067.934-2.248 2.28h4.446zm-6.414.64v-.034c0-2.477 1.755-4.51 4.232-4.51 2.756 0 4.15 2.165 4.15 4.658 0 .18-.016.361-.033.558h-6.364c.213 1.41 1.213 2.198 2.493 2.198.968 0 1.657-.36 2.345-1.033l1.166 1.033c-.82.984-1.953 1.624-3.543 1.624-2.51 0-4.446-1.82-4.446-4.494zM75.32 38.252h1.984v1.952c.542-1.296 1.543-2.182 3.068-2.116v2.1h-.114c-1.74 0-2.954 1.131-2.954 3.428v3.298H75.32v-8.662zM80.93 38.252h2.133l2.328 6.365 2.347-6.365h2.083l-3.543 8.727H84.49zM90.984 46.914h1.985v-8.662h-1.985v8.662zm-.082-9.99h2.133v-1.887h-2.133v1.886zM94.413 42.632v-.033c0-2.46 1.903-4.528 4.51-4.528 1.625 0 2.642.607 3.462 1.494l-1.247 1.328c-.606-.64-1.246-1.083-2.23-1.083-1.444 0-2.51 1.247-2.51 2.756v.033c0 1.542 1.066 2.772 2.592 2.772.934 0 1.624-.427 2.246-1.066l1.198 1.18c-.853.953-1.854 1.625-3.543 1.625-2.575 0-4.478-2.018-4.478-4.478M109.274 41.976c-.131-1.28-.886-2.28-2.198-2.28-1.214 0-2.067.934-2.248 2.28h4.446zm-6.414.64v-.034c0-2.477 1.755-4.51 4.232-4.51 2.756 0 4.15 2.165 4.15 4.658 0 .18-.016.361-.032.558h-6.365c.213 1.41 1.213 2.198 2.494 2.198.967 0 1.656-.36 2.345-1.033l1.165 1.033c-.821.984-1.953 1.624-3.543 1.624-2.51 0-4.446-1.82-4.446-4.494zM111.866 45.781l.885-1.345c.952.705 1.953 1.067 2.838 1.067.853 0 1.346-.362 1.346-.936v-.033c0-.671-.919-.902-1.936-1.213-1.28-.361-2.707-.886-2.707-2.543v-.033c0-1.64 1.362-2.64 3.084-2.64 1.083 0 2.264.377 3.182.984l-.787 1.41c-.836-.508-1.722-.82-2.445-.82-.77 0-1.213.361-1.213.853v.033c0 .64.935.902 1.952 1.23 1.263.394 2.69.969 2.69 2.526v.033c0 1.821-1.41 2.724-3.215 2.724-1.23 0-2.591-.444-3.674-1.297M39.283 28.182l-1.889 8.116-1.983-8.116h-2.726l-2.015 8.025-1.832-8.025h-2.98l3.298 12.675h2.933l1.934-8.019 1.967 8.02h2.881l.029-.11 3.32-12.566h-2.937zm-27.33 8.099l-6.898-8.1H2.133V40.86h2.846v-8.084l6.879 8.084h2.941V28.18h-2.845v8.1zM1.83 44.747v-.01c0-1.099.84-2.029 2.023-2.029.684 0 1.104.19 1.509.532l-.438.522c-.303-.26-.6-.421-1.099-.421-.723 0-1.272.632-1.272 1.384v.012c0 .808.532 1.401 1.334 1.401.37 0 .706-.116.948-.298v-.734H3.83v-.6h1.672v1.648c-.387.33-.942.613-1.638.613-1.227 0-2.035-.877-2.035-2.02M9.3 44.747v-.01c0-.764-.557-1.396-1.336-1.396-.78 0-1.322.621-1.322 1.384v.012c0 .763.554 1.395 1.334 1.395.779 0 1.323-.622 1.323-1.385m-3.38 0v-.01c0-1.105.852-2.029 2.057-2.029 1.206 0 2.045.913 2.045 2.017v.012c0 1.103-.851 2.03-2.057 2.03-1.205 0-2.046-.914-2.046-2.02M9.972 42.774h.762l1.183 3.017 1.177-3.017h.747l-1.632 3.954h-.606zM14.305 42.774h2.91v.618h-2.22v1.02h1.968v.617h-1.968v1.054h2.249v.616h-2.939zM19.611 44.72c.493 0 .808-.259.808-.657v-.011c0-.42-.303-.65-.814-.65h-1.003v1.318h1.01zm-1.698-1.946h1.749c.493 0 .88.147 1.132.392.208.213.325.506.325.847v.012c0 .645-.387 1.031-.936 1.188l1.06 1.486h-.814l-.964-1.368h-.863V46.7h-.689v-3.925zM21.727 42.774h.638l2.103 2.713v-2.713h.679V46.7h-.579l-2.164-2.793v2.793h-.677zM25.847 42.774h.734l1.194 1.856 1.194-1.856h.735V46.7h-.69v-2.814l-1.239 1.849h-.022l-1.227-1.838v2.803h-.68zM30.361 42.774h2.91v.618h-2.22v1.02h1.968v.617H31.05v1.054h2.248v.616h-2.938zM33.978 42.774h.64l2.101 2.713v-2.713h.679V46.7h-.577l-2.164-2.793v2.793h-.68zM39.188 43.414h-1.244v-.64h3.184v.64h-1.243v3.285h-.697zM15.583 39.094l1.674-2.006c1.16.957 2.374 1.565 3.846 1.565 1.16 0 1.86-.461 1.86-1.215V37.4c0-.718-.443-1.085-2.596-1.637-2.594-.664-4.27-1.38-4.27-3.94v-.036c0-2.336 1.878-3.882 4.51-3.882 1.877 0 3.478.59 4.785 1.638L23.92 31.68c-1.142-.792-2.265-1.271-3.351-1.271-1.085 0-1.656.498-1.656 1.124v.035c0 .847.552 1.123 2.78 1.694 2.612.68 4.084 1.619 4.084 3.864v.037c0 2.557-1.95 3.992-4.729 3.992-1.951 0-3.92-.68-5.465-2.06"/>
        <path fill="#FEFEFE" d="M21.827 25.228c-.055.008.809.2.809.383 4.5-.4 6.147.889 9.492.889 2.134 0 3.14-.48 3.309-1.464.267-2.128-3.031.071-9.5-.662-.122-.355.417-.31 1.253-.324 7.767-.129 9.813-.603 13.15-2.04 1.137-.514 1.6-.94 2.045-1.316.222-.183.374-.34.462-.444.046-.053.08-.089.098-.115.01-.008.017-.017.017-.025h.011c.107-.166.16-.358.16-.55 0-.305 0-.61-.25-.793 0 0-.107-.079-.311-.218-.596-.42-1.904-1.378-3.807-2.337-.01-.009-.02-.017.159-.296 2.384-3.034 2.606-4.804 2.633-5.083v-.035a.974.974 0 0 0-.16-.542.99.99 0 0 0-.764-.452s-.533-.026-1.432-.018c-.748.009-1.753.053-3.24.175-.328-.262-.319-.533-.319-.785 0-1.317-.071-2.45-.152-3.252-.07-.802-.142-1.265-.142-1.265-.071-.393-.303-.575-.605-.583a.788.788 0 0 0-.303.06s-.132.052-.373.157c-.676.296-2.019 1.003-3.87 1.735-.507-2.58-1.191-4.071-1.191-4.08-.134-.374-.392-.515-.703-.463a.66.66 0 0 0-.277.106c0 .007-.497.304-1.28.871-.56.402-1.255.934-2.028 1.578l-.357.236c-.605-.785-.97-1.53-1.338-2.125-.268-.436-.485-.778-.628-1.014-.142-.227-.212-.348-.212-.348C22.031.56 21.889.5 21.827.5l-.02.002c-.062 0-.204.06-.356.288 0 0-.072.122-.214.349-.142.235-.379.583-.64 1.016-.355.603-.721 1.338-1.326 2.123l-.356-.236a35.49 35.49 0 0 0-2.028-1.578c-.783-.566-1.282-.863-1.282-.872a.644.644 0 0 0-.275-.105c-.312-.052-.57.087-.702.463 0 .008-.686 1.5-1.193 4.08-1.85-.733-3.195-1.438-3.87-1.735-.24-.105-.373-.157-.373-.157a.793.793 0 0 0-.303-.062c-.302.01-.534.193-.605.585 0 0-.071.463-.141 1.264-.081.803-.152 1.936-.152 3.253 0 .253.01.523-.32.784a46.196 46.196 0 0 0-3.239-.174C3.534 9.779 3 9.806 3 9.806a.985.985 0 0 0-.765.453.96.96 0 0 0-.16.54v.035c.026.28.248 2.05 2.634 5.083.178.28.168.288.16.297-1.905.959-3.212 1.918-3.807 2.337-.206.14-.313.217-.313.217-.249.184-.249.489-.249.794 0 .192.054.384.16.55h.01c0 .008.008.017.017.025.018.027.053.06.098.115.089.103.24.26.463.444.444.374.907.802 2.045 1.315 3.337 1.438 5.383 1.912 13.149 2.042.837.014 1.375-.032 1.254.322-6.468.734-9.768-1.466-9.501.662.17.987 1.173 1.465 3.31 1.465 3.344 0 4.99-1.29 9.493-.89 0-.182.863-.374.808-.383l.02-.001z"/>
        <path fill="#FEFEFE" d="M21.334 25.073a.49.49 0 0 0-.024.202l.014-.002a.52.52 0 0 1 0-.082l.01-.118zm.974.203l.014.001a.49.49 0 0 0-.023-.206l.01.125a.565.565 0 0 1 0 .08zM8.69 24.964c.051.296.213 1.038 2.814 1.038 1.35 0 2.414-.218 3.541-.45 1.24-.254 2.524-.518 4.281-.518.474 0 .97.02 1.475.06.157-.106.355-.18.55-.243l.004-.062.402-.056.019.14.008-.144.02-.001.03.326.051-.319.394.062.003.052a2.2 2.2 0 0 1 .55.243c.507-.039 1.002-.058 1.476-.058 1.756 0 3.039.263 4.279.517 1.127.23 2.192.448 3.54.448 2.602 0 2.764-.741 2.814-1.036.03-.243-.014-.304-.014-.305 0 0-.073-.077-.482-.077-.383 0-.902.064-1.56.145-1.04.128-2.467.305-4.176.305-.941 0-1.893-.054-2.829-.16l-.314-.036-.103-.3a.677.677 0 0 1 .075-.628c.245-.345.686-.348 1.355-.353l.29-.004c7.904-.131 9.831-.653 12.959-1.999.986-.447 1.413-.809 1.826-1.16l.095-.08c.223-.184.35-.324.398-.38v-.321h.168a.429.429 0 0 0 .003-.05c0-.142 0-.357-.045-.39-.008-.005-.108-.08-.297-.208l-.162-.114a26.84 26.84 0 0 0-3.589-2.189l-.07-.036-.057-.055c-.304-.303-.095-.631.09-.92l.028-.041c2.19-2.787 2.487-4.443 2.527-4.8v-.009a.5.5 0 0 0-.452-.495c-.001 0-.528-.025-1.399-.016a46.69 46.69 0 0 0-3.203.172l-.197.016-.155-.123c-.51-.404-.51-.875-.51-1.156v-.02c0-1.496-.093-2.648-.149-3.201-.068-.78-.137-1.235-.138-1.24-.029-.157-.076-.158-.125-.16a.307.307 0 0 0-.103.025c-.006.003-.133.053-.36.152-.192.084-.455.21-.76.356-.763.365-1.809.865-3.124 1.386l-.56.22-.116-.589c-.426-2.171-.988-3.576-1.15-3.955-.006-.015-.014-.032-.021-.054-.05-.14-.091-.14-.11-.14a.227.227 0 0 0-.04.003l-.028.003s-.02.004-.065.032c-.031.023-.062.043-.09.061-.178.114-.593.38-1.163.793-.44.315-1.142.84-2 1.556l-.046.034-.744.491-.284-.368c-.452-.586-.772-1.141-1.053-1.632-.109-.189-.212-.368-.315-.535-.13-.212-.248-.4-.35-.565a55.4 55.4 0 0 1-.28-.452c-.064-.102-.114-.185-.15-.244a23.228 23.228 0 0 1-.384.612c-.121.189-.26.403-.407.648-.078.133-.16.278-.246.43-.294.52-.627 1.109-1.114 1.74l-.284.368-.788-.525a34.674 34.674 0 0 0-1.998-1.555c-.564-.408-.98-.675-1.157-.789a2.06 2.06 0 0 1-.098-.066c-.044-.027-.063-.031-.063-.032l-.03-.004a.314.314 0 0 0-.04-.003c-.02 0-.06 0-.11.14a.783.783 0 0 1-.021.055c-.163.38-.724 1.784-1.151 3.955l-.116.59-.56-.221c-1.325-.526-2.376-1.028-3.143-1.395a29.333 29.333 0 0 0-.744-.348 10.505 10.505 0 0 0-.354-.149.317.317 0 0 0-.113-.027c-.047.002-.09.013-.12.174 0 0-.068.453-.135 1.218-.056.561-.15 1.716-.15 3.209v.02c0 .28.001.751-.51 1.156l-.155.123-.197-.016a47.077 47.077 0 0 0-3.202-.173 27.164 27.164 0 0 0-1.402.018.484.484 0 0 0-.37.224.47.47 0 0 0-.08.269v.01c.039.355.332 2.007 2.527 4.799l.029.04c.184.29.393.618.092.92l-.057.057-.073.036A26.752 26.752 0 0 0 1.5 18.854l-.15.106c-.198.134-.299.208-.303.211-.045.033-.045.248-.045.39 0 .017 0 .033.002.05h.157l.006.317.003.003c.055.064.185.204.396.377l.102.087c.413.35.84.713 1.832 1.16C6.618 22.9 8.545 23.42 16.45 23.554l.29.003c.668.005 1.11.008 1.354.352.073.103.18.321.075.628l-.101.301-.316.036c-.934.106-1.886.16-2.827.16-1.71 0-3.136-.177-4.177-.305-.657-.082-1.177-.145-1.56-.145-.41 0-.482.076-.483.077 0 0-.044.061-.015.304zm2.814 2.039c-1.494 0-3.514-.195-3.802-1.881L7.7 25.1c-.06-.478.023-.839.256-1.102a.11.11 0 0 1 .008-.01c-1.825-.318-3.196-.797-4.868-1.517-1.129-.51-1.654-.955-2.075-1.313l-.095-.08a4.33 4.33 0 0 1-.49-.466H.396l-.156-.23a1.508 1.508 0 0 1-.24-.82c0-.343 0-.862.452-1.196 0 0 .113-.084.329-.23l.14-.098c.611-.434 1.7-1.205 3.234-2.018-2.21-2.875-2.532-4.655-2.578-5.14l-.002-.081c0-.3.085-.584.246-.821.252-.391.684-.646 1.15-.672.025-.001.562-.027 1.466-.019.834.01 1.827.062 3.03.157.024-.056.024-.126.023-.246v-.02c0-1.537.097-2.73.155-3.303.07-.802.142-1.27.145-1.29.11-.61.524-.99 1.084-1.01h.015c.167 0 .327.033.491.1 0 0 .14.054.385.16.206.091.469.218.774.363.643.308 1.49.712 2.528 1.144.411-1.87.89-3.097 1.09-3.563l.003-.009c.207-.57.675-.867 1.237-.779.158.018.313.076.473.176l.235.154c.223.144.599.393 1.075.738.611.437 1.293.966 1.973 1.53.302-.437.54-.858.756-1.24.09-.156.174-.305.258-.448.156-.262.305-.493.425-.678.085-.133.159-.247.217-.343.14-.222.209-.34.211-.344l.015-.024c.207-.31.473-.494.736-.509L21.826 0c.274 0 .556.186.773.51l.017.029c.003.005.07.121.203.332l.277.449.353.569c.11.177.216.364.33.561.202.352.425.739.7 1.138a36.379 36.379 0 0 1 1.975-1.532c.476-.345.85-.592 1.072-.736v-.006l.235-.147a1.15 1.15 0 0 1 .471-.178c.065-.01.13-.014.192-.014.483 0 .864.289 1.049.793l.003.009c.2.466.678 1.692 1.09 3.563 1.028-.427 1.869-.83 2.508-1.134a16.085 16.085 0 0 1 1.181-.534c.16-.065.32-.097.488-.097.574.016.99.398 1.098.995.005.033.076.501.148 1.31.057.566.154 1.756.154 3.296v.022c0 .119 0 .189.022.245a45.336 45.336 0 0 1 3.03-.157c.912-.008 1.442.017 1.462.018.468.026.9.28 1.16.68.156.23.241.514.241.814l-.002.083c-.048.485-.371 2.267-2.577 5.137 1.527.81 2.615 1.58 3.227 2.013l.153.108c.21.143.323.227.323.227.45.331.45.85.45 1.195 0 .293-.082.576-.238.82l-.148.23h-.05c-.096.11-.255.273-.492.468l-.089.075c-.422.359-.947.804-2.07 1.313-1.677.721-3.05 1.2-4.876 1.519l.008.01c.233.264.317.623.257 1.101l-.004.022c-.289 1.686-2.308 1.882-3.803 1.882-1.45 0-2.615-.239-3.74-.47-1.192-.244-2.425-.497-4.08-.497-.519 0-1.066.025-1.626.075l-.546.05v-.3a5.49 5.49 0 0 0-.316-.105 5.847 5.847 0 0 0-.321.106v.3l-.545-.05c-.568-.05-1.1-.075-1.627-.075-1.655 0-2.888.253-4.08.498-1.127.23-2.291.47-3.742.47z"/>
        <path fill="#E21837" d="M8.912 4.117c-.267.01-.425.164-.483.475 0 0-.064.461-.136 1.247a35.226 35.226 0 0 0-.146 3.213c0 3.052.398 7.388 2.297 10.713 1.458 2.534 3.517 3.963 5.815 4.038a7.267 7.267 0 0 1-2.528-3.588c-.535-1.676-.806-3.658-.806-5.89 0-3.082.516-5.725.674-6.462l.007-.036c.094-.43.342-.772.673-.945A34.16 34.16 0 0 0 9.53 4.328c-.233-.108-.359-.153-.36-.154h-.003l-.003-.002a.664.664 0 0 0-.252-.055M28.872 7.681c-.06 0-.125.028-.198.084-.002.002-.074.057-.206.17-.133.107-.324.27-.586.504-.353.313-1.068.976-1.902 1.892-1.321 1.472-3.072 3.79-3.905 6.475-.479 1.565-.718 2.922-.71 4.03-.01.83.123 1.531.392 2.086a2.34 2.34 0 0 0 1.187 1.18c.23.102.521.153.866.153h.016c1.603 0 4.277-1.336 5.199-4.31.496-1.602.748-3.493.748-5.62a32.66 32.66 0 0 0-.549-5.81l-.1-.493c-.04-.153-.116-.34-.252-.34"/>
        <path fill="#E21837" d="M14.771 7.681c-.14 0-.225.187-.272.345l-.1.49a31.958 31.958 0 0 0-.557 5.809c0 2.16.255 4.048.756 5.61.94 2.98 3.682 4.32 5.327 4.32h.016c.348 0 .652-.054.907-.164.134-.055.264-.125.41-.222a3.447 3.447 0 0 1-.328-.552c-.32-.665-.48-1.477-.491-2.478.01-1.237.268-2.683.769-4.302.043-.147.096-.299.146-.445l.06-.174c-1.747-4.344-5.764-7.619-6.218-7.98-.144-.116-.217-.17-.217-.171a.395.395 0 0 0-.208-.086M21.807.572c-.096 0-.197.076-.298.227a6.893 6.893 0 0 0-.217.344c-.201.335-.393.662-.587 1a40.009 40.009 0 0 0-3.023 6.81c1.3 1.3 3.045 3.329 4.207 5.79.896-1.929 2.26-3.85 4.054-5.716-1.225-3.716-2.944-6.747-3.63-7.883l-.22-.348c-.138-.209-.253-.224-.286-.224M34.685 4.117a.662.662 0 0 0-.244.055l-.003.001-.003.001s-.127.046-.357.152c-.224.092-.52.231-.896.407l-.132.061a34.215 34.215 0 0 0-3.348 1.858 7.12 7.12 0 0 0-.362.224c.329.167.582.513.676.945l.009.043c.155.736.664 3.38.664 6.461 0 2.22-.265 4.201-.786 5.89A7.235 7.235 0 0 1 27.43 23.8c2.264-.106 4.292-1.53 5.732-4.036 1.9-3.324 2.298-7.66 2.298-10.712 0-1.08-.05-2.164-.146-3.222-.073-.778-.137-1.239-.138-1.244-.056-.305-.217-.46-.49-.469M28.402 1.537a.556.556 0 0 0-.09.007h-.006a.452.452 0 0 0-.215.088l-.004.002-.003.003c-.005.003-.502.307-1.27.858-.425.305-1.1.809-1.927 1.493.6 1.247 1.138 2.52 1.6 3.788a31.77 31.77 0 0 1 3.298-2.26 32.602 32.602 0 0 0-.903-3.56l-.012-.038c-.096-.253-.253-.381-.468-.381M15.202 1.537c-.213 0-.37.128-.467.381a32.757 32.757 0 0 0-.915 3.598 31.69 31.69 0 0 1 3.297 2.26c.44-1.23.977-2.503 1.601-3.788a34.595 34.595 0 0 0-1.927-1.493c-.768-.55-1.264-.855-1.27-.858l-.003-.003-.003-.002a.45.45 0 0 0-.216-.087h-.005a.571.571 0 0 0-.092-.008M4.12 9.784c-.665 0-1.051.02-1.055.02a.873.873 0 0 0-.664.394.833.833 0 0 0-.134.49c.046.457.352 2.116 2.333 4.615a33.836 33.836 0 0 1 3-1.318 29.625 29.625 0 0 1-.359-4.046 34.668 34.668 0 0 0-3.12-.155M39.482 9.784c-.112 0-.23 0-.357.002-.595.007-1.55.04-2.76.153a30.874 30.874 0 0 1-.36 4.046 33.64 33.64 0 0 1 3 1.318c1.987-2.506 2.289-4.167 2.334-4.62.016-.154-.07-.39-.135-.484a.87.87 0 0 0-.664-.396c-.003 0-.396-.02-1.058-.02"/>
        <path fill="#E21837" d="M35.84 14.91c-.407 2.044-1.041 3.83-1.888 5.311-.883 1.55-1.987 2.726-3.286 3.503 9.428-.512 12.09-3.545 12.367-3.896l.001-.003a.867.867 0 0 0-.192-1.155s-.111-.072-.31-.207l-.001-.002-.003-.002c-.15-.114-.366-.255-.639-.434l-.227-.15a34.1 34.1 0 0 0-3.092-1.755c-.919-.465-1.837-.871-2.73-1.21M7.766 14.91c-3.18 1.205-5.74 2.88-6.702 3.552-.191.137-.3.21-.305.213a.86.86 0 0 0-.19 1.148l.017.025c.02.02.039.045.062.073l.037.045c.065.071.216.227.452.425.398.34 1.11.85 2.258 1.369 2.375 1.076 5.666 1.755 9.545 1.972-1.285-.774-2.414-1.977-3.287-3.511-.847-1.482-1.48-3.268-1.887-5.31M34.657 24.413c-.483 0-1.198.099-2.278.248l-.505.07c-.473.065-1.05.096-1.815.096-.468 0-.954-.01-1.468-.022l-.046-.001c-.49-.01-1.044-.023-1.6-.023-1.155 0-2.648.046-3.965.414-.066.02-.113.091-.107.136.006.043.088.058.156.058.02 0 .04 0 .062-.003a17.431 17.431 0 0 1 1.503-.07c1.717 0 2.89.297 4.026.583 1.067.27 2.075.525 3.475.525 1.494 0 2.677-.318 3.164-.85.164-.18.238-.376.22-.583-.04-.399-.169-.578-.822-.578M8.944 24.413c-.65 0-.777.179-.817.58-.02.204.051.399.212.576.477.528 1.692.855 3.17.855 1.402 0 2.41-.255 3.477-.525 1.134-.287 2.307-.582 4.025-.582a17.394 17.394 0 0 1 1.565.072c.068 0 .15-.015.156-.058.007-.045-.04-.116-.11-.136-1.313-.368-2.807-.414-3.962-.414-.556 0-1.11.012-1.6.023l-.046.001c-.514.013-1 .022-1.468.022-.765 0-1.342-.03-1.816-.097l-.515-.071c-1.078-.148-1.79-.246-2.27-.246"/>
    </g>
</svg>
