<svg xmlns="http://www.w3.org/2000/svg" width="35" height="38" viewBox="0 0 35 38">
    <defs>
        <path id="a" d="M0 18.793V.116h34.473v37.26H0V18.793h10.093v-7.12H0v7.12z"/>
    </defs>
    <g fill="none" fill-rule="evenodd">
        <path fill="#FFF" d="M3.659 26.087l5.552 6.516h2.369V22.382h-2.3v6.527l-5.563-6.527H1.359v10.22h2.3zM25.518 32.603l1.568-6.47 1.58 6.47h2.322l.024-.093 2.683-10.128h-2.37l-1.521 6.539-1.603-6.54h-2.195l-1.627 6.47-1.475-6.47H20.5l2.66 10.222zM2.73 36.03h.813v.592a1.259 1.259 0 0 1-.767.243c-.65 0-1.08-.476-1.08-1.126v-.012c0-.604.441-1.115 1.022-1.115.406 0 .639.128.883.337l.348-.418c-.325-.279-.662-.43-1.22-.43-.952 0-1.626.755-1.626 1.638v.011c0 .918.65 1.626 1.638 1.626a2.04 2.04 0 0 0 1.324-.499v-1.324H2.718v.476h.011zM7.143 35.739c0 .615-.441 1.115-1.068 1.115-.628 0-1.08-.511-1.08-1.127v-.011c0-.616.44-1.115 1.068-1.115.627 0 1.08.51 1.08 1.138m-1.068-1.65c-.976 0-1.661.744-1.661 1.638v.012c0 .894.673 1.626 1.649 1.626s1.66-.743 1.66-1.638v-.011c0-.883-.673-1.627-1.648-1.627M9.257 36.575l-.952-2.427h-.616l1.312 3.194h.488l1.313-3.194h-.593zM11.731 35.971h1.591v-.5h-1.591v-.824h1.8v-.5h-2.346v3.16h2.37v-.488H11.73zM14.646 35.716v-1.057h.813c.407 0 .65.185.65.522v.012c0 .325-.255.534-.65.534h-.813v-.011zm2.033-.558c0-.29-.093-.523-.267-.697-.198-.197-.511-.313-.918-.313H14.09v3.159h.557v-1.104h.697l.778 1.104h.65l-.859-1.197c.453-.127.767-.43.767-.952zM19.374 36.331l-1.696-2.183h-.511v3.159h.546v-2.242l1.742 2.242h.464v-3.16h-.545zM22.045 35.646l-.964-1.498h-.592v3.159h.545v-2.253l.988 1.486h.023l.999-1.498v2.265h.557v-3.16h-.592zM24.681 35.971h1.592v-.5H24.68v-.824h1.79v-.5h-2.347v3.16h2.37v-.488H24.68zM29.258 36.331l-1.696-2.183h-.523v3.159h.558v-2.242l1.742 2.242h.465v-3.16h-.546zM30.245 34.659h.999v2.648h.569v-2.648h.999v-.511h-2.567zM17.132 26.47c-1.8-.464-2.242-.685-2.242-1.37v-.035c0-.5.465-.906 1.336-.906s1.777.383 2.706 1.022l1.185-1.72c-1.057-.847-2.346-1.323-3.856-1.323-2.126 0-3.636 1.243-3.636 3.136v.035c0 2.067 1.348 2.636 3.438 3.17 1.742.442 2.09.744 2.09 1.325v.034c0 .604-.568.976-1.497.976-1.185 0-2.16-.488-3.102-1.266l-1.347 1.615c1.243 1.115 2.834 1.66 4.402 1.66 2.242 0 3.81-1.161 3.81-3.217v-.035c.011-1.788-1.173-2.543-3.287-3.1M12.753 18.85a5.93 5.93 0 0 1-2.044-2.891c-.43-1.348-.65-2.95-.65-4.75 0-2.486.418-4.612.545-5.216 0-.011 0-.023.012-.035.07-.348.279-.627.546-.766-1.893-1.208-3.52-1.928-3.833-2.056-.186-.081-.29-.128-.29-.128-.07-.023-.14-.046-.198-.046-.22.011-.348.128-.395.383 0 0-.046.372-.104 1.01-.058.581-.116 1.499-.116 2.59 0 2.463.325 5.96 1.858 8.642 1.161 2.044 2.822 3.206 4.67 3.264M18.84 19.21h.01c1.29 0 3.45-1.08 4.194-3.472.395-1.29.604-2.822.604-4.53 0-2.125-.314-3.984-.442-4.68-.046-.256-.08-.395-.08-.395-.036-.128-.094-.28-.198-.28a.277.277 0 0 0-.163.07s-.058.047-.163.14c-.104.081-.255.22-.476.406-.279.256-.86.79-1.533 1.522-1.068 1.185-2.474 3.055-3.148 5.215-.383 1.266-.58 2.358-.569 3.252-.011.674.105 1.231.314 1.684.209.442.523.744.964.953.174.081.418.116.685.116"/>
        <path fill="#FFF" d="M16.865 12.625c.011-.046.035-.093.046-.14-1.405-3.507-4.646-6.143-5.017-6.434l-.175-.14a.35.35 0 0 0-.162-.069c-.116 0-.186.151-.22.279 0 .023-.036.163-.082.395-.035.174-.105.557-.186 1.103a26.493 26.493 0 0 0-.267 3.59c0 1.742.209 3.263.604 4.53.755 2.403 2.973 3.484 4.297 3.484h.012c.279 0 .523-.047.732-.128.104-.047.209-.105.325-.174a3.172 3.172 0 0 1-.267-.442c-.256-.534-.384-1.196-.395-1.998.011-.998.22-2.16.615-3.472.058-.14.093-.256.14-.384M17.294 11.545c.72-1.556 1.824-3.101 3.264-4.611-.987-2.997-2.37-5.447-2.927-6.353l-.174-.279c-.116-.163-.209-.186-.232-.186-.082 0-.163.058-.244.186 0 0-.07.093-.174.279-.163.267-.314.534-.477.801a30.964 30.964 0 0 0-1.428 2.869c-.372.848-.72 1.73-1.01 2.625 1.056 1.045 2.462 2.683 3.402 4.67M23.3 5.203c.266.14.464.419.545.767 0 .012 0 .023.012.035.128.592.534 2.73.534 5.215 0 1.789-.209 3.391-.639 4.75a5.833 5.833 0 0 1-1.997 2.892c1.823-.08 3.46-1.23 4.622-3.252 1.533-2.683 1.859-6.179 1.859-8.641 0-.871-.035-1.742-.117-2.602-.058-.627-.104-.999-.104-.999-.047-.244-.174-.371-.395-.383a.571.571 0 0 0-.197.046s-.105.035-.29.128c-.187.07-.419.186-.72.325l-.105.047a26.27 26.27 0 0 0-2.695 1.498c-.116.047-.21.105-.314.174M23.66 4.1a25.647 25.647 0 0 0-.732-2.869c0-.011-.012-.023-.012-.035-.081-.209-.209-.302-.372-.302h-.07c-.057 0-.115.035-.174.07 0 0-.406.244-1.022.697-.348.244-.882.65-1.556 1.208.488 1.01.918 2.032 1.29 3.055.789-.628 1.66-1.22 2.647-1.824M14.74 2.869a26.991 26.991 0 0 0-1.557-1.208C12.567 1.22 12.16.976 12.16.964a.279.279 0 0 0-.175-.07h-.07c-.173 0-.301.105-.37.302 0 .012 0 .012-.012.035a25.647 25.647 0 0 0-.732 2.869 25.905 25.905 0 0 1 2.66 1.824c.336-.988.778-2.021 1.277-3.055M5.773 10.93a25.447 25.447 0 0 1-.29-3.264 30.382 30.382 0 0 0-2.23-.128h-.291c-.535 0-.848.012-.848.012a.704.704 0 0 0-.534.313.599.599 0 0 0-.105.395c.035.372.279 1.708 1.882 3.728a30.578 30.578 0 0 1 2.416-1.056M32.986 8.27c.012-.128-.058-.314-.104-.395a.704.704 0 0 0-.535-.314s-.325-.011-.848-.011h-.29c-.476 0-1.254.034-2.23.127a24.704 24.704 0 0 1-.29 3.264c.79.302 1.602.662 2.415 1.069 1.592-2.033 1.836-3.38 1.882-3.74"/>
        <path fill="#FFF" d="M34.194 14.704s-.093-.058-.244-.162a6.109 6.109 0 0 0-.51-.349c-.059-.035-.117-.081-.187-.116a26.378 26.378 0 0 0-4.704-2.392c-.325 1.649-.836 3.089-1.521 4.285-.709 1.255-1.603 2.196-2.649 2.823 7.608-.418 9.745-2.857 9.978-3.148a.638.638 0 0 0 .116-.372.77.77 0 0 0-.279-.569M7.433 15.959c-.685-1.197-1.196-2.637-1.521-4.286A25.611 25.611 0 0 0 .51 14.542c-.151.104-.244.174-.244.174a.694.694 0 0 0-.267.546c0 .14.035.255.116.372.012.011.012.011.012.023a.253.253 0 0 1 .046.058l.035.035c.047.058.174.186.36.348.325.279.894.685 1.824 1.104 1.916.87 4.564 1.417 7.7 1.59-1.045-.626-1.963-1.59-2.66-2.833M27.597 19.339c-.395 0-.964.081-1.835.197-.128.023-.267.035-.407.058-.383.058-.848.081-1.463.081-.384 0-.767-.011-1.185-.023h-.035a43.734 43.734 0 0 0-1.29-.023c-.928 0-2.136.035-3.193.337-.058.011-.093.07-.082.104 0 .035.07.047.128.047h.047c.418-.035.824-.058 1.208-.058 1.382 0 2.334.244 3.252.464.86.221 1.672.419 2.799.419 1.208 0 2.16-.256 2.555-.686a.617.617 0 0 0 .174-.464c-.046-.302-.15-.453-.673-.453M16.272 19.966c-1.057-.29-2.265-.337-3.194-.337-.453 0-.894.012-1.289.023h-.035c-.418.012-.801.023-1.185.023-.615 0-1.08-.023-1.463-.08-.14-.024-.279-.036-.418-.059-.871-.116-1.44-.197-1.835-.197-.523 0-.627.139-.662.464a.617.617 0 0 0 .174.465c.383.43 1.37.685 2.555.685 1.127 0 1.94-.209 2.8-.418.917-.232 1.858-.465 3.251-.465.384 0 .79.024 1.208.058h.047c.058 0 .116-.011.128-.046.011-.035-.024-.093-.082-.116"/>
    </g>
</svg>
