<?xml version="1.0" encoding="utf-8"?>
<!-- Generator: Adobe Illustrator 27.9.0, SVG Export Plug-In . SVG Version: 6.00 Build 0)  -->
<svg version="1.1" id="Layer_1" xmlns="http://www.w3.org/2000/svg" xmlns:xlink="http://www.w3.org/1999/xlink" x="0px" y="0px"
	 viewBox="0 0 496.2 161.7" style="enable-background:new 0 0 496.2 161.7;" xml:space="preserve">
<style type="text/css">
	.st0{fill:none;stroke:#000000;stroke-width:1.9027;stroke-miterlimit:10;}
	.st1{fill:#002D56;}
</style>
<line class="st0" x1="6" y1="118.5" x2="495.9" y2="118.5"/>
<g>
	<path class="st1" d="M34.1,26.5v13.6H23.7v52.1H7.1v-52H0V26.5h7.1v-3.7c0-7.9,2.1-13.7,6.3-17.3C17.6,1.9,24.2,0,33.2,0v14
		c-3.5,0-5.9,0.7-7.4,2c-1.4,1.3-2.1,3.6-2.1,6.8v3.7H34.1z"/>
	<path class="st1" d="M62.3,26.5v11.6c4.4-8.4,10.8-12.6,19.2-12.6v17.1h-4.1c-5,0-8.7,1.2-11.3,3.7c-2.5,2.5-3.8,6.8-3.8,12.9v33
		H45.6V26.5H62.3z"/>
	<path class="st1" d="M97.6,83.6c-5.9-6.4-8.8-14.5-8.8-24.4s2.9-18,8.8-24.2c5.8-6.3,13.3-9.4,22.3-9.4s15.9,3.7,20.6,11.1V26.5
		h16.6v65.7h-16.6v-11c-5,8-11.9,12-20.8,12C110.8,93.2,103.5,90,97.6,83.6z M135.2,73.5c3.5-3.4,5.2-8.2,5.2-14.2
		s-1.7-10.7-5.2-14.2c-3.5-3.4-7.5-5.2-12.2-5.2s-8.7,1.7-12.2,5.1c-3.4,3.4-5.2,8.1-5.2,14.1s1.7,10.8,5.2,14.2
		c3.5,3.5,7.5,5.2,12.2,5.2S131.8,77,135.2,73.5z"/>
	<path class="st1" d="M189.9,26.5v9.8c4.2-7.2,11-10.8,20.4-10.8c7.5,0,13.6,2.5,18.4,7.4c4.7,4.9,7.1,11.8,7.1,20.6v38.7h-16.6
		V55.9c0-5.1-1.3-9.1-3.9-11.8c-2.6-2.7-6.2-4.1-10.7-4.1s-8.1,1.4-10.7,4.1s-4,6.7-4,11.8v36.3h-16.7V26.5H189.9z"/>
	<path class="st1" d="M266.4,92.2h-16.7V4.5h16.7v50.2l22.2-28.1h22.6L282,59.7l29.2,32.5h-22.3l-22.5-27.4L266.4,92.2L266.4,92.2z"
		/>
</g>
<g>
	<path d="M6.3,145.6v-2.9h13.8v2.9h-5v15.7h-3.7v-15.7H6.3z"/>
	<path d="M26.7,153.9v7.4h-3.8v-18.6h6.9c2.2,0,3.8,0.5,5,1.6s1.7,2.4,1.7,4c0,1.2-0.4,2.3-1.1,3.3s-1.8,1.7-3.4,2.1l4.7,7.7h-4.5
		l-4.5-7.4h-1C26.7,154,26.7,153.9,26.7,153.9z M26.7,145.6v5.4h3.1c0.9,0,1.7-0.2,2.2-0.7s0.7-1.2,0.7-2s-0.2-1.5-0.7-2
		s-1.2-0.7-2.2-0.7H26.7z"/>
	<path d="M40.2,154.2v-11.5H44v11.5c0,1.3,0.3,2.2,1,2.9c0.6,0.7,1.6,1,2.8,1c1.2,0,2.1-0.3,2.8-1c0.7-0.7,1-1.6,1-2.9v-11.5h3.7
		v11.5c0,2.3-0.7,4.2-2.2,5.4c-1.5,1.3-3.3,1.9-5.4,1.9s-3.9-0.6-5.3-1.9C40.9,158.4,40.2,156.6,40.2,154.2z"/>
	<path d="M65.1,145.5c-0.7,0-1.4,0.2-1.8,0.6c-0.5,0.4-0.7,0.9-0.7,1.6c0,0.7,0.2,1.2,0.5,1.6c0.3,0.4,0.8,0.7,1.4,0.9
		s1.2,0.4,1.9,0.5c0.7,0.2,1.4,0.4,2,0.6c0.7,0.2,1.3,0.5,1.9,0.9c0.6,0.3,1,0.8,1.4,1.5s0.5,1.4,0.5,2.4c0,1.5-0.6,2.8-1.8,3.9
		s-2.8,1.7-4.9,1.7s-3.6-0.5-4.9-1.4c-1.2-1-1.9-2.3-1.9-4h4c0.1,1.6,1.1,2.5,2.8,2.5c0.9,0,1.5-0.2,2-0.7c0.5-0.4,0.7-1,0.7-1.8
		c0-0.7-0.3-1.3-1-1.7s-1.5-0.7-2.4-1s-1.9-0.5-2.8-0.8s-1.7-0.8-2.4-1.6c-0.7-0.8-1-1.8-1-3c0-1.7,0.6-3,1.8-4.1s2.8-1.5,4.7-1.5
		s3.5,0.4,4.7,1.3c1.2,0.9,1.8,2.2,1.9,4h-4.1c-0.1-0.7-0.3-1.3-0.8-1.7C66.5,145.7,65.9,145.5,65.1,145.5z"/>
	<path d="M74.7,145.6v-2.9h13.8v2.9h-5v15.7h-3.7v-15.7H74.7z"/>
	<path d="M102.1,142.7v2.9h-7v4.9h6.2v2.9h-6.2v5.1h7v2.9H91.4v-18.7H102.1z"/>
	<path d="M112.2,142.7c3,0,5.4,0.9,7.2,2.6c1.8,1.7,2.8,4,2.8,6.8s-0.9,5.1-2.8,6.7c-1.8,1.7-4.3,2.5-7.2,2.5h-6.3v-18.6H112.2z
		 M109.7,158.5h2.6c2,0,3.5-0.6,4.6-1.7c1.1-1.2,1.6-2.7,1.6-4.7s-0.5-3.5-1.6-4.7s-2.6-1.7-4.6-1.7h-2.6V158.5z"/>
	<path d="M139.2,145.5c-0.7,0-1.4,0.2-1.8,0.6c-0.5,0.4-0.7,0.9-0.7,1.6c0,0.7,0.2,1.2,0.5,1.6c0.3,0.4,0.8,0.7,1.4,0.9
		s1.2,0.4,1.9,0.5c0.7,0.2,1.4,0.4,2,0.6c0.7,0.2,1.3,0.5,1.9,0.9c0.6,0.3,1,0.8,1.4,1.5s0.5,1.4,0.5,2.4c0,1.5-0.6,2.8-1.8,3.9
		c-1.2,1.1-2.8,1.7-4.9,1.7c-2.1,0-3.6-0.5-4.9-1.4c-1.2-1-1.9-2.3-1.9-4h4c0.1,1.6,1.1,2.5,2.8,2.5c0.9,0,1.5-0.2,2-0.7
		c0.5-0.4,0.7-1,0.7-1.8c0-0.7-0.3-1.3-1-1.7c-0.7-0.4-1.5-0.7-2.4-1s-1.9-0.5-2.8-0.8s-1.7-0.8-2.4-1.6c-0.7-0.8-1-1.8-1-3
		c0-1.7,0.6-3,1.8-4.1c1.2-1.1,2.8-1.5,4.7-1.5s3.5,0.4,4.7,1.3c1.2,0.9,1.8,2.2,1.9,4h-4.1c-0.1-0.7-0.3-1.3-0.8-1.7
		C140.6,145.7,140,145.5,139.2,145.5z"/>
	<path d="M158.3,161.5c-2.7,0-4.9-0.9-6.8-2.7c-1.8-1.8-2.7-4.1-2.7-6.8c0-2.8,0.9-5,2.8-6.8c1.8-1.8,4.1-2.7,6.8-2.7
		c2.7,0,4.9,0.9,6.8,2.7c1.8,1.8,2.7,4.1,2.7,6.8c0,2.8-0.9,5-2.7,6.8C163.2,160.6,161,161.5,158.3,161.5z M162.4,156.4
		c1-1.1,1.6-2.6,1.6-4.4s-0.5-3.3-1.6-4.4c-1-1.1-2.4-1.7-4.1-1.7c-1.7,0-3.1,0.6-4.1,1.7s-1.6,2.6-1.6,4.4s0.5,3.3,1.6,4.4
		c1.1,1.1,2.4,1.7,4.1,1.7S161.4,157.5,162.4,156.4z"/>
	<path d="M170.7,154.2v-11.5h3.8v11.5c0,1.3,0.3,2.2,1,2.9c0.6,0.7,1.6,1,2.8,1c1.2,0,2.1-0.3,2.8-1c0.7-0.7,1-1.6,1-2.9v-11.5h3.7
		v11.5c0,2.3-0.7,4.2-2.2,5.4c-1.5,1.3-3.3,1.9-5.4,1.9s-3.9-0.6-5.3-1.9C171.4,158.4,170.7,156.6,170.7,154.2z"/>
	<path d="M193.4,153.9v7.4h-3.8v-18.6h6.9c2.2,0,3.8,0.5,5,1.6c1.2,1.1,1.7,2.4,1.7,4c0,1.2-0.4,2.3-1.1,3.3s-1.8,1.7-3.4,2.1
		l4.7,7.7h-4.3l-4.5-7.4h-1.2V153.9z M193.4,145.6v5.4h3.1c0.9,0,1.7-0.2,2.2-0.7s0.7-1.2,0.7-2s-0.2-1.5-0.7-2s-1.2-0.7-2.2-0.7
		H193.4z"/>
	<path d="M208.7,158.8c-1.8-1.8-2.7-4.1-2.7-6.8c0-2.8,0.9-5,2.8-6.8c1.8-1.8,4.1-2.7,6.8-2.7c2,0,3.8,0.5,5.4,1.5s2.7,2.5,3.4,4.3
		h-4.5c-0.8-1.6-2.3-2.5-4.3-2.5c-1.7,0-3.1,0.6-4.1,1.7s-1.6,2.6-1.6,4.4s0.5,3.3,1.6,4.4c1.1,1.1,2.4,1.7,4.1,1.7
		c2,0,3.4-0.8,4.3-2.5h4.5c-0.7,1.9-1.8,3.3-3.4,4.3s-3.4,1.5-5.4,1.5C212.8,161.5,210.5,160.6,208.7,158.8z"/>
	<path d="M238.2,142.7v2.9h-7v4.9h6.2v2.9h-6.2v5.1h7v2.9h-10.7v-18.7H238.2z"/>
	<path d="M248.1,145.5c-0.7,0-1.4,0.2-1.8,0.6c-0.5,0.4-0.7,0.9-0.7,1.6c0,0.7,0.2,1.2,0.5,1.6c0.3,0.4,0.8,0.7,1.4,0.9
		s1.2,0.4,1.9,0.5c0.7,0.2,1.4,0.4,2,0.6c0.7,0.2,1.3,0.5,1.9,0.9c0.6,0.3,1,0.8,1.4,1.5s0.5,1.4,0.5,2.4c0,1.5-0.6,2.8-1.8,3.9
		s-2.8,1.7-4.9,1.7s-3.6-0.5-4.9-1.4c-1.2-1-1.9-2.3-1.9-4h4c0.1,1.6,1.1,2.5,2.8,2.5c0.9,0,1.5-0.2,2-0.7c0.5-0.4,0.7-1,0.7-1.8
		c0-0.7-0.3-1.3-1-1.7s-1.5-0.7-2.4-1s-1.9-0.5-2.8-0.8s-1.7-0.8-2.4-1.6c-0.7-0.8-1-1.8-1-3c0-1.7,0.6-3,1.8-4.1s2.8-1.5,4.7-1.5
		s3.5,0.4,4.7,1.3c1.2,0.9,1.8,2.2,1.9,4h-4.1c-0.1-0.7-0.3-1.3-0.8-1.7C249.5,145.7,248.8,145.5,248.1,145.5z"/>
	<path d="M262.1,159.2c0,0.6-0.2,1.1-0.6,1.5s-0.9,0.6-1.5,0.6s-1.1-0.2-1.5-0.6c-0.4-0.4-0.6-0.9-0.6-1.5s0.2-1.1,0.6-1.5
		s0.9-0.6,1.5-0.6s1.1,0.2,1.5,0.6C261.9,158.1,262.1,158.6,262.1,159.2z"/>
	<path d="M275,158.8c-1.8-1.8-2.7-4.1-2.7-6.8c0-2.8,0.9-5,2.8-6.8c1.8-1.8,4.1-2.7,6.8-2.7c2,0,3.8,0.5,5.4,1.5s2.7,2.5,3.4,4.3
		h-4.5c-0.8-1.6-2.3-2.5-4.3-2.5c-1.7,0-3.1,0.6-4.1,1.7s-1.6,2.6-1.6,4.4s0.5,3.3,1.6,4.4c1.1,1.1,2.4,1.7,3.9,1.7s2.7-0.4,3.6-1.1
		s1.4-1.8,1.6-3.1h-6.2v-2.9h10.2v2.9c-0.3,2-1.3,3.8-3,5.3s-3.8,2.3-6.3,2.3C279,161.5,276.8,160.6,275,158.8z"/>
	<path d="M293.7,142.7h3.8v15.8h6v2.9h-9.7L293.7,142.7L293.7,142.7z"/>
	<path d="M314.5,161.5c-2.7,0-4.9-0.9-6.8-2.7c-1.8-1.8-2.7-4.1-2.7-6.8c0-2.8,0.9-5,2.8-6.8c1.8-1.8,4.1-2.7,6.8-2.7
		s4.9,0.9,6.8,2.7c1.8,1.8,2.7,4.1,2.7,6.8c0,2.8-0.9,5-2.7,6.8C319.4,160.6,317.2,161.5,314.5,161.5z M318.6,156.4
		c1-1.1,1.6-2.6,1.6-4.4s-0.5-3.3-1.6-4.4s-2.4-1.7-4.1-1.7s-3.1,0.6-4.1,1.7c-1.1,1.1-1.6,2.6-1.6,4.4s0.5,3.3,1.6,4.4
		c1.1,1.1,2.4,1.7,4.1,1.7S317.5,157.5,318.6,156.4z"/>
	<path d="M327,142.7h7.5c1.9,0,3.4,0.5,4.5,1.4s1.6,2.1,1.6,3.5c0,2.1-1.2,3.5-3.6,4.2c1.2,0.2,2.2,0.7,2.9,1.6
		c0.7,0.9,1.1,1.9,1.1,3.1c0,1.5-0.6,2.6-1.7,3.5s-2.6,1.3-4.5,1.3h-8v-18.6H327z M330.7,145.6v4.8h3.4c0.8,0,1.5-0.2,2-0.6
		c0.5-0.4,0.7-1,0.7-1.8s-0.2-1.4-0.7-1.8c-0.5-0.4-1.2-0.6-2-0.6L330.7,145.6L330.7,145.6z M330.7,158.5h3.8c0.8,0,1.5-0.2,2-0.7
		s0.8-1.1,0.8-1.9s-0.3-1.4-0.8-1.9s-1.2-0.7-2-0.7h-3.8V158.5z"/>
	<path d="M356.5,161.3l-1.2-3.5h-7.2l-1.2,3.5h-4l6.6-18.7h4.5l6.6,18.7H356.5z M349,155h5.3l-2.7-7.8L349,155z"/>
	<path d="M363.1,142.7h3.8v15.8h6v2.9h-9.8V142.7z"/>
	<path d="M389.4,145.5c-0.7,0-1.4,0.2-1.8,0.6c-0.5,0.4-0.7,0.9-0.7,1.6c0,0.7,0.2,1.2,0.5,1.6c0.3,0.4,0.8,0.7,1.4,0.9
		s1.2,0.4,1.9,0.5c0.7,0.2,1.4,0.4,2,0.6c0.7,0.2,1.3,0.5,1.9,0.9c0.6,0.3,1,0.8,1.4,1.5s0.5,1.4,0.5,2.4c0,1.5-0.6,2.8-1.8,3.9
		s-2.8,1.7-4.9,1.7s-3.6-0.5-4.9-1.4c-1.2-1-1.9-2.3-1.9-4h4c0.1,1.6,1.1,2.5,2.8,2.5c0.9,0,1.5-0.2,2-0.7c0.5-0.4,0.7-1,0.7-1.8
		c0-0.7-0.3-1.3-1-1.7s-1.5-0.7-2.4-1c-0.9-0.2-1.9-0.5-2.8-0.8s-1.7-0.8-2.4-1.6c-0.7-0.8-1-1.8-1-3c0-1.7,0.6-3,1.8-4.1
		s2.8-1.5,4.7-1.5s3.5,0.4,4.7,1.3c1.2,0.9,1.8,2.2,1.9,4h-4.1c-0.1-0.7-0.3-1.3-0.8-1.7C390.7,145.7,390.1,145.5,389.4,145.5z"/>
	<path d="M398.9,145.6v-2.9h13.8v2.9h-5v15.7H404v-15.7H398.9z"/>
	<path d="M424,161.5c-2.7,0-4.9-0.9-6.8-2.7c-1.8-1.8-2.7-4.1-2.7-6.8c0-2.8,0.9-5,2.8-6.8c1.8-1.8,4.1-2.7,6.8-2.7
		c2.7,0,4.9,0.9,6.8,2.7c1.8,1.8,2.7,4.1,2.7,6.8c0,2.8-0.9,5-2.7,6.8C429,160.6,426.7,161.5,424,161.5z M428.2,156.4
		c1-1.1,1.6-2.6,1.6-4.4s-0.5-3.3-1.6-4.4s-2.4-1.7-4.1-1.7s-3.1,0.6-4.1,1.7c-1.1,1.1-1.6,2.6-1.6,4.4s0.5,3.3,1.6,4.4
		c1.1,1.1,2.4,1.7,4.1,1.7C425.7,158.1,427.1,157.5,428.2,156.4z"/>
	<path d="M440.3,153.9v7.4h-3.8v-18.6h6.9c2.2,0,3.8,0.5,5,1.6s1.7,2.4,1.7,4c0,1.2-0.4,2.3-1.1,3.3s-1.8,1.7-3.4,2.1l4.7,7.7h-4.5
		l-4.5-7.4h-1L440.3,153.9L440.3,153.9z M440.3,145.6v5.4h3.1c0.9,0,1.7-0.2,2.2-0.7s0.7-1.2,0.7-2s-0.2-1.5-0.7-2s-1.2-0.7-2.2-0.7
		H440.3z"/>
	<path d="M453.8,161.3v-18.6h3.8v18.6H453.8z"/>
	<path d="M472.3,142.7v2.9h-7v4.9h6.2v2.9h-6.2v5.1h7v2.9h-10.7v-18.7H472.3z"/>
	<path d="M482.2,145.5c-0.7,0-1.4,0.2-1.8,0.6c-0.5,0.4-0.7,0.9-0.7,1.6c0,0.7,0.2,1.2,0.5,1.6c0.3,0.4,0.8,0.7,1.4,0.9
		c0.6,0.2,1.2,0.4,1.9,0.5c0.7,0.2,1.4,0.4,2,0.6c0.7,0.2,1.3,0.5,1.9,0.9c0.6,0.3,1,0.8,1.4,1.5s0.5,1.4,0.5,2.4
		c0,1.5-0.6,2.8-1.8,3.9s-2.8,1.7-4.9,1.7s-3.6-0.5-4.9-1.4c-1.2-1-1.9-2.3-1.9-4h4c0.1,1.6,1.1,2.5,2.8,2.5c0.9,0,1.5-0.2,2-0.7
		c0.5-0.4,0.7-1,0.7-1.8c0-0.7-0.3-1.3-1-1.7s-1.5-0.7-2.4-1c-0.9-0.2-1.9-0.5-2.8-0.8c-0.9-0.3-1.7-0.8-2.4-1.6s-1-1.8-1-3
		c0-1.7,0.6-3,1.8-4.1s2.8-1.5,4.7-1.5s3.5,0.4,4.7,1.3c1.2,0.9,1.8,2.2,1.9,4h-4.1c-0.1-0.7-0.3-1.3-0.8-1.7
		C483.5,145.7,482.9,145.5,482.2,145.5z"/>
	<path d="M496.2,159.2c0,0.6-0.2,1.1-0.6,1.5c-0.4,0.4-0.9,0.6-1.5,0.6s-1.1-0.2-1.5-0.6c-0.4-0.4-0.6-0.9-0.6-1.5s0.2-1.1,0.6-1.5
		c0.4-0.4,0.9-0.6,1.5-0.6s1.1,0.2,1.5,0.6C496,158.1,496.2,158.6,496.2,159.2z"/>
</g>
<circle class="st1" cx="335.2" cy="81.4" r="11.4"/>
</svg>
