<svg xmlns="http://www.w3.org/2000/svg" width="179" height="50" viewBox="0 0 179 50">
    <g fill="#002D56" fill-rule="evenodd">
        <path d="M18 14.7v7.252h-5.5v27.684H3.75V21.952H0V14.7h3.75v-1.956c0-4.203 1.103-7.273 3.313-9.207C9.27 1.604 12.75.637 17.5.637v7.44c-1.834 0-3.125.359-3.875 1.072-.75.716-1.125 1.914-1.125 3.595V14.7H18zM32.842 14.498v6.103C35.182 16.2 38.569 14 43 14v8.967h-2.195c-2.633 0-4.62.655-5.957 1.963-1.338 1.307-2.006 3.56-2.006 6.757V49H24V14.498h8.842zM70.5 39.547c1.832-1.831 2.75-4.347 2.75-7.547 0-3.2-.918-5.716-2.75-7.547-1.834-1.832-3.98-2.748-6.438-2.748-2.459 0-4.593.906-6.406 2.716-1.812 1.81-2.719 4.316-2.719 7.516s.917 5.726 2.75 7.579c1.834 1.852 3.97 2.779 6.407 2.779s4.572-.916 6.406-2.748m-19.843 5.369C47.552 41.526 46 37.2 46 31.936c0-5.262 1.542-9.568 4.625-12.916 3.083-3.346 7-5.02 11.75-5.02s8.375 1.979 10.875 5.937v-5.432H82v34.99h-8.75V43.62C70.624 47.874 66.979 50 62.313 50c-4.667 0-8.553-1.694-11.656-5.084M98.812 14.498v5.17C101.02 15.89 104.604 14 109.562 14c3.96 0 7.188 1.298 9.688 3.892 2.5 2.596 3.75 6.197 3.75 10.805V49h-8.75V29.943c0-2.699-.687-4.765-2.062-6.197-1.376-1.432-3.25-2.148-5.626-2.148-2.374 0-4.26.716-5.655 2.148-1.397 1.432-2.095 3.498-2.095 6.197V49H90V14.498h8.812zM138.965 49H130V3h8.965v26.295l11.89-14.732H163l-15.641 17.405L163 49h-11.954l-12.08-14.36zM179 42.5c0 1.842-.638 3.385-1.91 4.63-1.273 1.248-2.817 1.87-4.63 1.87-1.817 0-3.346-.622-4.592-1.87-1.246-1.245-1.868-2.788-1.868-4.63 0-1.84.622-3.384 1.868-4.63 1.246-1.247 2.775-1.87 4.591-1.87 1.814 0 3.358.623 4.63 1.87 1.273 1.246 1.911 2.79 1.911 4.63"/>
    </g>
</svg>
