<svg xmlns="http://www.w3.org/2000/svg" width="171" height="75" viewBox="0 0 171 75">
    <g fill="none" fill-rule="evenodd">
        <g fill="#002D56">
            <path d="M12.846 9.609v4.74h-3.62v18.098H3.468V14.35H1V9.609h2.468V8.331c0-2.748.726-4.754 2.18-6.019C7.101 1.048 9.391.416 12.517.416V5.28c-1.207 0-2.057.234-2.55.7-.494.469-.74 1.252-.74 2.35V9.61h3.619zM22.614 9.477v3.99c1.54-2.877 3.769-4.315 6.685-4.315v5.862h-1.445c-1.733 0-3.04.427-3.92 1.282-.88.855-1.32 2.328-1.32 4.417v11.318h-5.82V9.477h5.82zM47.397 25.852c1.206-1.198 1.81-2.842 1.81-4.934 0-2.091-.604-3.736-1.81-4.933-1.207-1.198-2.62-1.797-4.237-1.797-1.618 0-3.023.592-4.216 1.776-1.193 1.183-1.79 2.821-1.79 4.913s.604 3.743 1.81 4.954c1.207 1.211 2.613 1.817 4.217 1.817 1.604 0 3.01-.6 4.216-1.796m-13.06 3.509c-2.043-2.215-3.064-5.043-3.064-8.484 0-3.44 1.015-6.255 3.044-8.444 2.029-2.187 4.607-3.281 7.733-3.281 3.126 0 5.511 1.293 7.157 3.88v-3.55h5.758v22.872h-5.758v-3.84c-1.728 2.78-4.128 4.17-7.198 4.17-3.072 0-5.629-1.107-7.671-3.323M66.03 9.477v3.38c1.453-2.47 3.811-3.705 7.075-3.705 2.605 0 4.73.848 6.375 2.544 1.646 1.697 2.468 4.05 2.468 7.063v13.272h-5.759V19.574c0-1.765-.452-3.115-1.357-4.051-.905-.936-2.139-1.405-3.702-1.405-1.563 0-2.804.469-3.722 1.405-.92.936-1.378 2.286-1.378 4.05v12.458h-5.8V9.477h5.8zM92.455 32.03h-5.9V1.962h5.9V19.15l7.825-9.63h7.992L97.98 20.896l10.293 11.134h-7.866l-7.951-9.387zM118.802 27.782c0 1.204-.42 2.213-1.257 3.027-.837.815-1.854 1.222-3.047 1.222-1.195 0-2.202-.407-3.022-1.222-.82-.814-1.23-1.823-1.23-3.027 0-1.203.41-2.212 1.23-3.027.82-.815 1.827-1.222 3.022-1.222 1.193 0 2.21.407 3.047 1.222.837.815 1.257 1.824 1.257 3.027"/>
        </g>
        <path fill="#AE232C" d="M18.182 52.92c0-2.027-.586-3.62-1.76-4.78-1.173-1.16-2.546-1.74-4.12-1.74-1.573 0-2.94.573-4.1 1.72-1.16 1.147-1.74 2.733-1.74 4.76 0 2.027.587 3.627 1.76 4.8 1.174 1.173 2.54 1.76 4.1 1.76 1.56 0 2.927-.58 4.1-1.74 1.174-1.16 1.76-2.753 1.76-4.78zm-17.44-.04c0-3.333.987-6.06 2.96-8.18 1.974-2.12 4.48-3.18 7.52-3.18 3.04 0 5.36 1.253 6.96 3.76v-3.44h5.6V64h-5.6v-3.72c-1.68 2.693-4.013 4.04-7 4.04-2.986 0-5.473-1.073-7.46-3.22-1.986-2.147-2.98-4.887-2.98-8.22zm34.68-11.04v3.32c1.414-2.427 3.707-3.64 6.88-3.64 2.534 0 4.6.833 6.2 2.5 1.6 1.667 2.4 3.98 2.4 6.94V64h-5.6V51.76c0-1.733-.44-3.06-1.32-3.98-.88-.92-2.08-1.38-3.6-1.38s-2.726.46-3.62 1.38c-.893.92-1.34 2.247-1.34 3.98V64h-5.64V41.84h5.64zm37.16 11.08c0-2.027-.586-3.62-1.76-4.78-1.173-1.16-2.546-1.74-4.12-1.74-1.573 0-2.94.573-4.1 1.72-1.16 1.147-1.74 2.733-1.74 4.76 0 2.027.587 3.627 1.76 4.8 1.174 1.173 2.54 1.76 4.1 1.76 1.56 0 2.927-.58 4.1-1.74 1.174-1.16 1.76-2.753 1.76-4.78zm-17.44-.04c0-3.333.987-6.06 2.96-8.18 1.974-2.12 4.48-3.18 7.52-3.18 3.04 0 5.36 1.253 6.96 3.76v-3.44h5.6V64h-5.6v-3.72c-1.68 2.693-4.013 4.04-7 4.04-2.986 0-5.473-1.073-7.46-3.22-1.986-2.147-2.98-4.887-2.98-8.22zM84.182 64V34.4h5.64V64h-5.64zm17.6-.4l-8.68-21.76h6.32l5.64 15.76 5.96-15.76h5.88l-13.84 32.64h-5.88l4.6-10.88zm17.16-15.28c0-1.92.814-3.533 2.44-4.84 1.627-1.307 3.787-1.96 6.48-1.96 2.694 0 4.854.647 6.48 1.94 1.627 1.293 2.494 3.047 2.6 5.26h-5.76c-.16-1.867-1.306-2.8-3.44-2.8-1.066 0-1.893.213-2.48.64-.586.427-.88 1.013-.88 1.76 0 .747.44 1.333 1.32 1.76.88.427 1.947.76 3.2 1 1.254.24 2.5.54 3.74.9 1.24.36 2.3 1 3.18 1.92.88.92 1.32 2.14 1.32 3.66 0 2-.846 3.627-2.54 4.88-1.693 1.253-3.853 1.88-6.48 1.88-2.626 0-4.78-.62-6.46-1.86-1.68-1.24-2.6-3.02-2.76-5.34h5.76c.214 1.867 1.4 2.8 3.56 2.8 1.04 0 1.88-.233 2.52-.7.64-.467.96-1.08.96-1.84s-.44-1.36-1.32-1.8c-.88-.44-1.946-.78-3.2-1.02-1.253-.24-2.5-.533-3.74-.88a7.043 7.043 0 0 1-3.18-1.86c-.88-.893-1.32-2.06-1.32-3.5zm28.24-9.68c-.666.667-1.473 1-2.42 1a3.296 3.296 0 0 1-2.42-1c-.666-.667-1-1.48-1-2.44s.334-1.773 1-2.44c.667-.667 1.474-1 2.42-1 .947 0 1.754.333 2.42 1 .667.667 1 1.48 1 2.44s-.333 1.773-1 2.44zM141.942 64V41.84h5.64V64h-5.64zm10.4-15.68c0-1.92.814-3.533 2.44-4.84 1.627-1.307 3.787-1.96 6.48-1.96 2.694 0 4.854.647 6.48 1.94 1.627 1.293 2.494 3.047 2.6 5.26h-5.76c-.16-1.867-1.306-2.8-3.44-2.8-1.066 0-1.893.213-2.48.64-.586.427-.88 1.013-.88 1.76 0 .747.44 1.333 1.32 1.76.88.427 1.947.76 3.2 1 1.254.24 2.5.54 3.74.9 1.24.36 2.3 1 3.18 1.92.88.92 1.32 2.14 1.32 3.66 0 2-.846 3.627-2.54 4.88-1.693 1.253-3.853 1.88-6.48 1.88-2.626 0-4.78-.62-6.46-1.86-1.68-1.24-2.6-3.02-2.76-5.34h5.76c.214 1.867 1.4 2.8 3.56 2.8 1.04 0 1.88-.233 2.52-.7.64-.467.96-1.08.96-1.84s-.44-1.36-1.32-1.8c-.88-.44-1.946-.78-3.2-1.02-1.253-.24-2.5-.533-3.74-.88a7.043 7.043 0 0 1-3.18-1.86c-.88-.893-1.32-2.06-1.32-3.5z"/>
    </g>
</svg>
