<svg xmlns="http://www.w3.org/2000/svg" width="122" height="34" viewBox="0 0 122 34">
    <g fill="#FFF" fill-rule="evenodd">
        <path d="M12.186 9.951v4.91H8.462v18.742H2.538V14.86H0v-4.91h2.538V8.628c0-2.846.748-4.924 2.243-6.233C6.276 1.085 8.631.43 11.847.43v5.037c-1.242 0-2.115.243-2.623.726-.508.485-.762 1.296-.762 2.434V9.95h3.724zM22.233 9.815v4.131c1.585-2.978 3.877-4.468 6.877-4.468v6.07h-1.486c-1.783 0-3.127.444-4.032 1.329-.907.885-1.359 2.41-1.359 4.574v11.72h-5.986V9.816h5.986zM47.727 26.773c1.24-1.24 1.862-2.943 1.862-5.11 0-2.165-.621-3.87-1.862-5.109-1.242-1.24-2.694-1.86-4.358-1.86-1.665 0-3.11.613-4.337 1.839-1.227 1.225-1.84 2.922-1.84 5.087 0 2.167.62 3.877 1.861 5.131 1.241 1.255 2.687 1.882 4.337 1.882s3.095-.62 4.337-1.86m-13.433 3.634c-2.102-2.294-3.153-5.223-3.153-8.787 0-3.562 1.044-6.477 3.131-8.744 2.087-2.265 4.74-3.398 7.955-3.398s5.67 1.34 7.362 4.019V9.82h5.923v23.687H49.59V29.53c-1.778 2.879-4.246 4.318-7.405 4.318-3.16 0-5.79-1.147-7.89-3.442M66.894 9.815v3.5c1.495-2.558 3.92-3.837 7.278-3.837 2.68 0 4.865.878 6.558 2.635 1.692 1.757 2.538 4.195 2.538 7.314v13.745h-5.923V20.27c0-1.827-.465-3.226-1.396-4.195-.931-.97-2.2-1.455-3.809-1.455-1.607 0-2.884.485-3.828 1.455-.946.97-1.418 2.368-1.418 4.195v12.9h-5.966V9.816h5.966zM94.077 33.172h-6.07V2.03h6.07v17.801l8.049-9.973h8.222l-10.59 11.783 10.59 11.53h-8.093l-8.178-9.721zM121.18 28.772c0 1.247-.433 2.291-1.294 3.135-.861.844-1.907 1.265-3.135 1.265-1.23 0-2.265-.421-3.108-1.265-.844-.844-1.265-1.888-1.265-3.135 0-1.246.421-2.291 1.265-3.135.843-.844 1.879-1.266 3.108-1.266 1.228 0 2.274.422 3.135 1.266.861.844 1.293 1.889 1.293 3.135"/>
    </g>
</svg>
