<?xml version="1.0" encoding="utf-8"?>
<!-- Generator: Adobe Illustrator 27.9.0, SVG Export Plug-In . SVG Version: 6.00 Build 0)  -->
<svg version="1.1" id="Layer_1" xmlns="http://www.w3.org/2000/svg" xmlns:xlink="http://www.w3.org/1999/xlink" x="0px" y="0px"
	 viewBox="0 0 644 263" style="enable-background:new 0 0 644 263;" xml:space="preserve">
<style type="text/css">
	.st0{fill:none;stroke:#000000;stroke-width:1.9027;stroke-miterlimit:10;}
	.st1{fill:#002D56;}
</style>
<line class="st0" x1="58.9" y1="163.8" x2="548.8" y2="163.8"/>
<g>
	<path class="st1" d="M87,71.8v13.6H76.6v52.1H60v-52h-7.1V71.8H60v-3.7c0-7.9,2.1-13.7,6.3-17.3c4.2-3.6,10.8-5.5,19.8-5.5v14
		c-3.5,0-5.9,0.7-7.4,2c-1.4,1.3-2.1,3.6-2.1,6.8v3.7H87z"/>
	<path class="st1" d="M115.2,71.8v11.6c4.4-8.4,10.8-12.6,19.2-12.6v17.1h-4.1c-5,0-8.7,1.2-11.3,3.7c-2.5,2.5-3.8,6.8-3.8,12.9v33
		H98.5V71.8H115.2z"/>
	<path class="st1" d="M150.5,128.9c-5.9-6.4-8.8-14.5-8.8-24.4s2.9-18,8.8-24.2c5.8-6.3,13.3-9.4,22.3-9.4s15.9,3.7,20.6,11.1V71.8
		H210v65.7h-16.6v-11c-5,8-11.9,12-20.8,12C163.7,138.5,156.4,135.3,150.5,128.9z M188.1,118.8c3.5-3.4,5.2-8.2,5.2-14.2
		s-1.7-10.7-5.2-14.2c-3.5-3.4-7.5-5.2-12.2-5.2s-8.7,1.7-12.2,5.1c-3.4,3.4-5.2,8.1-5.2,14.1s1.7,10.8,5.2,14.2
		c3.5,3.5,7.5,5.2,12.2,5.2S184.7,122.3,188.1,118.8z"/>
	<path class="st1" d="M242.8,71.8v9.8c4.2-7.2,11-10.8,20.4-10.8c7.5,0,13.6,2.5,18.4,7.4c4.7,4.9,7.1,11.8,7.1,20.6v38.7h-16.6
		v-36.3c0-5.1-1.3-9.1-3.9-11.8c-2.6-2.7-6.2-4.1-10.7-4.1s-8.1,1.4-10.7,4.1c-2.6,2.7-4,6.7-4,11.8v36.3h-16.7V71.8H242.8z"/>
	<path class="st1" d="M319.3,137.5h-16.7V49.8h16.7V100l22.2-28.1h22.6L334.9,105l29.2,32.5h-22.3l-22.5-27.4L319.3,137.5
		L319.3,137.5z"/>
</g>
<g>
	<path d="M59.2,190.9V188H73v2.9h-5v15.7h-3.7v-15.7H59.2z"/>
	<path d="M79.6,199.2v7.4h-3.8V188h6.9c2.2,0,3.8,0.5,5,1.6s1.7,2.4,1.7,4c0,1.2-0.4,2.3-1.1,3.3s-1.8,1.7-3.4,2.1l4.7,7.7h-4.5
		l-4.5-7.4h-1V199.2z M79.6,190.9v5.4h3.1c0.9,0,1.7-0.2,2.2-0.7s0.7-1.2,0.7-2s-0.2-1.5-0.7-2s-1.2-0.7-2.2-0.7H79.6z"/>
	<path d="M93.1,199.5V188h3.8v11.5c0,1.3,0.3,2.2,1,2.9c0.6,0.7,1.6,1,2.8,1c1.2,0,2.1-0.3,2.8-1c0.7-0.7,1-1.6,1-2.9V188h3.7v11.5
		c0,2.3-0.7,4.2-2.2,5.4c-1.5,1.3-3.3,1.9-5.4,1.9s-3.9-0.6-5.3-1.9C93.8,203.7,93.1,201.9,93.1,199.5z"/>
	<path d="M118,190.8c-0.7,0-1.4,0.2-1.8,0.6c-0.5,0.4-0.7,0.9-0.7,1.6c0,0.7,0.2,1.2,0.5,1.6c0.3,0.4,0.8,0.7,1.4,0.9
		s1.2,0.4,1.9,0.5c0.7,0.2,1.4,0.4,2,0.6c0.7,0.2,1.3,0.5,1.9,0.9c0.6,0.3,1,0.8,1.4,1.5s0.5,1.4,0.5,2.4c0,1.5-0.6,2.8-1.8,3.9
		s-2.8,1.7-4.9,1.7s-3.6-0.5-4.9-1.4c-1.2-1-1.9-2.3-1.9-4h4c0.1,1.6,1.1,2.5,2.8,2.5c0.9,0,1.5-0.2,2-0.7c0.5-0.4,0.7-1,0.7-1.8
		c0-0.7-0.3-1.3-1-1.7s-1.5-0.7-2.4-1s-1.9-0.5-2.8-0.8s-1.7-0.8-2.4-1.6c-0.7-0.8-1-1.8-1-3c0-1.7,0.6-3,1.8-4.1s2.8-1.5,4.7-1.5
		s3.5,0.4,4.7,1.3c1.2,0.9,1.8,2.2,1.9,4h-4.1c-0.1-0.7-0.3-1.3-0.8-1.7C119.4,191,118.8,190.8,118,190.8z"/>
	<path d="M127.6,190.9V188h13.8v2.9h-5v15.7h-3.7v-15.7H127.6z"/>
	<path d="M155,188v2.9h-7v4.9h6.2v2.9H148v5.1h7v2.9h-10.7V188H155z"/>
	<path d="M165.1,188c3,0,5.4,0.9,7.2,2.6c1.8,1.7,2.8,4,2.8,6.8s-0.9,5.1-2.8,6.7c-1.8,1.7-4.3,2.5-7.2,2.5h-6.3V188H165.1z
		 M162.6,203.8h2.6c2,0,3.5-0.6,4.6-1.7c1.1-1.2,1.6-2.7,1.6-4.7s-0.5-3.5-1.6-4.7s-2.6-1.7-4.6-1.7h-2.6V203.8z"/>
	<path d="M192.1,190.8c-0.7,0-1.4,0.2-1.8,0.6c-0.5,0.4-0.7,0.9-0.7,1.6c0,0.7,0.2,1.2,0.5,1.6c0.3,0.4,0.8,0.7,1.4,0.9
		c0.6,0.2,1.2,0.4,1.9,0.5c0.7,0.2,1.4,0.4,2,0.6c0.7,0.2,1.3,0.5,1.9,0.9c0.6,0.3,1,0.8,1.4,1.5s0.5,1.4,0.5,2.4
		c0,1.5-0.6,2.8-1.8,3.9s-2.8,1.7-4.9,1.7s-3.6-0.5-4.9-1.4c-1.2-1-1.9-2.3-1.9-4h4c0.1,1.6,1.1,2.5,2.8,2.5c0.9,0,1.5-0.2,2-0.7
		c0.5-0.4,0.7-1,0.7-1.8c0-0.7-0.3-1.3-1-1.7s-1.5-0.7-2.4-1s-1.9-0.5-2.8-0.8c-0.9-0.3-1.7-0.8-2.4-1.6s-1-1.8-1-3
		c0-1.7,0.6-3,1.8-4.1s2.8-1.5,4.7-1.5s3.5,0.4,4.7,1.3c1.2,0.9,1.8,2.2,1.9,4h-4.1c-0.1-0.7-0.3-1.3-0.8-1.7
		C193.5,191,192.9,190.8,192.1,190.8z"/>
	<path d="M211.2,206.8c-2.7,0-4.9-0.9-6.8-2.7c-1.8-1.8-2.7-4.1-2.7-6.8c0-2.8,0.9-5,2.8-6.8c1.8-1.8,4.1-2.7,6.8-2.7
		s4.9,0.9,6.8,2.7c1.8,1.8,2.7,4.1,2.7,6.8c0,2.8-0.9,5-2.7,6.8C216.1,205.9,213.9,206.8,211.2,206.8z M215.3,201.7
		c1-1.1,1.6-2.6,1.6-4.4s-0.5-3.3-1.6-4.4c-1-1.1-2.4-1.7-4.1-1.7c-1.7,0-3.1,0.6-4.1,1.7s-1.6,2.6-1.6,4.4s0.5,3.3,1.6,4.4
		c1.1,1.1,2.4,1.7,4.1,1.7C212.9,203.4,214.3,202.8,215.3,201.7z"/>
	<path d="M223.6,199.5V188h3.8v11.5c0,1.3,0.3,2.2,1,2.9c0.6,0.7,1.6,1,2.8,1s2.1-0.3,2.8-1s1-1.6,1-2.9V188h3.7v11.5
		c0,2.3-0.7,4.2-2.2,5.4c-1.5,1.3-3.3,1.9-5.4,1.9c-2.1,0-3.9-0.6-5.3-1.9C224.3,203.7,223.6,201.9,223.6,199.5z"/>
	<path d="M246.3,199.2v7.4h-3.8V188h6.9c2.2,0,3.8,0.5,5,1.6s1.7,2.4,1.7,4c0,1.2-0.4,2.3-1.1,3.3c-0.7,1-1.8,1.7-3.4,2.1l4.7,7.7
		H252l-4.5-7.4h-1.2V199.2z M246.3,190.9v5.4h3.1c0.9,0,1.7-0.2,2.2-0.7s0.7-1.2,0.7-2s-0.2-1.5-0.7-2s-1.2-0.7-2.2-0.7H246.3z"/>
	<path d="M261.6,204.1c-1.8-1.8-2.7-4.1-2.7-6.8c0-2.8,0.9-5,2.8-6.8c1.8-1.8,4.1-2.7,6.8-2.7c2,0,3.8,0.5,5.4,1.5s2.7,2.5,3.4,4.3
		h-4.5c-0.8-1.6-2.3-2.5-4.3-2.5c-1.7,0-3.1,0.6-4.1,1.7s-1.6,2.6-1.6,4.4s0.5,3.3,1.6,4.4c1.1,1.1,2.4,1.7,4.1,1.7
		c2,0,3.4-0.8,4.3-2.5h4.5c-0.7,1.9-1.8,3.3-3.4,4.3s-3.4,1.5-5.4,1.5C265.7,206.8,263.4,205.9,261.6,204.1z"/>
	<path d="M291.1,188v2.9h-7v4.9h6.2v2.9h-6.2v5.1h7v2.9h-10.7V188H291.1z"/>
	<path d="M301,190.8c-0.7,0-1.4,0.2-1.8,0.6c-0.5,0.4-0.7,0.9-0.7,1.6c0,0.7,0.2,1.2,0.5,1.6c0.3,0.4,0.8,0.7,1.4,0.9
		s1.2,0.4,1.9,0.5c0.7,0.2,1.4,0.4,2,0.6c0.7,0.2,1.3,0.5,1.9,0.9c0.6,0.3,1,0.8,1.4,1.5s0.5,1.4,0.5,2.4c0,1.5-0.6,2.8-1.8,3.9
		s-2.8,1.7-4.9,1.7s-3.6-0.5-4.9-1.4c-1.2-1-1.9-2.3-1.9-4h4c0.1,1.6,1.1,2.5,2.8,2.5c0.9,0,1.5-0.2,2-0.7c0.5-0.4,0.7-1,0.7-1.8
		c0-0.7-0.3-1.3-1-1.7s-1.5-0.7-2.4-1s-1.9-0.5-2.8-0.8s-1.7-0.8-2.4-1.6c-0.7-0.8-1-1.8-1-3c0-1.7,0.6-3,1.8-4.1s2.8-1.5,4.7-1.5
		s3.5,0.4,4.7,1.3c1.2,0.9,1.8,2.2,1.9,4h-4.1c-0.1-0.7-0.3-1.3-0.8-1.7C302.4,191,301.7,190.8,301,190.8z"/>
	<path d="M315,204.5c0,0.6-0.2,1.1-0.6,1.5s-0.9,0.6-1.5,0.6s-1.1-0.2-1.5-0.6c-0.4-0.4-0.6-0.9-0.6-1.5s0.2-1.1,0.6-1.5
		s0.9-0.6,1.5-0.6s1.1,0.2,1.5,0.6C314.8,203.4,315,203.9,315,204.5z"/>
	<path d="M327.9,204.1c-1.8-1.8-2.7-4.1-2.7-6.8c0-2.8,0.9-5,2.8-6.8c1.8-1.8,4.1-2.7,6.8-2.7c2,0,3.8,0.5,5.4,1.5s2.7,2.5,3.4,4.3
		h-4.5c-0.8-1.6-2.3-2.5-4.3-2.5c-1.7,0-3.1,0.6-4.1,1.7s-1.6,2.6-1.6,4.4s0.5,3.3,1.6,4.4c1.1,1.1,2.4,1.7,3.9,1.7s2.7-0.4,3.6-1.1
		s1.4-1.8,1.6-3.1h-6.2v-2.9h10.2v2.9c-0.3,2-1.3,3.8-3,5.3s-3.8,2.3-6.3,2.3C331.9,206.8,329.7,205.9,327.9,204.1z"/>
	<path d="M346.6,188h3.8v15.8h6v2.9h-9.7L346.6,188L346.6,188z"/>
	<path d="M367.4,206.8c-2.7,0-4.9-0.9-6.8-2.7c-1.8-1.8-2.7-4.1-2.7-6.8c0-2.8,0.9-5,2.8-6.8c1.8-1.8,4.1-2.7,6.8-2.7
		s4.9,0.9,6.8,2.7c1.8,1.8,2.7,4.1,2.7,6.8c0,2.8-0.9,5-2.7,6.8C372.3,205.9,370.1,206.8,367.4,206.8z M371.5,201.7
		c1-1.1,1.6-2.6,1.6-4.4s-0.5-3.3-1.6-4.4s-2.4-1.7-4.1-1.7s-3.1,0.6-4.1,1.7c-1.1,1.1-1.6,2.6-1.6,4.4s0.5,3.3,1.6,4.4
		c1.1,1.1,2.4,1.7,4.1,1.7S370.4,202.8,371.5,201.7z"/>
	<path d="M379.9,188h7.5c1.9,0,3.4,0.5,4.5,1.4s1.6,2.1,1.6,3.5c0,2.1-1.2,3.5-3.6,4.2c1.2,0.2,2.2,0.7,2.9,1.6
		c0.7,0.9,1.1,1.9,1.1,3.1c0,1.5-0.6,2.6-1.7,3.5s-2.6,1.3-4.5,1.3h-8V188H379.9z M383.6,190.9v4.8h3.4c0.8,0,1.5-0.2,2-0.6
		c0.5-0.4,0.7-1,0.7-1.8s-0.2-1.4-0.7-1.8c-0.5-0.4-1.2-0.6-2-0.6L383.6,190.9L383.6,190.9z M383.6,203.8h3.8c0.8,0,1.5-0.2,2-0.7
		s0.8-1.1,0.8-1.9s-0.3-1.4-0.8-1.9s-1.2-0.7-2-0.7h-3.8V203.8z"/>
	<path d="M409.4,206.6l-1.2-3.5H401l-1.2,3.5h-4l6.6-18.7h4.5l6.6,18.7H409.4z M401.9,200.3h5.3l-2.7-7.8L401.9,200.3z"/>
	<path d="M416,188h3.8v15.8h6v2.9H416V188z"/>
	<path d="M442.3,190.8c-0.7,0-1.4,0.2-1.8,0.6c-0.5,0.4-0.7,0.9-0.7,1.6c0,0.7,0.2,1.2,0.5,1.6c0.3,0.4,0.8,0.7,1.4,0.9
		s1.2,0.4,1.9,0.5c0.7,0.2,1.4,0.4,2,0.6c0.7,0.2,1.3,0.5,1.9,0.9c0.6,0.3,1,0.8,1.4,1.5s0.5,1.4,0.5,2.4c0,1.5-0.6,2.8-1.8,3.9
		s-2.8,1.7-4.9,1.7s-3.6-0.5-4.9-1.4c-1.2-1-1.9-2.3-1.9-4h4c0.1,1.6,1.1,2.5,2.8,2.5c0.9,0,1.5-0.2,2-0.7c0.5-0.4,0.7-1,0.7-1.8
		c0-0.7-0.3-1.3-1-1.7s-1.5-0.7-2.4-1c-0.9-0.2-1.9-0.5-2.8-0.8s-1.7-0.8-2.4-1.6c-0.7-0.8-1-1.8-1-3c0-1.7,0.6-3,1.8-4.1
		s2.8-1.5,4.7-1.5s3.5,0.4,4.7,1.3c1.2,0.9,1.8,2.2,1.9,4h-4.1c-0.1-0.7-0.3-1.3-0.8-1.7C443.6,191,443,190.8,442.3,190.8z"/>
	<path d="M451.8,190.9V188h13.8v2.9h-5v15.7h-3.7v-15.7H451.8z"/>
	<path d="M476.9,206.8c-2.7,0-4.9-0.9-6.8-2.7c-1.8-1.8-2.7-4.1-2.7-6.8c0-2.8,0.9-5,2.8-6.8c1.8-1.8,4.1-2.7,6.8-2.7
		c2.7,0,4.9,0.9,6.8,2.7c1.8,1.8,2.7,4.1,2.7,6.8c0,2.8-0.9,5-2.7,6.8C481.9,205.9,479.6,206.8,476.9,206.8z M481.1,201.7
		c1-1.1,1.6-2.6,1.6-4.4s-0.5-3.3-1.6-4.4s-2.4-1.7-4.1-1.7s-3.1,0.6-4.1,1.7c-1.1,1.1-1.6,2.6-1.6,4.4s0.5,3.3,1.6,4.4
		c1.1,1.1,2.4,1.7,4.1,1.7C478.6,203.4,480,202.8,481.1,201.7z"/>
	<path d="M493.2,199.2v7.4h-3.8V188h6.9c2.2,0,3.8,0.5,5,1.6s1.7,2.4,1.7,4c0,1.2-0.4,2.3-1.1,3.3s-1.8,1.7-3.4,2.1l4.7,7.7h-4.5
		l-4.5-7.4h-1V199.2z M493.2,190.9v5.4h3.1c0.9,0,1.7-0.2,2.2-0.7s0.7-1.2,0.7-2s-0.2-1.5-0.7-2s-1.2-0.7-2.2-0.7H493.2z"/>
	<path d="M506.7,206.6V188h3.8v18.6H506.7z"/>
	<path d="M525.2,188v2.9h-7v4.9h6.2v2.9h-6.2v5.1h7v2.9h-10.7V188H525.2z"/>
	<path d="M535.1,190.8c-0.7,0-1.4,0.2-1.8,0.6c-0.5,0.4-0.7,0.9-0.7,1.6c0,0.7,0.2,1.2,0.5,1.6c0.3,0.4,0.8,0.7,1.4,0.9
		c0.6,0.2,1.2,0.4,1.9,0.5c0.7,0.2,1.4,0.4,2,0.6c0.7,0.2,1.3,0.5,1.9,0.9c0.6,0.3,1,0.8,1.4,1.5s0.5,1.4,0.5,2.4
		c0,1.5-0.6,2.8-1.8,3.9s-2.8,1.7-4.9,1.7s-3.6-0.5-4.9-1.4c-1.2-1-1.9-2.3-1.9-4h4c0.1,1.6,1.1,2.5,2.8,2.5c0.9,0,1.5-0.2,2-0.7
		c0.5-0.4,0.7-1,0.7-1.8c0-0.7-0.3-1.3-1-1.7s-1.5-0.7-2.4-1c-0.9-0.2-1.9-0.5-2.8-0.8c-0.9-0.3-1.7-0.8-2.4-1.6s-1-1.8-1-3
		c0-1.7,0.6-3,1.8-4.1s2.8-1.5,4.7-1.5s3.5,0.4,4.7,1.3c1.2,0.9,1.8,2.2,1.9,4h-4.1c-0.1-0.7-0.3-1.3-0.8-1.7
		C536.4,191,535.8,190.8,535.1,190.8z"/>
	<path d="M549.1,204.5c0,0.6-0.2,1.1-0.6,1.5c-0.4,0.4-0.9,0.6-1.5,0.6s-1.1-0.2-1.5-0.6c-0.4-0.4-0.6-0.9-0.6-1.5s0.2-1.1,0.6-1.5
		c0.4-0.4,0.9-0.6,1.5-0.6s1.1,0.2,1.5,0.6C548.9,203.4,549.1,203.9,549.1,204.5z"/>
</g>
<circle class="st1" cx="388.1" cy="126.7" r="11.4"/>
</svg>
