<svg xmlns="http://www.w3.org/2000/svg" width="350" height="61" viewBox="0 0 350 61">
    <g fill="none" fill-rule="evenodd">
        <path fill="#002D56" fill-rule="nonzero" d="M180.496 60.915c-.086 0-.173-.01-.261-.034a31.07 31.07 0 0 1-3.835-1.31 1 1 0 1 1 .77-1.847c1.166.485 2.372.897 3.586 1.225a1 1 0 0 1-.26 1.966zm-8.886-4.05a.995.995 0 0 1-.557-.17 31.643 31.643 0 0 1-3.208-2.47 1 1 0 1 1 1.321-1.503 29.594 29.594 0 0 0 3.002 2.313 1 1 0 0 1-.558 1.83zm-7.116-6.679a.997.997 0 0 1-.793-.39 31.089 31.089 0 0 1-2.252-3.364.999.999 0 1 1 1.731-1.002 29.196 29.196 0 0 0 2.108 3.146 1 1 0 0 1-.794 1.61zm-4.611-8.599a1 1 0 0 1-.947-.678 30.95 30.95 0 0 1-1.05-3.912 1 1 0 0 1 1.962-.39c.246 1.236.576 2.467.981 3.657a1 1 0 0 1-.946 1.323zm-1.737-9.637c-.552 0-1.146-.44-1.146-.992v-.016c0-1.345.234-2.699.406-4.023.071-.548.66-.937 1.194-.863.548.071.971.573.899 1.121-.161 1.24-.298 2.506-.298 3.766.001.551-.502 1.007-1.055 1.007zm1.727-9.622a1.001 1.001 0 0 1-.947-1.322 30.82 30.82 0 0 1 1.552-3.744 1 1 0 0 1 1.793.885 28.823 28.823 0 0 0-1.45 3.5 1 1 0 0 1-.948.681zm4.603-8.609a1 1 0 0 1-.793-1.609 31.444 31.444 0 0 1 2.667-3.046.999.999 0 1 1 1.416 1.412 29.473 29.473 0 0 0-2.496 2.851.995.995 0 0 1-.794.392zm7.114-6.685a1 1 0 0 1-.56-1.83 31.237 31.237 0 0 1 3.498-2.036 1 1 0 0 1 .891 1.791c-1.125.56-2.227 1.2-3.272 1.904a.988.988 0 0 1-.557.171zm31.615-1.116a1 1 0 0 1-.498-.133 29.009 29.009 0 0 0-3.4-1.67 1 1 0 0 1 .762-1.85 31.163 31.163 0 0 1 3.637 1.786.999.999 0 0 1-.501 1.867zM180.463 2.98a1 1 0 0 1-.261-1.966 30.829 30.829 0 0 1 3.97-.798 1.001 1.001 0 0 1 .265 1.983 28.8 28.8 0 0 0-3.712.747 1.083 1.083 0 0 1-.262.034zm13.6-.48a.986.986 0 0 1-.193-.019 28.816 28.816 0 0 0-3.758-.482 1 1 0 0 1-.936-1.06.986.986 0 0 1 1.061-.936c1.347.083 2.698.257 4.018.515a1.001 1.001 0 1 1-.192 1.982z"/>
        <path fill="#000" d="M209.46 11.365a1 1 0 0 1-.707-.292 28.828 28.828 0 0 0-1.411-1.32 1 1 0 0 1 1.316-1.506c.51.447 1.019.922 1.509 1.41a.999.999 0 0 1-.707 1.708z"/>
        <path fill="#002D56" fill-rule="nonzero" d="M204.645 15.151c-.004-.004-.004-.01-.008-.015-.011-.014-.026-.02-.038-.033C200.409 10.731 194.52 8 188 8c-6.519 0-12.409 2.731-16.598 7.104-.012.013-.028.019-.039.033-.004.005-.004.011-.008.016C167.422 19.281 165 24.861 165 31c0 12.683 10.318 23 23 23 12.683 0 23-10.317 23-23 0-6.139-2.422-11.72-6.355-15.849zm-.904 29.702a26.063 26.063 0 0 0-4.804-2.775 26.768 26.768 0 0 0 2.351-10.077h7.661a20.877 20.877 0 0 1-5.208 12.852zM167.051 32h7.66a26.76 26.76 0 0 0 2.352 10.079 26.05 26.05 0 0 0-4.803 2.774A20.876 20.876 0 0 1 167.051 32zm5.258-14.909a26.061 26.061 0 0 0 4.786 2.756A26.764 26.764 0 0 0 174.711 30h-7.66a20.881 20.881 0 0 1 5.258-12.909zM187 20.093a25.205 25.205 0 0 1-7.129-1.305A24.666 24.666 0 0 1 187 10.876v9.217zm0 1.994V30h-10.289a24.755 24.755 0 0 1 2.25-9.423 27.177 27.177 0 0 0 8.039 1.51zM187 32v7.822c-2.743.1-5.469.603-8.074 1.523a24.746 24.746 0 0 1-2.215-9.346H187V32zm0 9.816v9.308a24.67 24.67 0 0 1-7.173-7.985A25.159 25.159 0 0 1 187 41.816zm2 0c2.435.095 4.855.526 7.174 1.321A24.667 24.667 0 0 1 189 51.123v-9.307zm0-1.994V32h10.288a24.758 24.758 0 0 1-2.214 9.345A27.223 27.223 0 0 0 189 39.822zM189 30v-7.913a27.177 27.177 0 0 0 8.039-1.51A24.735 24.735 0 0 1 199.288 30H189zm0-9.907v-9.217a24.666 24.666 0 0 1 7.129 7.912A25.17 25.17 0 0 1 189 20.093zm2.567-9.766c4.1.706 7.788 2.599 10.711 5.318a24.15 24.15 0 0 1-4.266 2.415 26.538 26.538 0 0 0-6.445-7.733zm-13.58 7.733a24.08 24.08 0 0 1-4.265-2.415 20.91 20.91 0 0 1 10.711-5.318 26.557 26.557 0 0 0-6.446 7.733zm-.037 25.808a26.578 26.578 0 0 0 6.483 7.806 20.927 20.927 0 0 1-10.766-5.369 24.086 24.086 0 0 1 4.283-2.437zm20.101-.002a24.1 24.1 0 0 1 4.284 2.438 20.934 20.934 0 0 1-10.768 5.37 26.56 26.56 0 0 0 6.484-7.808zM201.288 30a26.745 26.745 0 0 0-2.384-10.153 26.061 26.061 0 0 0 4.786-2.756A20.88 20.88 0 0 1 208.949 30h-7.661z"/>
        <path fill="#AE232C" fill-rule="nonzero" d="M219.02 19.78c-.127 0-.257.096-.38.045l-12.021-4.889c-.422-.174-.673-.582-.61-1.034a.984.984 0 0 1 .88-.839l5.57-.61.618-5.566a.999.999 0 0 1 1.918-.268l4.879 11.851c.104.158.165.227.165.431 0 .555-.471.88-1.01.88 0-.002-.004-.002-.008-.002zm-8.026-5.146l6.189 2.548-2.55-6.189-.274 2.481a1 1 0 0 1-.884.883l-2.481.277z"/>
        <g>
            <path fill="#AE232C" fill-rule="nonzero" d="M247 24h98a5 5 0 0 1 5 5v13a5 5 0 0 1-5 5h-98a5 5 0 0 1-5-5V29a5 5 0 0 1 5-5z"/>
            <path fill="#FCFCFC" d="M260.265 35.083h-3.72V39h-1.606v-9.242h5.872v1.295h-4.266V33.8h3.72v1.282zM263.79 39h-1.543v-6.868h1.543V39zm-1.638-8.652c0-.237.075-.434.226-.59.15-.157.365-.235.644-.235.28 0 .495.078.647.235a.812.812 0 0 1 .229.59.794.794 0 0 1-.229.581c-.152.154-.368.232-.647.232-.28 0-.494-.078-.644-.232a.8.8 0 0 1-.226-.58zm4.965 1.784l.044.793c.508-.613 1.175-.92 2-.92 1.43 0 2.158.819 2.183 2.456V39h-1.542v-4.45c0-.436-.094-.758-.282-.968-.189-.21-.497-.314-.924-.314-.622 0-1.085.281-1.39.844V39h-1.543v-6.868h1.454zm5.726 3.383c0-1.058.246-1.907.737-2.548.49-.642 1.149-.962 1.974-.962.728 0 1.316.254 1.764.762V29.25h1.543V39h-1.397l-.076-.71c-.461.558-1.077.837-1.847.837-.804 0-1.455-.324-1.952-.971-.497-.648-.746-1.528-.746-2.64zm1.543.133c0 .699.134 1.244.403 1.635s.65.587 1.146.587c.63 0 1.091-.281 1.383-.844v-2.933c-.283-.55-.74-.825-1.37-.825-.5 0-.885.198-1.156.594-.27.395-.406.99-.406 1.786zm9.466-.146c0-.672.133-1.279.4-1.818a2.92 2.92 0 0 1 1.123-1.244c.483-.29 1.037-.435 1.663-.435.927 0 1.68.298 2.257.895.578.597.89 1.388.936 2.374l.007.362c0 .677-.13 1.282-.39 1.815-.261.533-.633.946-1.118 1.238-.484.292-1.044.438-1.679.438-.969 0-1.744-.323-2.326-.968-.582-.645-.873-1.506-.873-2.58v-.077zm1.542.134c0 .706.146 1.26.438 1.66.292.4.699.6 1.22.6.52 0 .925-.204 1.215-.61.29-.406.435-1 .435-1.784 0-.694-.15-1.244-.448-1.65-.298-.406-.704-.61-1.216-.61-.503 0-.903.2-1.2.6-.295.4-.444.998-.444 1.794zm10.526 2.691c-.453.533-1.096.8-1.93.8-.745 0-1.309-.218-1.692-.654-.383-.436-.574-1.066-.574-1.891v-4.45h1.542v4.43c0 .872.362 1.308 1.086 1.308.749 0 1.255-.269 1.517-.806v-4.932h1.542V39h-1.453l-.038-.673zm5.212-7.865v1.67h1.212v1.142h-1.212v3.834c0 .263.052.452.155.569.104.116.29.174.556.174.178 0 .357-.021.54-.063v1.193c-.352.097-.69.146-1.016.146-1.185 0-1.778-.654-1.778-1.961v-3.892h-1.13v-1.142h1.13v-1.67h1.543zm7.51 1.67l.045.717c.483-.563 1.143-.844 1.98-.844.92 0 1.548.351 1.886 1.054.5-.703 1.202-1.054 2.107-1.054.758 0 1.322.21 1.692.628.37.42.56 1.037.568 1.854V39h-1.542v-4.469c0-.436-.095-.755-.286-.958-.19-.203-.506-.305-.946-.305-.35 0-.638.094-.86.283a1.49 1.49 0 0 0-.466.739l.006 4.71h-1.542v-4.52c-.022-.808-.434-1.212-1.238-1.212-.618 0-1.056.252-1.314.755V39h-1.543v-6.868h1.454zm9.79 3.37c0-.672.133-1.279.4-1.818a2.92 2.92 0 0 1 1.123-1.244c.483-.29 1.037-.435 1.663-.435.927 0 1.68.298 2.257.895.578.597.89 1.388.936 2.374l.007.362c0 .677-.13 1.282-.39 1.815-.261.533-.633.946-1.118 1.238-.485.292-1.044.438-1.679.438-.969 0-1.744-.323-2.326-.968-.582-.645-.873-1.506-.873-2.58v-.077zm1.542.134c0 .706.146 1.26.438 1.66.292.4.699.6 1.219.6.52 0 .926-.204 1.216-.61.29-.406.434-1 .434-1.784 0-.694-.149-1.244-.447-1.65-.298-.406-.704-.61-1.216-.61-.503 0-.903.2-1.2.6-.296.4-.444.998-.444 1.794zm9.96-2.095a3.817 3.817 0 0 0-.628-.05c-.707 0-1.183.27-1.428.812V39h-1.542v-6.868h1.472l.038.768c.373-.597.889-.895 1.55-.895.22 0 .401.03.545.089l-.006 1.447zm4.096 5.586c-.978 0-1.77-.308-2.377-.924-.608-.615-.911-1.435-.911-2.46v-.19c0-.685.132-1.298.396-1.837a3.02 3.02 0 0 1 1.114-1.26c.479-.3 1.012-.451 1.6-.451.935 0 1.658.298 2.168.895.51.597.765 1.44.765 2.533v.622h-4.488c.046.567.236 1.015.568 1.345.332.33.75.496 1.254.496.706 0 1.282-.286 1.726-.857l.832.793c-.275.41-.642.729-1.102.955-.459.227-.974.34-1.545.34zm-.184-5.884c-.424 0-.765.148-1.026.444-.26.296-.426.709-.498 1.238h2.94v-.114c-.035-.517-.172-.907-.413-1.172-.242-.264-.576-.396-1.003-.396z"/>
        </g>
        <path fill="#AE232C" d="M39.8 39H38.14v-7.396H39.8V39zm-1.764-9.317c0-.256.081-.468.243-.636.162-.169.393-.253.694-.253.3 0 .533.084.697.253.164.168.246.38.246.636 0 .25-.082.459-.246.625-.164.166-.396.25-.697.25-.3 0-.532-.084-.694-.25a.861.861 0 0 1-.243-.625zm7.935 7.307a.753.753 0 0 0-.366-.677c-.244-.154-.648-.291-1.213-.41-.565-.118-1.037-.269-1.415-.45-.83-.402-1.244-.983-1.244-1.744 0-.638.268-1.171.806-1.6.538-.428 1.222-.642 2.051-.642.884 0 1.599.219 2.143.656.545.438.817 1.005.817 1.702h-1.661c0-.319-.119-.584-.356-.796-.237-.212-.551-.318-.943-.318-.365 0-.662.084-.892.253a.797.797 0 0 0-.345.677c0 .255.107.453.321.594.214.142.647.284 1.299.428.652.143 1.163.314 1.535.512.37.199.647.437.827.715.18.278.27.615.27 1.011 0 .666-.276 1.205-.827 1.617-.552.413-1.274.619-2.167.619-.607 0-1.147-.11-1.62-.328-.475-.22-.844-.52-1.108-.903a2.136 2.136 0 0 1-.396-1.237H43.1c.023.392.17.694.444.906.274.212.636.318 1.087.318.438 0 .77-.084.998-.25a.772.772 0 0 0 .342-.653zm6.709-1.743c0-1.148.27-2.066.81-2.751.54-.686 1.256-1.03 2.15-1.03.843 0 1.506.295 1.989.883l.075-.745h1.497v7.17c0 .971-.302 1.737-.906 2.297-.603.56-1.418.841-2.443.841a3.939 3.939 0 0 1-1.59-.338c-.517-.226-.91-.52-1.18-.886l.787-.998c.51.607 1.14.91 1.887.91.551 0 .986-.15 1.305-.448.32-.299.479-.737.479-1.316v-.5c-.479.534-1.117.8-1.914.8-.866 0-1.573-.343-2.123-1.032-.549-.688-.823-1.64-.823-2.857zm1.654.144c0 .742.151 1.327.455 1.753.303.426.723.64 1.26.64.67 0 1.167-.288 1.491-.862v-3.254c-.314-.56-.807-.84-1.477-.84-.546 0-.971.216-1.274.649-.304.433-.455 1.07-.455 1.914zm6.478-.158c0-.724.144-1.377.431-1.958a3.145 3.145 0 0 1 1.21-1.34c.52-.312 1.116-.468 1.79-.468.999 0 1.81.321 2.431.964.622.642.958 1.494 1.008 2.556l.007.39c0 .73-.14 1.38-.42 1.955a3.108 3.108 0 0 1-1.203 1.333c-.522.314-1.125.472-1.808.472-1.044 0-1.88-.348-2.506-1.043-.626-.695-.94-1.621-.94-2.779v-.082zm1.661.144c0 .761.158 1.357.472 1.788.315.43.752.646 1.313.646.56 0 .997-.22 1.309-.657.312-.437.468-1.077.468-1.92 0-.748-.16-1.34-.482-1.778-.321-.437-.758-.656-1.31-.656-.541 0-.972.215-1.291.646-.32.43-.479 1.074-.479 1.931zM71.078 39h-1.661v-7.396h1.66V39zm-1.764-9.317c0-.256.081-.468.243-.636.162-.169.393-.253.694-.253.3 0 .533.084.697.253.164.168.246.38.246.636 0 .25-.082.459-.246.625-.164.166-.397.25-.697.25-.301 0-.532-.084-.694-.25a.861.861 0 0 1-.243-.625zm5.33 1.92l.048.855c.547-.66 1.265-.991 2.153-.991 1.54 0 2.324.882 2.352 2.645V39h-1.661v-4.792c0-.47-.102-.817-.305-1.042-.202-.226-.534-.339-.994-.339-.67 0-1.17.303-1.497.91V39h-1.661v-7.396h1.565zm6.17 3.644c0-1.148.27-2.066.81-2.751.54-.686 1.258-1.03 2.15-1.03.844 0 1.507.295 1.99.883l.075-.745h1.497v7.17c0 .971-.302 1.737-.905 2.297-.604.56-1.419.841-2.444.841a3.939 3.939 0 0 1-1.59-.338c-.517-.226-.91-.52-1.179-.886l.786-.998c.51.607 1.14.91 1.887.91.551 0 .987-.15 1.306-.448.319-.299.478-.737.478-1.316v-.5c-.478.534-1.116.8-1.914.8-.866 0-1.573-.343-2.122-1.032-.55-.688-.824-1.64-.824-2.857zm1.655.144c0 .742.152 1.327.455 1.753.303.426.723.64 1.261.64.67 0 1.167-.288 1.49-.862v-3.254c-.314-.56-.806-.84-1.476-.84-.547 0-.972.216-1.275.649-.303.433-.455 1.07-.455 1.914zm10.202-.144c0-1.148.27-2.066.81-2.751.54-.686 1.257-1.03 2.15-1.03.843 0 1.506.295 1.99.883l.074-.745h1.498v7.17c0 .971-.302 1.737-.906 2.297-.604.56-1.419.841-2.444.841a3.939 3.939 0 0 1-1.59-.338c-.517-.226-.91-.52-1.179-.886l.786-.998c.51.607 1.14.91 1.887.91.552 0 .987-.15 1.306-.448.319-.299.478-.737.478-1.316v-.5c-.478.534-1.116.8-1.914.8-.866 0-1.573-.343-2.122-1.032-.55-.688-.824-1.64-.824-2.857zm1.654.144c0 .742.152 1.327.455 1.753.303.426.723.64 1.261.64.67 0 1.167-.288 1.49-.862v-3.254c-.314-.56-.806-.84-1.476-.84-.547 0-.972.216-1.275.649-.303.433-.455 1.07-.455 1.914zM102.882 39h-1.661V28.5h1.66V39zm1.714-3.767c0-.724.143-1.377.43-1.958a3.145 3.145 0 0 1 1.21-1.34c.52-.312 1.117-.468 1.791-.468.998 0 1.808.321 2.43.964.622.642.959 1.494 1.009 2.556l.007.39c0 .73-.14 1.38-.42 1.955a3.108 3.108 0 0 1-1.204 1.333c-.522.314-1.125.472-1.808.472-1.044 0-1.879-.348-2.505-1.043-.627-.695-.94-1.621-.94-2.779v-.082zm1.66.144c0 .761.158 1.357.472 1.788.315.43.752.646 1.313.646.56 0 .997-.22 1.309-.657.312-.437.468-1.077.468-1.92 0-.748-.16-1.34-.482-1.778-.321-.437-.757-.656-1.309-.656-.542 0-.973.215-1.292.646-.319.43-.478 1.074-.478 1.931zm13.329 0c0 1.148-.257 2.062-.77 2.741-.512.68-1.217 1.019-2.115 1.019-.866 0-1.54-.312-2.023-.937l-.083.8h-1.503V28.5h1.66v3.814c.48-.565 1.124-.847 1.935-.847.903 0 1.611.335 2.126 1.005.515.67.773 1.606.773 2.81v.095zm-1.661-.144c0-.802-.142-1.403-.424-1.804-.283-.401-.693-.602-1.23-.602-.72 0-1.227.315-1.518.944v3.048c.296.643.806.964 1.53.964.52 0 .922-.193 1.204-.58.283-.388.428-.974.438-1.758v-.212zM125.612 39c-.073-.141-.137-.371-.191-.69a2.586 2.586 0 0 1-1.942.827c-.743 0-1.349-.212-1.818-.636a2.034 2.034 0 0 1-.704-1.572c0-.789.292-1.394.878-1.815.586-.422 1.423-.633 2.512-.633h1.019v-.485c0-.383-.107-.69-.321-.92-.215-.23-.54-.345-.978-.345-.378 0-.688.095-.93.284a.878.878 0 0 0-.362.721h-1.661c0-.405.134-.785.403-1.138.27-.353.635-.63 1.097-.83.463-.2.979-.301 1.549-.301.866 0 1.556.217 2.071.653.515.435.78 1.047.793 1.835v3.336c0 .665.093 1.196.28 1.593V39h-1.695zm-1.825-1.196c.328 0 .637-.08.926-.24.29-.16.507-.373.653-.642v-1.395h-.896c-.615 0-1.077.107-1.387.322-.31.214-.465.517-.465.909 0 .319.106.573.318.762.212.19.495.284.85.284zM130.75 39h-1.66V28.5h1.66V39zm3.06-1.75c.31 0 .55.088.719.263a.914.914 0 0 1 .253.66c0 .26-.085.475-.253.646-.169.17-.408.256-.718.256-.296 0-.531-.084-.704-.253a.867.867 0 0 1-.26-.65c0-.263.084-.483.253-.659.169-.175.406-.263.71-.263z"/>
        <path fill="#002D56" d="M1.436 39v-6.166H.308v-1.23h1.128v-.677c0-.82.227-1.454.683-1.9.456-.447 1.094-.67 1.914-.67.292 0 .602.04.93.122l-.041 1.3a3.272 3.272 0 0 0-.636-.055c-.793 0-1.19.408-1.19 1.223v.657h1.505v1.23H3.097V39H1.436zm8.467-5.879a4.11 4.11 0 0 0-.677-.055c-.76 0-1.273.292-1.538.875V39h-1.66v-7.396h1.585l.041.827c.401-.643.957-.964 1.668-.964.237 0 .433.032.588.096l-.007 1.558zM15.383 39c-.072-.141-.136-.371-.19-.69a2.586 2.586 0 0 1-1.942.827c-.743 0-1.35-.212-1.819-.636a2.034 2.034 0 0 1-.704-1.572c0-.789.293-1.394.879-1.815.585-.422 1.423-.633 2.512-.633h1.018v-.485c0-.383-.107-.69-.32-.92-.215-.23-.54-.345-.978-.345-.379 0-.689.095-.93.284a.878.878 0 0 0-.362.721h-1.662c0-.405.135-.785.404-1.138.269-.353.634-.63 1.097-.83.463-.2.979-.301 1.548-.301.866 0 1.557.217 2.072.653.515.435.779 1.047.793 1.835v3.336c0 .665.093 1.196.28 1.593V39h-1.695zm-1.825-1.196c.328 0 .637-.08.927-.24.289-.16.507-.373.652-.642v-1.395h-.895c-.615 0-1.078.107-1.388.322-.31.214-.465.517-.465.909 0 .319.106.573.318.762.212.19.496.284.851.284zm6.738-6.2l.048.854c.547-.66 1.265-.991 2.154-.991 1.54 0 2.324.882 2.351 2.645V39h-1.66v-4.792c0-.47-.102-.817-.305-1.042-.203-.226-.534-.339-.995-.339-.67 0-1.169.303-1.497.91V39h-1.66v-7.396h1.564zm8.865 4.224l-.739.759V39h-1.66V28.5h1.66v6.057l.52-.65 2.044-2.303h1.996l-2.748 3.083L33.276 39h-1.921l-2.194-3.172z"/>
    </g>
</svg>
