<svg xmlns="http://www.w3.org/2000/svg" width="53" height="51" viewBox="0 0 53 51">
    <path fill="#002D56" fill-rule="evenodd" d="M50.393 47.917c0 .27-.221.49-.494.49H21.346a.493.493 0 0 1-.494-.49v-28.41c0-.27.221-.49.494-.49h28.553c.273 0 .494.22.494.49v28.41zm-32.147-28.41v20.256h-6.457a.493.493 0 0 1-.494-.491V10.864c0-.27.221-.491.494-.491h28.553c.273 0 .494.22.494.49v5.56h-19.49c-1.71 0-3.1 1.385-3.1 3.085zm-9.558-8.643v21.119H3.1a.493.493 0 0 1-.494-.49V3.083c0-.27.222-.49.494-.49h28.554c.272 0 .494.22.494.49V7.78h-20.36c-1.709 0-3.1 1.384-3.1 3.084zm41.21 5.56h-6.456v-5.56c0-1.7-1.391-3.084-3.1-3.084h-5.589V3.084c0-1.7-1.39-3.084-3.1-3.084H3.1C1.39 0 0 1.384 0 3.084v28.408c0 1.7 1.39 3.084 3.1 3.084h5.588v4.696c0 1.7 1.391 3.084 3.1 3.084h6.458v5.56c0 1.7 1.39 3.084 3.1 3.084H49.9c1.71 0 3.1-1.384 3.1-3.084V19.508c0-1.7-1.392-3.084-3.101-3.084z"/>
</svg>
