<svg xmlns="http://www.w3.org/2000/svg" width="59" height="52" viewBox="0 0 59 52">
    <path fill="#002D56" fill-rule="evenodd" stroke="#002D56" d="M57 43.571C57 47.116 54.13 50 50.605 50H9.395C5.869 50 3 47.116 3 43.571V16.43C3 12.884 5.87 10 9.395 10h41.21C54.131 10 57 12.884 57 16.429V43.57zM41 9H17c.477-2.3 2.316-4 4.485-4h15.031C38.684 5 40.523 6.7 41 9zM19.457 3h20.086C43.103 3 46 6.14 46 10h-2.967c-.502-3.106-3.007-5.444-5.977-5.444H21.944c-2.97 0-5.475 2.338-5.977 5.444H13c0-3.86 2.897-7 6.457-7zm27.855 5.746c0-4.27-3.516-7.746-7.837-7.746h-19.95c-4.321 0-7.837 3.475-7.837 7.746h-2.85C4.515 8.746 1 12.222 1 16.493v26.76C1 47.526 4.516 51 8.837 51h41.326C54.483 51 58 47.525 58 43.254V16.493c0-4.271-3.516-7.747-7.837-7.747h-2.85z"/>
</svg>
