<svg xmlns="http://www.w3.org/2000/svg" xmlns:xlink="http://www.w3.org/1999/xlink" width="67" height="50" viewBox="0 0 67 50">
    <defs>
        <path id="a" d="M0 .332h66.498v43.419H0z"/>
        <path id="c" d="M0 0h66.498v3H0z"/>
    </defs>
    <g fill="none" fill-rule="evenodd">
        <g>
            <mask id="b" fill="#fff">
                <use xlink:href="#a"/>
            </mask>
            <path fill="#002D56" d="M63.902 40.845c0 .25-.168.415-.42.415H2.933c-.253 0-.42-.166-.42-.415V3.238c0-.25.167-.416.42-.416h60.635c.25 0 .418.167.418.416v37.607h-.083zM63.482.332H2.933C1.34.332 0 1.66 0 3.238v37.607c0 1.577 1.34 2.906 2.932 2.906h60.635c1.59 0 2.93-1.329 2.93-2.906V3.238C66.415 1.66 65.158.332 63.484.332z" mask="url(#b)"/>
        </g>
        <path fill="#002D56" d="M10.609 5.23a1.273 1.273 0 0 0 0-1.837 1.256 1.256 0 0 0-1.826 0L3.39 8.814a1.273 1.273 0 0 0 0 1.836c.261.263.609.35.957.35s.695-.087.956-.35l5.305-5.42zM14.712 4.36L5.388 13c-.517.48-.517 1.2 0 1.68.26.24.605.32.95.32s.69-.08.95-.32l9.324-8.64c.517-.48.517-1.2 0-1.68-.518-.48-1.382-.48-1.9 0"/>
        <g transform="translate(0 47)">
            <mask id="d" fill="#fff">
                <use xlink:href="#c"/>
            </mask>
            <path fill="#002D56" d="M65.158 0H1.257C.586 0 0 .7 0 1.5S.586 3 1.257 3h63.985c.669 0 1.256-.7 1.256-1.5s-.67-1.5-1.34-1.5" mask="url(#d)"/>
        </g>
    </g>
</svg>
