<svg xmlns="http://www.w3.org/2000/svg" width="20" height="14" viewBox="0 0 20 14">
    <path fill="#F08B56" fill-rule="evenodd" d="M0 9.568c0-2.32.771-4.293 2.313-5.918C3.856 2.025 6.14.809 9.164 0v2.066c-.943.285-1.748.652-2.414 1.101-.667.45-1.19.962-1.573 1.539-.382.576-.573 1.126-.573 1.65 0 .345.117.633.349.865.232.232.692.528 1.381.887 1.153.614 1.73 1.543 1.73 2.786 0 .913-.334 1.643-1 2.19-.666.546-1.546.82-2.64.82-1.272 0-2.328-.409-3.166-1.225C.419 11.863 0 10.826 0 9.57zm10.107 0c0-2.32.772-4.293 2.314-5.918S16.247.809 19.27 0v2.066c-.943.285-1.748.652-2.414 1.101-.666.45-1.19.962-1.572 1.539-.382.576-.573 1.126-.573 1.65 0 .345.116.633.348.865.232.232.693.528 1.381.887 1.153.614 1.73 1.543 1.73 2.786 0 .913-.333 1.643-1 2.19-.666.546-1.546.82-2.639.82-1.273 0-2.328-.409-3.167-1.225-.838-.816-1.258-1.853-1.258-3.11z"/>
</svg>
