<?xml version="1.0" encoding="UTF-8"?>
<svg width="252px" height="12px" viewBox="0 0 252 12" version="1.1" xmlns="http://www.w3.org/2000/svg" xmlns:xlink="http://www.w3.org/1999/xlink">
    <!-- Generator: Sketch 56.3 (81716) - https://sketch.com -->
    <title>TRUSTEDSOURCES.GLOBALSTORIES.</title>
    <desc>Created with Sketch.</desc>
    <g id="Symbols" stroke="none" stroke-width="1" fill="none" fill-rule="evenodd">
        <g id="Header-Global" transform="translate(-292.000000, -142.000000)" fill="#000000" fill-rule="nonzero">
            <path d="M296.771484,153 L295.137695,153 L295.137695,144.407227 L292.198242,144.407227 L292.198242,143.005859 L299.710938,143.005859 L299.710938,144.407227 L296.771484,144.407227 L296.771484,153 Z M302.875977,147.654297 L304.010742,147.654297 C304.771814,147.654297 305.32324,147.513022 305.665039,147.230469 C306.006838,146.947915 306.177734,146.528649 306.177734,145.972656 C306.177734,145.407549 305.993166,145.001954 305.624023,144.755859 C305.254881,144.509764 304.698897,144.386719 303.956055,144.386719 L302.875977,144.386719 L302.875977,147.654297 Z M302.875977,149.007812 L302.875977,153 L301.242188,153 L301.242188,143.005859 L304.06543,143.005859 C305.35515,143.005859 306.309893,143.247393 306.929688,143.730469 C307.549482,144.213544 307.859375,144.942703 307.859375,145.917969 C307.859375,147.162116 307.212246,148.0485 305.917969,148.577148 L308.741211,153 L306.881836,153 L304.489258,149.007812 L302.875977,149.007812 Z M318.024414,143.005859 L318.024414,149.472656 C318.024414,150.210941 317.86605,150.856931 317.549316,151.410645 C317.232583,151.964358 316.77458,152.390461 316.175293,152.688965 C315.576006,152.987469 314.859379,153.136719 314.025391,153.136719 C312.785801,153.136719 311.821944,152.808597 311.133789,152.152344 C310.445635,151.49609 310.101562,150.593756 310.101562,149.445312 L310.101562,143.005859 L311.742188,143.005859 L311.742188,149.329102 C311.742188,150.153975 311.933592,150.762368 312.316406,151.154297 C312.699221,151.546226 313.287105,151.742188 314.080078,151.742188 C315.62045,151.742188 316.390625,150.933276 316.390625,149.31543 L316.390625,143.005859 L318.024414,143.005859 Z M326.34375,150.286133 C326.34375,151.174809 326.022464,151.872068 325.379883,152.37793 C324.737301,152.883792 323.850917,153.136719 322.720703,153.136719 C321.590489,153.136719 320.665368,152.961265 319.945312,152.610352 L319.945312,151.06543 C320.401044,151.279623 320.885251,151.448242 321.397949,151.571289 C321.910647,151.694337 322.388019,151.755859 322.830078,151.755859 C323.477217,151.755859 323.954588,151.632814 324.262207,151.386719 C324.569826,151.140624 324.723633,150.810223 324.723633,150.395508 C324.723633,150.021808 324.582358,149.705079 324.299805,149.445312 C324.017251,149.185546 323.433924,148.877931 322.549805,148.522461 C321.638342,148.153318 320.99577,147.731773 320.62207,147.257812 C320.248371,146.783852 320.061523,146.214196 320.061523,145.548828 C320.061523,144.71484 320.357744,144.058596 320.950195,143.580078 C321.542646,143.10156 322.337886,142.862305 323.335938,142.862305 C324.292974,142.862305 325.245438,143.071938 326.193359,143.491211 L325.673828,144.824219 C324.785152,144.450519 323.992191,144.263672 323.294922,144.263672 C322.766273,144.263672 322.365236,144.378742 322.091797,144.608887 C321.818358,144.839031 321.681641,145.143227 321.681641,145.521484 C321.681641,145.781251 321.736328,146.003417 321.845703,146.187988 C321.955079,146.37256 322.13509,146.546874 322.385742,146.710938 C322.636394,146.875001 323.087562,147.09147 323.739258,147.360352 C324.472985,147.665692 325.01074,147.95052 325.352539,148.214844 C325.694338,148.479168 325.944986,148.777668 326.104492,149.110352 C326.263998,149.443036 326.34375,149.834959 326.34375,150.286133 Z M331.730469,153 L330.09668,153 L330.09668,144.407227 L327.157227,144.407227 L327.157227,143.005859 L334.669922,143.005859 L334.669922,144.407227 L331.730469,144.407227 L331.730469,153 Z M341.854492,153 L336.201172,153 L336.201172,143.005859 L341.854492,143.005859 L341.854492,144.386719 L337.834961,144.386719 L337.834961,147.107422 L341.601562,147.107422 L341.601562,148.474609 L337.834961,148.474609 L337.834961,151.612305 L341.854492,151.612305 L341.854492,153 Z M352.142578,147.907227 C352.142578,149.556974 351.684575,150.818192 350.768555,151.690918 C349.852534,152.563644 348.533212,153 346.810547,153 L344.014648,153 L344.014648,143.005859 L347.104492,143.005859 C348.694995,143.005859 349.932287,143.434241 350.816406,144.291016 C351.700525,145.147791 352.142578,146.353182 352.142578,147.907227 Z M350.419922,147.961914 C350.419922,145.569324 349.301118,144.373047 347.063477,144.373047 L345.648438,144.373047 L345.648438,151.625977 L346.810547,151.625977 C349.216809,151.625977 350.419922,150.404635 350.419922,147.961914 Z M363.688477,150.286133 C363.688477,151.174809 363.367191,151.872068 362.724609,152.37793 C362.082028,152.883792 361.195644,153.136719 360.06543,153.136719 C358.935216,153.136719 358.010095,152.961265 357.290039,152.610352 L357.290039,151.06543 C357.745771,151.279623 358.229978,151.448242 358.742676,151.571289 C359.255374,151.694337 359.732745,151.755859 360.174805,151.755859 C360.821943,151.755859 361.299315,151.632814 361.606934,151.386719 C361.914552,151.140624 362.068359,150.810223 362.068359,150.395508 C362.068359,150.021808 361.927085,149.705079 361.644531,149.445312 C361.361978,149.185546 360.77865,148.877931 359.894531,148.522461 C358.983068,148.153318 358.340497,147.731773 357.966797,147.257812 C357.593097,146.783852 357.40625,146.214196 357.40625,145.548828 C357.40625,144.71484 357.702471,144.058596 358.294922,143.580078 C358.887373,143.10156 359.682612,142.862305 360.680664,142.862305 C361.6377,142.862305 362.590165,143.071938 363.538086,143.491211 L363.018555,144.824219 C362.129878,144.450519 361.336918,144.263672 360.639648,144.263672 C360.111,144.263672 359.709962,144.378742 359.436523,144.608887 C359.163085,144.839031 359.026367,145.143227 359.026367,145.521484 C359.026367,145.781251 359.081054,146.003417 359.19043,146.187988 C359.299805,146.37256 359.479816,146.546874 359.730469,146.710938 C359.981121,146.875001 360.432288,147.09147 361.083984,147.360352 C361.817712,147.665692 362.355467,147.95052 362.697266,148.214844 C363.039064,148.479168 363.289713,148.777668 363.449219,149.110352 C363.608725,149.443036 363.688477,149.834959 363.688477,150.286133 Z M374.496094,147.989258 C374.496094,149.616219 374.08936,150.880855 373.275879,151.783203 C372.462398,152.685551 371.310554,153.136719 369.820312,153.136719 C368.311841,153.136719 367.153162,152.688969 366.344238,151.793457 C365.535315,150.897945 365.130859,149.625334 365.130859,147.975586 C365.130859,146.325838 365.537594,145.058924 366.351074,144.174805 C367.164555,143.290686 368.325513,142.848633 369.833984,142.848633 C371.319669,142.848633 372.468095,143.297522 373.279297,144.195312 C374.090499,145.093103 374.496094,146.357739 374.496094,147.989258 Z M366.867188,147.989258 C366.867188,149.219733 367.115557,150.152829 367.612305,150.788574 C368.109052,151.42432 368.845047,151.742188 369.820312,151.742188 C370.79102,151.742188 371.523598,151.427738 372.018066,150.798828 C372.512535,150.169919 372.759766,149.233405 372.759766,147.989258 C372.759766,146.76334 372.514814,145.833662 372.024902,145.200195 C371.534991,144.566729 370.804692,144.25 369.833984,144.25 C368.854162,144.25 368.114749,144.566729 367.615723,145.200195 C367.116697,145.833662 366.867188,146.76334 366.867188,147.989258 Z M384.476562,143.005859 L384.476562,149.472656 C384.476562,150.210941 384.318198,150.856931 384.001465,151.410645 C383.684731,151.964358 383.226728,152.390461 382.627441,152.688965 C382.028155,152.987469 381.311528,153.136719 380.477539,153.136719 C379.23795,153.136719 378.274092,152.808597 377.585938,152.152344 C376.897783,151.49609 376.553711,150.593756 376.553711,149.445312 L376.553711,143.005859 L378.194336,143.005859 L378.194336,149.329102 C378.194336,150.153975 378.38574,150.762368 378.768555,151.154297 C379.151369,151.546226 379.739254,151.742188 380.532227,151.742188 C382.072599,151.742188 382.842773,150.933276 382.842773,149.31543 L382.842773,143.005859 L384.476562,143.005859 Z M388.666992,147.654297 L389.801758,147.654297 C390.562829,147.654297 391.114256,147.513022 391.456055,147.230469 C391.797853,146.947915 391.96875,146.528649 391.96875,145.972656 C391.96875,145.407549 391.784182,145.001954 391.415039,144.755859 C391.045897,144.509764 390.489913,144.386719 389.74707,144.386719 L388.666992,144.386719 L388.666992,147.654297 Z M388.666992,149.007812 L388.666992,153 L387.033203,153 L387.033203,143.005859 L389.856445,143.005859 C391.146165,143.005859 392.100908,143.247393 392.720703,143.730469 C393.340498,144.213544 393.650391,144.942703 393.650391,145.917969 C393.650391,147.162116 393.003262,148.0485 391.708984,148.577148 L394.532227,153 L392.672852,153 L390.280273,149.007812 L388.666992,149.007812 Z M400.233398,144.263672 C399.294592,144.263672 398.556318,144.596351 398.018555,145.261719 C397.480792,145.927087 397.211914,146.845372 397.211914,148.016602 C397.211914,149.242519 397.470538,150.169919 397.987793,150.798828 C398.505048,151.427738 399.253576,151.742188 400.233398,151.742188 C400.657229,151.742188 401.067381,151.700033 401.463867,151.615723 C401.860354,151.531412 402.272784,151.423178 402.701172,151.291016 L402.701172,152.692383 C401.917314,152.988608 401.028651,153.136719 400.035156,153.136719 C398.572258,153.136719 397.448897,152.693527 396.665039,151.807129 C395.881181,150.920731 395.489258,149.652678 395.489258,148.00293 C395.489258,146.963862 395.679523,146.054691 396.060059,145.275391 C396.440594,144.49609 396.990882,143.899091 397.710938,143.484375 C398.430993,143.069659 399.276362,142.862305 400.24707,142.862305 C401.267909,142.862305 402.211259,143.076495 403.077148,143.504883 L402.489258,144.865234 C402.152017,144.705728 401.795412,144.565593 401.419434,144.444824 C401.043455,144.324055 400.648114,144.263672 400.233398,144.263672 Z M410.507812,153 L404.854492,153 L404.854492,143.005859 L410.507812,143.005859 L410.507812,144.386719 L406.488281,144.386719 L406.488281,147.107422 L410.254883,147.107422 L410.254883,148.474609 L406.488281,148.474609 L406.488281,151.612305 L410.507812,151.612305 L410.507812,153 Z M418.430664,150.286133 C418.430664,151.174809 418.109378,151.872068 417.466797,152.37793 C416.824216,152.883792 415.937831,153.136719 414.807617,153.136719 C413.677403,153.136719 412.752282,152.961265 412.032227,152.610352 L412.032227,151.06543 C412.487958,151.279623 412.972165,151.448242 413.484863,151.571289 C413.997561,151.694337 414.474933,151.755859 414.916992,151.755859 C415.564131,151.755859 416.041502,151.632814 416.349121,151.386719 C416.65674,151.140624 416.810547,150.810223 416.810547,150.395508 C416.810547,150.021808 416.669272,149.705079 416.386719,149.445312 C416.104165,149.185546 415.520838,148.877931 414.636719,148.522461 C413.725256,148.153318 413.082684,147.731773 412.708984,147.257812 C412.335285,146.783852 412.148438,146.214196 412.148438,145.548828 C412.148438,144.71484 412.444658,144.058596 413.037109,143.580078 C413.62956,143.10156 414.4248,142.862305 415.422852,142.862305 C416.379888,142.862305 417.332352,143.071938 418.280273,143.491211 L417.760742,144.824219 C416.872066,144.450519 416.079105,144.263672 415.381836,144.263672 C414.853187,144.263672 414.45215,144.378742 414.178711,144.608887 C413.905272,144.839031 413.768555,145.143227 413.768555,145.521484 C413.768555,145.781251 413.823242,146.003417 413.932617,146.187988 C414.041993,146.37256 414.222004,146.546874 414.472656,146.710938 C414.723309,146.875001 415.174476,147.09147 415.826172,147.360352 C416.5599,147.665692 417.097655,147.95052 417.439453,148.214844 C417.781252,148.479168 418.0319,148.777668 418.191406,149.110352 C418.350912,149.443036 418.430664,149.834959 418.430664,150.286133 Z M419.955078,152.145508 C419.955078,151.812824 420.041666,151.557618 420.214844,151.379883 C420.388022,151.202148 420.63867,151.113281 420.966797,151.113281 C421.299481,151.113281 421.552408,151.205565 421.725586,151.390137 C421.898764,151.574708 421.985352,151.826496 421.985352,152.145508 C421.985352,152.469077 421.897625,152.725422 421.722168,152.914551 C421.546711,153.103679 421.294924,153.198242 420.966797,153.198242 C420.63867,153.198242 420.388022,153.104819 420.214844,152.917969 C420.041666,152.731119 419.955078,152.473634 419.955078,152.145508 Z M431.938477,147.579102 L435.616211,147.579102 L435.616211,152.59668 C435.014645,152.792644 434.437014,152.93164 433.883301,153.013672 C433.329587,153.095704 432.731449,153.136719 432.088867,153.136719 C430.575839,153.136719 429.409184,152.688969 428.588867,151.793457 C427.768551,150.897945 427.358398,149.634448 427.358398,148.00293 C427.358398,146.394198 427.820959,145.135258 428.746094,144.226074 C429.671229,143.31689 430.944979,142.862305 432.567383,142.862305 C433.611008,142.862305 434.59993,143.062824 435.53418,143.463867 L434.959961,144.824219 C434.148759,144.450519 433.337569,144.263672 432.526367,144.263672 C431.459956,144.263672 430.616865,144.598629 429.99707,145.268555 C429.377276,145.93848 429.067383,146.854486 429.067383,148.016602 C429.067383,149.237962 429.346514,150.166501 429.904785,150.802246 C430.463056,151.437991 431.266271,151.755859 432.314453,151.755859 C432.843102,151.755859 433.4082,151.689779 434.009766,151.557617 L434.009766,148.980469 L431.938477,148.980469 L431.938477,147.579102 Z M438.015625,153 L438.015625,143.005859 L439.649414,143.005859 L439.649414,151.598633 L443.880859,151.598633 L443.880859,153 L438.015625,153 Z M454.476562,147.989258 C454.476562,149.616219 454.069828,150.880855 453.256348,151.783203 C452.442867,152.685551 451.291023,153.136719 449.800781,153.136719 C448.29231,153.136719 447.13363,152.688969 446.324707,151.793457 C445.515784,150.897945 445.111328,149.625334 445.111328,147.975586 C445.111328,146.325838 445.518062,145.058924 446.331543,144.174805 C447.145024,143.290686 448.305982,142.848633 449.814453,142.848633 C451.300138,142.848633 452.448564,143.297522 453.259766,144.195312 C454.070968,145.093103 454.476562,146.357739 454.476562,147.989258 Z M446.847656,147.989258 C446.847656,149.219733 447.096026,150.152829 447.592773,150.788574 C448.089521,151.42432 448.825516,151.742188 449.800781,151.742188 C450.771489,151.742188 451.504067,151.427738 451.998535,150.798828 C452.493004,150.169919 452.740234,149.233405 452.740234,147.989258 C452.740234,146.76334 452.495282,145.833662 452.005371,145.200195 C451.51546,144.566729 450.785161,144.25 449.814453,144.25 C448.834631,144.25 448.095217,144.566729 447.596191,145.200195 C447.097165,145.833662 446.847656,146.76334 446.847656,147.989258 Z M456.623047,143.005859 L459.589844,143.005859 C460.966153,143.005859 461.960772,143.206378 462.57373,143.607422 C463.186689,144.008466 463.493164,144.641923 463.493164,145.507812 C463.493164,146.091149 463.342775,146.576495 463.041992,146.963867 C462.741209,147.351239 462.308271,147.595052 461.743164,147.695312 L461.743164,147.763672 C462.44499,147.895834 462.961099,148.156736 463.291504,148.546387 C463.621909,148.936037 463.787109,149.463538 463.787109,150.128906 C463.787109,151.026697 463.473799,151.729652 462.847168,152.237793 C462.220537,152.745934 461.348964,153 460.232422,153 L456.623047,153 L456.623047,143.005859 Z M458.256836,147.134766 L459.829102,147.134766 C460.512699,147.134766 461.011717,147.026531 461.326172,146.810059 C461.640627,146.593586 461.797852,146.225589 461.797852,145.706055 C461.797852,145.236651 461.628094,144.897136 461.288574,144.6875 C460.949054,144.477864 460.41016,144.373047 459.671875,144.373047 L458.256836,144.373047 L458.256836,147.134766 Z M458.256836,148.460938 L458.256836,151.625977 L459.993164,151.625977 C460.676761,151.625977 461.192869,151.494956 461.541504,151.23291 C461.890138,150.970865 462.064453,150.557294 462.064453,149.992188 C462.064453,149.472654 461.886721,149.087566 461.53125,148.836914 C461.175779,148.586262 460.635746,148.460938 459.911133,148.460938 L458.256836,148.460938 Z M472.06543,153 L471.067383,150.224609 L467.246094,150.224609 L466.268555,153 L464.545898,153 L468.285156,142.964844 L470.0625,142.964844 L473.801758,153 L472.06543,153 Z M470.636719,148.816406 L469.700195,146.095703 C469.631836,145.913411 469.537273,145.626304 469.416504,145.234375 C469.295735,144.842446 469.212565,144.555339 469.166992,144.373047 C469.043945,144.933597 468.863933,145.546546 468.626953,146.211914 L467.724609,148.816406 L470.636719,148.816406 Z M475.121094,153 L475.121094,143.005859 L476.754883,143.005859 L476.754883,151.598633 L480.986328,151.598633 L480.986328,153 L475.121094,153 Z M492.108398,150.286133 C492.108398,151.174809 491.787113,151.872068 491.144531,152.37793 C490.50195,152.883792 489.615566,153.136719 488.485352,153.136719 C487.355138,153.136719 486.430017,152.961265 485.709961,152.610352 L485.709961,151.06543 C486.165692,151.279623 486.6499,151.448242 487.162598,151.571289 C487.675296,151.694337 488.152667,151.755859 488.594727,151.755859 C489.241865,151.755859 489.719237,151.632814 490.026855,151.386719 C490.334474,151.140624 490.488281,150.810223 490.488281,150.395508 C490.488281,150.021808 490.347007,149.705079 490.064453,149.445312 C489.7819,149.185546 489.198572,148.877931 488.314453,148.522461 C487.40299,148.153318 486.760419,147.731773 486.386719,147.257812 C486.013019,146.783852 485.826172,146.214196 485.826172,145.548828 C485.826172,144.71484 486.122393,144.058596 486.714844,143.580078 C487.307295,143.10156 488.102534,142.862305 489.100586,142.862305 C490.057622,142.862305 491.010086,143.071938 491.958008,143.491211 L491.438477,144.824219 C490.5498,144.450519 489.756839,144.263672 489.05957,144.263672 C488.530922,144.263672 488.129884,144.378742 487.856445,144.608887 C487.583006,144.839031 487.446289,145.143227 487.446289,145.521484 C487.446289,145.781251 487.500976,146.003417 487.610352,146.187988 C487.719727,146.37256 487.899738,146.546874 488.150391,146.710938 C488.401043,146.875001 488.85221,147.09147 489.503906,147.360352 C490.237634,147.665692 490.775389,147.95052 491.117188,148.214844 C491.458986,148.479168 491.709635,148.777668 491.869141,149.110352 C492.028647,149.443036 492.108398,149.834959 492.108398,150.286133 Z M497.495117,153 L495.861328,153 L495.861328,144.407227 L492.921875,144.407227 L492.921875,143.005859 L500.43457,143.005859 L500.43457,144.407227 L497.495117,144.407227 L497.495117,153 Z M510.838867,147.989258 C510.838867,149.616219 510.432133,150.880855 509.618652,151.783203 C508.805172,152.685551 507.653328,153.136719 506.163086,153.136719 C504.654615,153.136719 503.495935,152.688969 502.687012,151.793457 C501.878088,150.897945 501.473633,149.625334 501.473633,147.975586 C501.473633,146.325838 501.880367,145.058924 502.693848,144.174805 C503.507328,143.290686 504.668287,142.848633 506.176758,142.848633 C507.662442,142.848633 508.810868,143.297522 509.62207,144.195312 C510.433272,145.093103 510.838867,146.357739 510.838867,147.989258 Z M503.209961,147.989258 C503.209961,149.219733 503.458331,150.152829 503.955078,150.788574 C504.451825,151.42432 505.187821,151.742188 506.163086,151.742188 C507.133794,151.742188 507.866371,151.427738 508.36084,150.798828 C508.855308,150.169919 509.102539,149.233405 509.102539,147.989258 C509.102539,146.76334 508.857587,145.833662 508.367676,145.200195 C507.877764,144.566729 507.147466,144.25 506.176758,144.25 C505.196935,144.25 504.457522,144.566729 503.958496,145.200195 C503.45947,145.833662 503.209961,146.76334 503.209961,147.989258 Z M514.619141,147.654297 L515.753906,147.654297 C516.514978,147.654297 517.066405,147.513022 517.408203,147.230469 C517.750002,146.947915 517.920898,146.528649 517.920898,145.972656 C517.920898,145.407549 517.73633,145.001954 517.367188,144.755859 C516.998045,144.509764 516.442061,144.386719 515.699219,144.386719 L514.619141,144.386719 L514.619141,147.654297 Z M514.619141,149.007812 L514.619141,153 L512.985352,153 L512.985352,143.005859 L515.808594,143.005859 C517.098314,143.005859 518.053057,143.247393 518.672852,143.730469 C519.292646,144.213544 519.602539,144.942703 519.602539,145.917969 C519.602539,147.162116 518.95541,148.0485 517.661133,148.577148 L520.484375,153 L518.625,153 L516.232422,149.007812 L514.619141,149.007812 Z M521.933594,153 L521.933594,143.005859 L523.567383,143.005859 L523.567383,153 L521.933594,153 Z M531.859375,153 L526.206055,153 L526.206055,143.005859 L531.859375,143.005859 L531.859375,144.386719 L527.839844,144.386719 L527.839844,147.107422 L531.606445,147.107422 L531.606445,148.474609 L527.839844,148.474609 L527.839844,151.612305 L531.859375,151.612305 L531.859375,153 Z M539.782227,150.286133 C539.782227,151.174809 539.460941,151.872068 538.818359,152.37793 C538.175778,152.883792 537.289394,153.136719 536.15918,153.136719 C535.028966,153.136719 534.103845,152.961265 533.383789,152.610352 L533.383789,151.06543 C533.839521,151.279623 534.323728,151.448242 534.836426,151.571289 C535.349124,151.694337 535.826495,151.755859 536.268555,151.755859 C536.915693,151.755859 537.393065,151.632814 537.700684,151.386719 C538.008302,151.140624 538.162109,150.810223 538.162109,150.395508 C538.162109,150.021808 538.020835,149.705079 537.738281,149.445312 C537.455728,149.185546 536.8724,148.877931 535.988281,148.522461 C535.076818,148.153318 534.434247,147.731773 534.060547,147.257812 C533.686847,146.783852 533.5,146.214196 533.5,145.548828 C533.5,144.71484 533.796221,144.058596 534.388672,143.580078 C534.981123,143.10156 535.776362,142.862305 536.774414,142.862305 C537.73145,142.862305 538.683915,143.071938 539.631836,143.491211 L539.112305,144.824219 C538.223628,144.450519 537.430668,144.263672 536.733398,144.263672 C536.20475,144.263672 535.803712,144.378742 535.530273,144.608887 C535.256835,144.839031 535.120117,145.143227 535.120117,145.521484 C535.120117,145.781251 535.174804,146.003417 535.28418,146.187988 C535.393555,146.37256 535.573566,146.546874 535.824219,146.710938 C536.074871,146.875001 536.526038,147.09147 537.177734,147.360352 C537.911462,147.665692 538.449217,147.95052 538.791016,148.214844 C539.132814,148.479168 539.383463,148.777668 539.542969,149.110352 C539.702475,149.443036 539.782227,149.834959 539.782227,150.286133 Z M541.306641,152.145508 C541.306641,151.812824 541.393228,151.557618 541.566406,151.379883 C541.739584,151.202148 541.990233,151.113281 542.318359,151.113281 C542.651043,151.113281 542.90397,151.205565 543.077148,151.390137 C543.250326,151.574708 543.336914,151.826496 543.336914,152.145508 C543.336914,152.469077 543.249187,152.725422 543.07373,152.914551 C542.898274,153.103679 542.646486,153.198242 542.318359,153.198242 C541.990233,153.198242 541.739584,153.104819 541.566406,152.917969 C541.393228,152.731119 541.306641,152.473634 541.306641,152.145508 Z" id="TRUSTEDSOURCES.GLOBALSTORIES."></path>
        </g>
    </g>
</svg>