<?xml version="1.0" encoding="utf-8"?>
<!-- Generator: Adobe Illustrator 25.1.0, SVG Export Plug-In . SVG Version: 6.00 Build 0)  -->
<svg version="1.1" id="Layer_1" xmlns="http://www.w3.org/2000/svg" xmlns:xlink="http://www.w3.org/1999/xlink" x="0px" y="0px"
	 viewBox="0 0 283.5 105.5" style="enable-background:new 0 0 283.5 105.5;" xml:space="preserve">
<style type="text/css">
	.st0{fill:#1A1C63;}
	.st1{fill:#EE202E;}
</style>
<g>
	<g>
		<path class="st0" d="M169.1,56.8c0,16.8-9.1,24.8-27.5,24.8c-18.5,0-27.6-8-27.6-24.8V19.7h18.6v33c0,6.2,0,13.9,9.1,13.9
			c8.8,0,8.8-7.7,8.8-13.9v-33h18.6V56.8z"/>
		<path class="st0" d="M194.1,65.8H205c3.9,0,7.3-1.1,7.3-5.8c0-3.6-2.1-5.5-6.5-5.5h-11.7V65.8z M194.1,43.3h9.8
			c3.9,0,6.4-1.1,6.4-5c0-3-2.5-4.1-6.4-4.1h-9.8V43.3z M175.4,19.7h33.1c15.9,0,19.3,9,19.3,15.2c0,6.1-3,9.4-7.5,11.9
			c5.4,1.9,10.5,6.2,10.5,15.1c0,12.1-10.5,18.4-21.2,18.4h-34.3V19.7z"/>
		<polygon class="st0" points="230.9,19.7 230.9,35.2 247.9,35.2 247.9,80.2 266.5,80.2 266.5,35.2 283.5,35.2 283.5,19.7 		"/>
	</g>
	<g>
		<polygon class="st1" points="39.3,0 39.3,17.8 49.9,28.4 60.6,17.8 60.6,0 		"/>
		<polygon class="st1" points="39.3,82.1 39.3,99.9 60.6,99.9 60.6,82.1 49.9,71.5 		"/>
		<polygon class="st1" points="34.7,34.7 34.7,19.7 22.1,7.1 7.1,22.1 19.7,34.7 		"/>
		<polygon class="st1" points="92.8,77.8 80.2,65.2 65.2,65.2 65.2,80.2 77.8,92.8 		"/>
		<polygon class="st1" points="0,39.3 0,60.5 17.8,60.5 28.4,49.9 17.8,39.3 		"/>
		<polygon class="st1" points="82.1,39.3 71.5,49.9 82.1,60.5 99.9,60.5 99.9,39.3 		"/>
		<polygon class="st1" points="19.7,65.2 7.1,77.8 22.1,92.8 34.7,80.2 34.7,65.2 		"/>
		<polygon class="st1" points="77.8,7.1 65.2,19.7 65.2,34.7 80.2,34.7 92.8,22.1 		"/>
	</g>
</g>
</svg>
