<svg xmlns="http://www.w3.org/2000/svg" width="39" height="39" viewBox="0 0 39 39">
    <g fill="none" fill-rule="evenodd">
        <path stroke="#AE232C" stroke-linecap="round" stroke-linejoin="round" d="M8.425 30.76L30.76 8.425M8.425 8.425L30.76 30.76M1.43 19.593h36.325M19.593 1.43v36.325"/>
        <path fill="#FFF" d="M19.593 7.977c6.414 0 11.615 5.2 11.615 11.616 0 6.414-5.2 11.615-11.615 11.615s-11.616-5.2-11.616-11.615 5.2-11.616 11.616-11.616"/>
        <path fill="#FFF" d="M19.593 11.176a8.418 8.418 0 1 1-.001 16.835 8.418 8.418 0 0 1 0-16.835"/>
        <path stroke="#AE232C" stroke-linecap="round" stroke-linejoin="round" d="M19.593 11.176a8.418 8.418 0 1 1-.001 16.835 8.418 8.418 0 0 1 0-16.835z"/>
    </g>
</svg>
