<svg xmlns="http://www.w3.org/2000/svg" width="31" height="33" viewBox="0 0 31 33">
    <g fill="none" fill-rule="evenodd" stroke="#AE232C">
        <path d="M22.926 26.08a.425.425 0 0 0-.447-.178c-5.675.894-11.081-2.815-12.243-8.445-.581-2.681-.09-5.407 1.296-7.775a.484.484 0 0 0 0-.492.425.425 0 0 0-.447-.178l-.581.089c-6.3 1.296-10.367 7.507-9.071 13.807 1.206 5.541 6.077 9.34 11.484 9.34.804 0 1.608-.09 2.413-.269a11.863 11.863 0 0 0 7.64-5.407c.045-.134.045-.357-.044-.491M22.001 10c.418 1.078.81 1.977 1.11 2.906.172.536.476.808 1.01.95.58.155 1.14.383 1.879.638-.793.279-1.417.525-2.059.714-.398.117-.625.315-.763.71-.344.985-.739 1.953-1.172 3.082-.42-1.086-.82-2.027-1.144-2.991-.156-.464-.407-.702-.88-.83-.62-.166-1.218-.414-1.982-.682.718-.247 1.293-.482 1.889-.639.54-.142.834-.426 1.006-.956.303-.928.692-1.83 1.106-2.902M16.997 9c-.391-1.019-.772-1.927-1.084-2.858-.179-.536-.453-.861-1.036-1-.601-.141-1.175-.397-1.877-.644.805-.273 1.5-.474 2.162-.752.25-.105.511-.35.614-.594.424-1 .79-2.025 1.218-3.152.426 1.105.828 2.087 1.178 3.086.138.394.362.598.756.715.658.196 1.303.436 2.072.699-.748.258-1.387.5-2.04.695-.415.124-.657.333-.801.756-.338.99-.742 1.958-1.162 3.049M25.112 7.496c1.717-.314 2.326-1.393 2.655-2.726.048-.194.154-.375.291-.699.289.725.58 1.31.75 1.926.172.624.532.967 1.157 1.117.303.073.588.22.98.37-.175.086-.24.139-.312.15-1.249.204-1.867.988-2.124 2.14-.077.345-.254.669-.45 1.171-.29-.73-.585-1.307-.746-1.917-.172-.654-.55-1.008-1.2-1.161-.286-.068-.557-.203-1-.37"/>
    </g>
</svg>
