<svg xmlns="http://www.w3.org/2000/svg" width="39" height="21" viewBox="0 0 39 21">
    <g fill="none" fill-rule="evenodd">
        <path fill="#FFF" d="M12.926 16.93c0-1.899-1.514-3.437-3.383-3.437-1.867 0-3.382 1.538-3.382 3.437 0 1.898 1.515 3.437 3.382 3.437h27.06"/>
        <path stroke="#AE232C" d="M12.926 16.93c0-1.899-1.514-3.437-3.383-3.437-1.867 0-3.382 1.538-3.382 3.437 0 1.898 1.515 3.437 3.382 3.437h27.06"/>
        <path fill="#FFF" d="M3.075 17.397h22.983s3.377-.1 3.377-4.078-3.94-5.172-3.94-5.172-.413-6.948-8.48-6.948c-5.527 0-6.711 5.751-6.711 5.751s-2.317-1.371-4.567.79c-2.174 2.087-1.255 3.888-1.255 3.888S1.2 11.57 1.2 14.513c0 1.952 1.408 2.884 1.876 2.884"/>
        <path stroke="#AE232C" stroke-linecap="round" stroke-linejoin="round" d="M3.075 17.397h22.983s3.377-.1 3.377-4.078-3.94-5.172-3.94-5.172-.413-6.948-8.48-6.948c-5.527 0-6.711 5.751-6.711 5.751s-2.317-1.371-4.567.79c-2.174 2.087-1.255 3.888-1.255 3.888S1.2 11.57 1.2 14.513c0 1.952 1.408 2.884 1.876 2.884z"/>
        <path fill="#FFF" d="M35.109 14.572H19.905s-2.292-.068-2.292-2.77c0-2.7 2.674-3.511 2.674-3.511s.72-3.96 4.986-3.96c4.466 0 5.296 2.808 5.296 2.808s1.988-1.061 3.848.574c1.861 1.636 1.259 2.941 1.259 2.941s2.229.217 2.229 1.959c0 1.554-1.467 1.959-2.796 1.959"/>
        <path stroke="#AE232C" stroke-linecap="round" stroke-linejoin="round" d="M35.109 14.572H19.905s-2.292-.068-2.292-2.77c0-2.7 2.674-3.511 2.674-3.511s.72-3.96 4.986-3.96c4.466 0 5.296 2.808 5.296 2.808s1.988-1.061 3.848.574c1.861 1.636 1.259 2.941 1.259 2.941s2.229.217 2.229 1.959c0 1.554-1.467 1.959-2.796 1.959z"/>
    </g>
</svg>
