<svg xmlns="http://www.w3.org/2000/svg" width="38" height="26" viewBox="0 0 38 26">
    <g fill="none" fill-rule="evenodd">
        <path stroke="#AE232C" d="M5.868 19.5h24.233M9.763 22.421h22.03M7.816 25.342h19.827"/>
        <path fill="#FFF" d="M2.827 16.772h22.378s3.288-.097 3.288-3.97c0-3.874-3.836-5.036-3.836-5.036S24.254 1 16.399 1c-5.38 0-6.533 5.6-6.533 5.6S7.61 5.265 5.418 7.37C3.302 9.4 4.197 11.155 4.197 11.155S1 11.1 1 13.964c0 1.9 1.37 2.808 1.827 2.808"/>
        <path stroke="#AE232C" stroke-linecap="round" stroke-linejoin="round" d="M2.827 16.772h22.378s3.288-.097 3.288-3.97c0-3.874-3.836-5.036-3.836-5.036S24.254 1 16.399 1c-5.38 0-6.533 5.6-6.533 5.6S7.61 5.265 5.418 7.37C3.302 9.4 4.197 11.155 4.197 11.155S1 11.1 1 13.964c0 1.9 1.37 2.808 1.827 2.808z"/>
        <path fill="#FFF" d="M34.588 13.893H19.785s-2.232-.066-2.232-2.696c0-2.63 2.604-3.42 2.604-3.42s.701-3.856 4.854-3.856c4.349 0 5.157 2.735 5.157 2.735s1.935-1.033 3.747.56c1.812 1.591 1.225 2.863 1.225 2.863s2.17.211 2.17 1.907c0 1.513-1.428 1.907-2.722 1.907"/>
        <path stroke="#AE232C" stroke-linecap="round" stroke-linejoin="round" d="M34.588 13.893H19.785s-2.232-.066-2.232-2.696c0-2.63 2.604-3.42 2.604-3.42s.701-3.856 4.854-3.856c4.349 0 5.157 2.735 5.157 2.735s1.935-1.033 3.747.56c1.812 1.591 1.225 2.863 1.225 2.863s2.17.211 2.17 1.907c0 1.513-1.428 1.907-2.722 1.907z"/>
    </g>
</svg>
