<svg xmlns="http://www.w3.org/2000/svg" width="38" height="28" viewBox="0 0 38 28">
    <defs>
        <path id="a" d="M36.282 18.688v7.238H4.826v-7.238z"/>
    </defs>
    <g fill="none" fill-rule="evenodd">
        <path d="M12.816 23.307c0-2-1.564-3.62-3.495-3.62-1.929 0-3.495 1.62-3.495 3.62 0 1.998 1.566 3.619 3.495 3.619h27.961"/>
        <path stroke="#AE232C" d="M12.816 23.307c0-2-1.564-3.62-3.495-3.62-1.929 0-3.495 1.62-3.495 3.62 0 1.998 1.566 3.619 3.495 3.619h27.961"/>
        <path fill="#FFF" d="M2.939 23.745h23.748s3.49-.105 3.49-4.294c0-4.19-4.07-5.447-4.07-5.447s-.428-7.316-8.765-7.316c-5.71 0-6.933 6.056-6.933 6.056s-2.394-1.444-4.72.831c-2.246 2.199-1.296 4.095-1.296 4.095S1 17.61 1 20.708c0 2.055 1.455 3.037 1.939 3.037"/>
        <path stroke="#AE232C" stroke-linecap="round" stroke-linejoin="round" d="M2.939 23.745h23.748s3.49-.105 3.49-4.294c0-4.19-4.07-5.447-4.07-5.447s-.428-7.316-8.765-7.316c-5.71 0-6.933 6.056-6.933 6.056s-2.394-1.444-4.72.831c-2.246 2.199-1.296 4.095-1.296 4.095S1 17.61 1 20.708c0 2.055 1.455 3.037 1.939 3.037zM21.109 15.125L31.779 4.25M21.109 4.25l10.67 10.875M17.891 9h17.355M26 1v17.686"/>
        <path fill="#FFF" d="M26.658 4.25c3.065 0 5.55 2.532 5.55 5.655 0 3.124-2.485 5.656-5.55 5.656s-5.55-2.532-5.55-5.656c0-3.123 2.485-5.655 5.55-5.655"/>
        <path fill="#FFF" d="M26.739 5.875c2.22 0 4.021 1.835 4.021 4.098s-1.8 4.098-4.021 4.098c-2.22 0-4.022-1.835-4.022-4.098s1.801-4.098 4.022-4.098"/>
        <path stroke="#AE232C" stroke-linecap="round" stroke-linejoin="round" d="M26.739 5.875c2.22 0 4.021 1.835 4.021 4.098s-1.8 4.098-4.021 4.098c-2.22 0-4.022-1.835-4.022-4.098s1.801-4.098 4.022-4.098z"/>
    </g>
</svg>
