<svg xmlns="http://www.w3.org/2000/svg" width="33" height="28" viewBox="0 0 33 28">
    <g fill="none" fill-rule="evenodd">
        <path stroke="#AE232C" d="M31.926 18.08a.425.425 0 0 0-.447-.178c-5.675.894-11.081-2.815-12.243-8.445-.581-2.681-.09-5.407 1.296-7.775a.484.484 0 0 0 0-.492.425.425 0 0 0-.447-.178l-.581.089c-6.3 1.296-10.367 7.507-9.071 13.807 1.206 5.541 6.077 9.34 11.484 9.34.804 0 1.608-.09 2.413-.269a11.863 11.863 0 0 0 7.64-5.407c.045-.134.045-.357-.044-.491"/>
        <path fill="#FFF" d="M3.831 27.212H19.62S22 27.142 22 24.337c0-2.806-2.777-3.647-2.777-3.647s-.748-4.113-5.178-4.113c-4.637 0-5.5 2.916-5.5 2.916s-2.064-1.101-3.996.597-1.307 3.054-1.307 3.054-2.314.226-2.314 2.034c0 1.614 1.523 2.034 2.903 2.034"/>
        <path stroke="#AE232C" stroke-linecap="round" stroke-linejoin="round" d="M3.831 27.212H19.62S22 27.142 22 24.337c0-2.806-2.777-3.647-2.777-3.647s-.748-4.113-5.178-4.113c-4.637 0-5.5 2.916-5.5 2.916s-2.064-1.101-3.996.597-1.307 3.054-1.307 3.054-2.314.226-2.314 2.034c0 1.614 1.523 2.034 2.903 2.034z"/>
    </g>
</svg>
