<svg xmlns="http://www.w3.org/2000/svg" width="30" height="28" viewBox="0 0 30 28">
    <g fill="none" fill-rule="evenodd">
        <path fill="#FFF" d="M2.876 17.198H25.86s3.377-.099 3.377-4.078c0-3.978-3.94-5.172-3.94-5.172S24.883 1 16.816 1c-5.526 0-6.71 5.752-6.71 5.752S7.788 5.38 5.537 7.54C3.364 9.629 4.283 11.43 4.283 11.43S1 11.372 1 14.314c0 1.952 1.408 2.884 1.876 2.884"/>
        <path stroke="#AE232C" stroke-linecap="round" stroke-linejoin="round" d="M2.876 17.198H25.86s3.377-.099 3.377-4.078c0-3.978-3.94-5.172-3.94-5.172S24.883 1 16.816 1c-5.526 0-6.71 5.752-6.71 5.752S7.788 5.38 5.537 7.54C3.364 9.629 4.283 11.43 4.283 11.43S1 11.372 1 14.314c0 1.952 1.408 2.884 1.876 2.884zM10.792 23.024l1.357-2.372M8.216 27.527l1.357-2.372M17.982 23.024l1.357-2.372M15.405 27.527l1.357-2.372M13.189 23.024l1.357-2.372M10.612 27.527l1.357-2.372M20.378 23.024l1.357-2.372M17.802 27.527l1.357-2.372M15.585 23.024l1.357-2.372M13.009 27.527l1.357-2.372"/>
    </g>
</svg>
