<svg xmlns="http://www.w3.org/2000/svg" width="30" height="36" viewBox="0 0 30 36">
    <g fill="none" fill-rule="evenodd">
        <path stroke="#AE232C" stroke-linecap="round" stroke-linejoin="round" d="M2.876 17.198H25.86s3.377-.099 3.377-4.078c0-3.978-3.94-5.172-3.94-5.172S24.883 1 16.816 1c-5.526 0-6.71 5.752-6.71 5.752S7.788 5.38 5.537 7.54C3.364 9.629 4.283 11.43 4.283 11.43S1 11.372 1 14.314c0 1.952 1.408 2.884 1.876 2.884z"/>
        <path fill="#FFF" d="M6 22.187h6L10 36l14-20.189h-6L20 2z"/>
        <path stroke="#AE232C" d="M18 11l-7 9.5h3L13 27l7-9.5h-3z"/>
    </g>
</svg>
