<svg xmlns="http://www.w3.org/2000/svg" width="38" height="25" viewBox="0 0 38 25">
    <g fill="none" fill-rule="evenodd">
        <path d="M25.679 17.839c0 2.292 1.829 4.151 4.085 4.151 2.256 0 4.085-1.859 4.085-4.151 0-2.294-1.829-4.151-4.085-4.151H0"/>
        <path stroke="#AE232C" d="M25.679 17.839c0 2.292 1.829 4.151 4.085 4.151 2.256 0 4.085-1.859 4.085-4.151 0-2.294-1.829-4.151-4.085-4.151H0"/>
        <path d="M28.597 5.385c0-2.293 1.828-4.15 4.085-4.15 2.256 0 4.086 1.857 4.086 4.15 0 2.292-1.83 4.151-4.086 4.151H0"/>
        <path stroke="#AE232C" d="M28.597 5.385c0-2.293 1.828-4.15 4.085-4.15 2.256 0 4.086 1.857 4.086 4.15 0 2.292-1.83 4.151-4.086 4.151H0"/>
        <path d="M15.757 20.804c0 1.638 1.307 2.965 2.919 2.965 1.61 0 2.918-1.327 2.918-2.965s-1.307-2.965-2.918-2.965H0"/>
        <path stroke="#AE232C" d="M15.757 20.804c0 1.638 1.307 2.965 2.919 2.965 1.61 0 2.918-1.327 2.918-2.965s-1.307-2.965-2.918-2.965H0"/>
    </g>
</svg>
