<svg xmlns="http://www.w3.org/2000/svg" viewBox="0 0 970 90"><defs><style>.cls-1,.cls-3{fill:#002d56;}.cls-2,.cls-4{fill:#fff;}.cls-3,.cls-4{font-size:30px;font-family:FuturaStd-Bold, Futura Std;font-weight:700;}</style></defs><title>CTA_Banners</title><g id="Any_questions" data-name="Any questions"><rect class="cls-1" width="970" height="90"/><rect class="cls-2" x="680" y="3.5" width="287" height="83"/><text class="cls-3" transform="translate(740.56 57)">Click here!</text><text class="cls-4" transform="translate(51.31 57)">Any comments/questions/feedback?</text><path class="cls-1" d="M949,67.35,942.66,61l4.54-2.62a1.07,1.07,0,0,0,.53-1,1.06,1.06,0,0,0-.67-.91L926.8,48.35a1.07,1.07,0,0,0-1.39,1.39L933.49,70a1.07,1.07,0,0,0,1.92.14L938,65.6,944.4,72a1.1,1.1,0,0,0,.76.31,1.07,1.07,0,0,0,.76-.31L949,68.86a1.08,1.08,0,0,0,0-1.51Zm-3.87,2.35-6.6-6.6a1.06,1.06,0,0,0-.75-.31h-.14a1.09,1.09,0,0,0-.79.52l-2.22,3.85-6.34-15.91,15.9,6.35-3.84,2.21a1.1,1.1,0,0,0-.53.79,1.08,1.08,0,0,0,.31.9l6.6,6.6Zm0,0"/><path class="cls-1" d="M922,43.47A1.07,1.07,0,1,0,920.52,45l2.38,2.38a1.06,1.06,0,0,0,.76.31,1.07,1.07,0,0,0,.76-.31,1.09,1.09,0,0,0,0-1.52Zm0,0"/><path class="cls-1" d="M922.84,50.86a1.06,1.06,0,0,0-1.07-1.06h-3.36a1.07,1.07,0,1,0,0,2.14h3.36a1.08,1.08,0,0,0,1.07-1.08Zm0,0"/><path class="cls-1" d="M922.41,54.17,920,56.55a1.07,1.07,0,0,0,.76,1.82,1,1,0,0,0,.75-.31l2.38-2.38a1.07,1.07,0,1,0-1.51-1.51Zm0,0"/><path class="cls-1" d="M927.92,45.79A1.07,1.07,0,0,0,929,44.72V41.35a1.07,1.07,0,1,0-2.14,0v3.37a1.07,1.07,0,0,0,1.07,1.07Zm0,0"/><path class="cls-1" d="M932,47.18a1.1,1.1,0,0,0,.76-.31l2.38-2.38A1.07,1.07,0,0,0,933.6,43l-2.38,2.38a1.09,1.09,0,0,0,0,1.52,1.12,1.12,0,0,0,.76.31Zm0,0"/></g></svg>