<?xml version="1.0" encoding="utf-8"?>
<!-- Generator: Adobe Illustrator 25.2.3, SVG Export Plug-In . SVG Version: 6.00 Build 0)  -->
<svg version="1.1" id="Layer_1" xmlns="http://www.w3.org/2000/svg" xmlns:xlink="http://www.w3.org/1999/xlink" x="0px" y="0px"
	 viewBox="0 0 970 90" style="enable-background:new 0 0 970 90;" xml:space="preserve">
<style type="text/css">
	.st0{fill:#002D56;}
	.st1{fill:#FFFFFF;}
	.st2{enable-background:new    ;}
</style>
<g id="Contributing">
	<g>
		<rect y="0" class="st0" width="970" height="90"/>
	</g>
	<g>
		<rect x="680" y="3.5" class="st1" width="287" height="83"/>
	</g>
	<g class="st2">
		<path class="st0" d="M746.9,41.8c-1.2-1.6-3.2-2.5-5.2-2.5c-3.6,0-6,2.8-6,6.3c0,3.6,2.5,6.2,6.1,6.2c1.9,0,3.8-0.9,5.1-2.4v7
			c-2,0.6-3.4,1-5.2,1c-3.1,0-6.1-1.2-8.5-3.3c-2.5-2.2-3.6-5.2-3.6-8.5c0-3.1,1.2-6.1,3.3-8.3c2.2-2.3,5.4-3.7,8.6-3.7
			c1.9,0,3.6,0.4,5.4,1.1V41.8z"/>
		<path class="st0" d="M755.9,56.8h-5.5V31.9h5.5V56.8z"/>
		<path class="st0" d="M765.3,35.5c0,1.7-1.4,3.1-3.1,3.1s-3.1-1.4-3.1-3.1c0-1.7,1.4-3.1,3.1-3.1S765.3,33.8,765.3,35.5z
			 M764.9,56.8h-5.5V41.4h5.5V56.8z"/>
		<path class="st0" d="M779.6,46.4c-0.8-0.6-1.8-1.1-2.8-1.1c-2.1,0-3.8,1.6-3.8,3.8c0,2.2,1.6,3.8,3.8,3.8c1,0,2-0.4,2.7-1v4.6
			c-1.2,0.6-2.5,0.9-3.8,0.9c-4.6,0-8.4-3.4-8.4-8c0-5,3.8-8.4,8.6-8.4c1.3,0,2.5,0.3,3.6,0.9V46.4z"/>
		<path class="st0" d="M788.5,47l5.7-5.5h7.5l-7.7,7.1l8.2,8.3h-7.6l-6-6.3v6.3H783V31.9h5.5V47z"/>
		<path class="st0" d="M819.4,31.9v11.5h0.1c1.3-1.7,2.8-2.5,4.9-2.5c3.9,0,5.8,2.6,5.8,6.5v9.4h-5.5v-7.9c0-1.8-0.3-3.7-2.5-3.7
			c-2.2,0-2.8,1.9-2.8,3.7v7.9h-5.5V31.9H819.4z"/>
		<path class="st0" d="M849.6,50h-11.5c0,2.2,1.2,3.4,3.4,3.4c1.2,0,2-0.4,2.6-1.4h5.2c-0.4,1.8-1.5,3.1-2.9,4s-3.2,1.3-4.9,1.3
			c-5.1,0-8.9-2.9-8.9-8.2c0-5.1,3.5-8.2,8.5-8.2c5.3,0,8.4,3.3,8.4,8.5V50z M844.5,46.9c-0.3-1.5-1.6-2.4-3.1-2.4
			c-1.6,0-2.9,0.8-3.2,2.4H844.5z"/>
		<path class="st0" d="M857.5,43.9L857.5,43.9c1.1-1.9,2.9-2.7,5-2.7h1.1v5.2c-0.8-0.4-1.5-0.5-2.3-0.5c-3,0-3.8,2-3.8,4.6v6.2h-5.5
			V41.4h5.5V43.9z"/>
		<path class="st0" d="M881.5,50H870c0,2.2,1.2,3.4,3.4,3.4c1.2,0,2-0.4,2.6-1.4h5.2c-0.4,1.8-1.5,3.1-2.9,4
			c-1.4,0.9-3.1,1.3-4.9,1.3c-5.1,0-8.9-2.9-8.9-8.2c0-5.1,3.5-8.2,8.5-8.2c5.3,0,8.4,3.3,8.4,8.5V50z M876.4,46.9
			c-0.3-1.5-1.6-2.4-3.1-2.4c-1.6,0-2.9,0.8-3.2,2.4H876.4z"/>
		<path class="st0" d="M891.4,53.9c0,1.9-1.6,3.5-3.5,3.5c-1.9,0-3.5-1.6-3.5-3.5c0-1.9,1.6-3.5,3.5-3.5
			C889.9,50.4,891.4,52,891.4,53.9z M885.1,34.2h5.7v14.9h-5.7V34.2z"/>
	</g>
	<g class="st2">
		<path class="st1" d="M125,36.7c-1.3-1.1-3-1.8-4.7-1.8c-1.3,0-3,0.8-3,2.3c0,1.6,1.9,2.2,3.2,2.6l1.8,0.5c3.8,1.1,6.7,3,6.7,7.5
			c0,2.7-0.7,5.5-2.8,7.4c-2.1,1.8-5,2.6-7.8,2.6c-3.4,0-6.8-1.2-9.6-3.1l3-5.7c1.8,1.6,3.9,2.8,6.3,2.8c1.7,0,3.4-0.8,3.4-2.8
			c0-2-2.8-2.7-4.3-3.1c-4.5-1.3-7.4-2.4-7.4-7.7c0-5.5,4-9.2,9.4-9.2c2.8,0,6.1,0.9,8.6,2.2L125,36.7z"/>
		<path class="st1" d="M138.7,38.4v9.9c0,2.4,0.6,4,3.3,4c2.7,0,3.3-1.7,3.3-4v-9.9h6.6v11.2c0,6.1-4.3,8-9.9,8
			c-5.6,0-9.9-1.9-9.9-8V38.4H138.7z"/>
		<path class="st1" d="M176.5,55.2c0,7.9-3.9,11.1-10.8,11.1c-4.3,0-10-2.2-10.6-7.1h7.4c0.2,0.7,0.7,1.1,1.2,1.4s1.3,0.4,1.9,0.4
			c3.6,0,4.2-2.3,4.2-5.3v-0.9c-1.7,1.7-3.4,2.5-5.9,2.5c-5.4,0-9.2-4.1-9.2-9.5c0-5.4,3.8-10.1,9.5-10.1c2.2,0,4.2,0.7,5.5,2.6h0.1
			v-2h6.6V55.2z M161.6,47.6c0,2.4,1.6,4.2,4.2,4.2c2.7,0,4.2-1.8,4.2-4.2c0-2.3-1.6-4.2-4.2-4.2C163.2,43.4,161.6,45.3,161.6,47.6z
			"/>
		<path class="st1" d="M201,55.2c0,7.9-3.9,11.1-10.8,11.1c-4.3,0-10-2.2-10.6-7.1h7.4c0.2,0.7,0.7,1.1,1.2,1.4s1.3,0.4,1.9,0.4
			c3.6,0,4.2-2.3,4.2-5.3v-0.9c-1.7,1.7-3.4,2.5-5.9,2.5c-5.4,0-9.2-4.1-9.2-9.5c0-5.4,3.8-10.1,9.5-10.1c2.2,0,4.2,0.7,5.5,2.6h0.1
			v-2h6.6V55.2z M186.1,47.6c0,2.4,1.6,4.2,4.2,4.2c2.7,0,4.2-1.8,4.2-4.2c0-2.3-1.6-4.2-4.2-4.2C187.7,43.4,186.1,45.3,186.1,47.6z
			"/>
		<path class="st1" d="M224.2,48.8h-13.9c0,2.7,1.4,4.1,4.1,4.1c1.4,0,2.4-0.5,3.2-1.7h6.3c-0.5,2.2-1.8,3.8-3.5,4.8
			c-1.7,1.1-3.8,1.6-5.9,1.6c-6.2,0-10.8-3.5-10.8-9.9c0-6.2,4.2-9.9,10.3-9.9c6.5,0,10.2,4,10.2,10.3V48.8z M218.1,45
			c-0.3-1.8-2-2.9-3.7-2.9c-1.9,0-3.5,1-3.9,2.9H218.1z"/>
		<path class="st1" d="M239.5,43.2c-1-0.5-2.4-0.9-3.6-0.9c-0.8,0-2.1,0.3-2.1,1.3c0,1.3,2.1,1.5,3,1.6c3.1,0.6,5.4,2.1,5.4,5.5
			c0,4.9-4.5,6.9-8.8,6.9c-2.6,0-5.3-0.8-7.5-2.1l2.4-4.6c1.3,0.9,3.6,1.9,5.2,1.9c0.8,0,2.1-0.4,2.1-1.4c0-1.4-2.1-1.5-4.1-2.1
			c-2.1-0.5-4.1-1.6-4.1-4.9c0-4.6,4.1-6.6,8.2-6.6c2.1,0,4.2,0.3,6.1,1.2L239.5,43.2z"/>
		<path class="st1" d="M253.1,57h-6.6V43.8h-2.1v-5.4h2.1v-5.6h6.6v5.6h3.7v5.4h-3.7V57z"/>
		<path class="st1" d="M291.7,57h-6.6v-2.1H285c-1.2,1.8-3.4,2.7-5.6,2.7c-5.5,0-9.4-4.6-9.4-9.9c0-5.3,3.8-9.9,9.3-9.9
			c2.1,0,4.4,0.8,5.8,2.4v-1.8h6.6V57z M276.8,47.7c0,2.4,1.6,4.2,4.2,4.2s4.2-1.8,4.2-4.2c0-2.3-1.6-4.2-4.2-4.2
			S276.8,45.4,276.8,47.7z"/>
		<path class="st1" d="M322.5,54.9L322.5,54.9c-1.2,1.8-3.5,2.7-5.7,2.7c-5.5,0-9.4-4.6-9.4-9.9c0-5.3,3.8-9.9,9.3-9.9
			c2.1,0,4.4,0.8,5.8,2.4V26.9h6.6V57h-6.6V54.9z M314.2,47.7c0,2.4,1.6,4.2,4.2,4.2c2.7,0,4.2-1.8,4.2-4.2c0-2.3-1.6-4.2-4.2-4.2
			C315.8,43.5,314.2,45.4,314.2,47.7z"/>
		<path class="st1" d="M354.2,47.7c0,6.3-5.2,9.9-11.2,9.9c-5.9,0-11.2-3.6-11.2-9.9s5.2-9.9,11.2-9.9S354.2,41.4,354.2,47.7z
			 M338.8,47.7c0,2.4,1.6,4.2,4.2,4.2c2.7,0,4.2-1.8,4.2-4.2c0-2.3-1.6-4.2-4.2-4.2C340.3,43.5,338.8,45.4,338.8,47.7z"/>
		<path class="st1" d="M370.6,44.5c-1-0.7-2.1-1.3-3.4-1.3c-2.5,0-4.5,2-4.5,4.5c0,2.7,1.9,4.6,4.6,4.6c1.2,0,2.4-0.5,3.3-1.3v5.6
			c-1.5,0.7-3,1.1-4.6,1.1c-5.5,0-10.1-4.1-10.1-9.7c0-6,4.6-10.1,10.4-10.1c1.5,0,3,0.4,4.4,1.1V44.5z"/>
		<path class="st1" d="M381.2,38.4v9.9c0,2.4,0.6,4,3.3,4c2.7,0,3.3-1.7,3.3-4v-9.9h6.6v11.2c0,6.1-4.3,8-9.9,8
			c-5.6,0-9.9-1.9-9.9-8V38.4H381.2z"/>
		<path class="st1" d="M405.2,40.7L405.2,40.7c1.6-2.1,3.6-2.9,5.9-2.9c2.7,0,5,1.1,6.3,3.6c1.3-2.3,3.8-3.6,6.3-3.6
			c4.7,0,6.3,3.1,6.3,7.4V57h-6.6v-8.9c0-1.9,0.1-5.1-2.7-5.1c-3,0-3.2,2.9-3.2,5.1V57h-6.6v-8.9c0-2.1,0-5.2-2.9-5.2
			c-2.9,0-2.9,3.2-2.9,5.2V57h-6.6V38.4h6.6V40.7z"/>
		<path class="st1" d="M453.6,48.8h-13.9c0,2.7,1.4,4.1,4.1,4.1c1.4,0,2.4-0.5,3.2-1.7h6.3c-0.5,2.2-1.8,3.8-3.5,4.8
			c-1.7,1.1-3.8,1.6-5.9,1.6c-6.2,0-10.8-3.5-10.8-9.9c0-6.2,4.2-9.9,10.3-9.9c6.5,0,10.2,4,10.2,10.3V48.8z M447.4,45
			c-0.3-1.8-2-2.9-3.7-2.9c-1.9,0-3.5,1-3.9,2.9H447.4z"/>
		<path class="st1" d="M463.2,40.8L463.2,40.8c1.6-2.2,3.4-3,6-3c5,0,7,3.2,7,7.7V57h-6.6v-9.1c0-1.8,0.3-4.9-3-4.9
			c-2.7,0-3.4,2-3.4,4.3V57h-6.6V38.4h6.6V40.8z"/>
		<path class="st1" d="M487.7,57h-6.6V43.8H479v-5.4h2.1v-5.6h6.6v5.6h3.7v5.4h-3.7V57z"/>
		<path class="st1" d="M513.9,57h-6.6v-2.1h-0.1c-1.2,1.8-3.4,2.7-5.6,2.7c-5.5,0-9.4-4.6-9.4-9.9c0-5.3,3.8-9.9,9.3-9.9
			c2.1,0,4.4,0.8,5.8,2.4v-1.8h6.6V57z M499,47.7c0,2.4,1.6,4.2,4.2,4.2s4.2-1.8,4.2-4.2c0-2.3-1.6-4.2-4.2-4.2S499,45.4,499,47.7z"
			/>
		<path class="st1" d="M524.9,41.4L524.9,41.4c1.3-2.3,3.5-3.3,6.1-3.3h1.3v6.3c-0.9-0.5-1.8-0.6-2.8-0.6c-3.7,0-4.6,2.4-4.6,5.6V57
			h-6.6V38.4h6.6V41.4z"/>
		<path class="st1" d="M532.6,38.4h7.6l5,9.5l4.9-9.5h7.5l-14.9,27.9h-7.4l6.3-11.8L532.6,38.4z"/>
		<path class="st1" d="M564,53.5c0,2.3-1.9,4.2-4.2,4.2c-2.4,0-4.2-1.9-4.2-4.2c0-2.4,1.9-4.2,4.2-4.2C562.2,49.2,564,51.1,564,53.5
			z"/>
	</g>
	<g>
		<path class="st0" d="M937.3,67.1l-6.3-6.3l4.5-2.6c0.4-0.2,0.6-0.6,0.5-1c0-0.4-0.3-0.8-0.7-0.9L915,48.2c-0.5-0.2-1.2,0-1.4,0.6
			c-0.1,0.3-0.1,0.5,0,0.8l8.1,20.3c0.2,0.5,0.8,0.8,1.4,0.6c0.2-0.1,0.4-0.3,0.5-0.5l2.6-4.5l6.4,6.4c0.2,0.2,0.5,0.3,0.8,0.3
			s0.6-0.1,0.8-0.3l3.1-3.1C937.7,68.2,937.7,67.6,937.3,67.1z M933.4,69.5l-6.6-6.6c-0.2-0.2-0.5-0.3-0.8-0.3h-0.1
			c-0.3,0-0.6,0.2-0.8,0.5l-2.2,3.8L916.6,51l15.9,6.3l-3.8,2.2c-0.3,0.2-0.5,0.5-0.5,0.8s0.1,0.7,0.3,0.9l6.6,6.6L933.4,69.5z"/>
	</g>
	<g>
		<path class="st0" d="M910.3,43.3c-0.4-0.5-1.1-0.5-1.5-0.1s-0.5,1.1-0.1,1.5c0,0.1,0.1,0.1,0.2,0.2l2.4,2.4
			c0.2,0.2,0.5,0.3,0.8,0.3s0.6-0.1,0.8-0.3c0.4-0.4,0.4-1.1,0-1.5L910.3,43.3z"/>
	</g>
	<g>
		<path class="st0" d="M911.1,50.7c0-0.6-0.5-1.1-1.1-1.1l0,0h-3.4c-0.6,0-1.1,0.5-1.1,1.1s0.5,1.1,1.1,1.1l0,0h3.4
			C910.7,51.7,911.1,51.3,911.1,50.7z"/>
	</g>
	<g>
		<path class="st0" d="M910.7,54l-2.4,2.4c-0.4,0.4-0.4,1.1,0,1.5c0.2,0.2,0.5,0.3,0.7,0.3c0.3,0,0.6-0.1,0.8-0.3l2.4-2.4
			c0.4-0.4,0.5-1.1,0.1-1.5C911.9,53.5,911.2,53.5,910.7,54C910.7,53.9,910.7,53.9,910.7,54L910.7,54z"/>
	</g>
	<g>
		<path class="st0" d="M916.2,45.6c0.6,0,1.1-0.5,1.1-1.1l0,0v-3.4c0-0.6-0.5-1.1-1.1-1.1s-1.1,0.5-1.1,1.1v3.4
			C915.2,45.1,915.6,45.6,916.2,45.6L916.2,45.6L916.2,45.6z"/>
	</g>
	<g>
		<path class="st0" d="M920.3,47c0.3,0,0.6-0.1,0.8-0.3l2.4-2.4c0.4-0.4,0.4-1.1,0-1.5s-1.1-0.4-1.5,0l0,0l-2.4,2.4
			c-0.4,0.4-0.4,1.1,0,1.5C919.7,46.9,920,47,920.3,47L920.3,47z"/>
	</g>
</g>
</svg>
