<?xml version="1.0" encoding="utf-8"?>
<!-- Generator: Adobe Illustrator 25.2.3, SVG Export Plug-In . SVG Version: 6.00 Build 0)  -->
<svg version="1.1" id="Layer_1" xmlns="http://www.w3.org/2000/svg" xmlns:xlink="http://www.w3.org/1999/xlink" x="0px" y="0px"
	 viewBox="0 0 320 50" style="enable-background:new 0 0 320 50;" xml:space="preserve">
<style type="text/css">
	.st0{fill:#002D56;}
	.st1{fill:#FFFFFF;}
	.st2{enable-background:new    ;}
</style>
<g>
	<rect y="0" class="st0" width="320" height="50"/>
</g>
<g>
	<rect x="197.6" y="1.3" class="st1" width="121.5" height="47.5"/>
</g>
<g class="st2">
	<path class="st0" d="M220.1,23.9c-0.5-0.7-1.3-1.1-2.2-1.1c-1.5,0-2.6,1.2-2.6,2.7c0,1.5,1,2.6,2.6,2.6c0.8,0,1.6-0.4,2.1-1v3
		c-0.8,0.3-1.4,0.4-2.2,0.4c-1.3,0-2.6-0.5-3.6-1.4c-1.1-1-1.5-2.2-1.5-3.6c0-1.3,0.5-2.6,1.4-3.5c0.9-1,2.3-1.5,3.6-1.5
		c0.8,0,1.5,0.2,2.3,0.5V23.9z"/>
	<path class="st0" d="M223.9,30.3h-2.3V19.7h2.3V30.3z"/>
	<path class="st0" d="M227.9,21.3c0,0.7-0.6,1.3-1.3,1.3s-1.3-0.6-1.3-1.3s0.6-1.3,1.3-1.3S227.9,20.5,227.9,21.3z M227.7,30.3h-2.3
		v-6.5h2.3V30.3z"/>
	<path class="st0" d="M233.9,25.9c-0.3-0.3-0.7-0.5-1.2-0.5c-0.9,0-1.6,0.7-1.6,1.6c0,0.9,0.7,1.6,1.6,1.6c0.4,0,0.9-0.2,1.2-0.4v2
		c-0.5,0.3-1.1,0.4-1.6,0.4c-1.9,0-3.5-1.4-3.5-3.4c0-2.1,1.6-3.5,3.6-3.5c0.5,0,1.1,0.1,1.5,0.4V25.9z"/>
	<path class="st0" d="M237.7,26.1l2.4-2.3h3.2l-3.3,3l3.5,3.5h-3.2l-2.5-2.7v2.7h-2.3V19.7h2.3V26.1z"/>
	<path class="st0" d="M250.8,19.7v4.8h0c0.5-0.7,1.2-1,2.1-1c1.7,0,2.5,1.1,2.5,2.7v4H253v-3.3c0-0.8-0.1-1.5-1-1.5
		c-0.9,0-1.2,0.8-1.2,1.5v3.3h-2.3V19.7H250.8z"/>
	<path class="st0" d="M263.5,27.4h-4.9c0,0.9,0.5,1.4,1.4,1.4c0.5,0,0.9-0.2,1.1-0.6h2.2c-0.2,0.8-0.6,1.3-1.2,1.7s-1.3,0.5-2.1,0.5
		c-2.2,0-3.8-1.2-3.8-3.5c0-2.2,1.5-3.5,3.6-3.5c2.3,0,3.6,1.4,3.6,3.6V27.4z M261.4,26.1c-0.1-0.6-0.7-1-1.3-1
		c-0.7,0-1.2,0.4-1.4,1H261.4z"/>
	<path class="st0" d="M266.9,24.8L266.9,24.8c0.5-0.8,1.2-1.2,2.1-1.2h0.4v2.2c-0.3-0.2-0.6-0.2-1-0.2c-1.3,0-1.6,0.9-1.6,2v2.6
		h-2.3v-6.5h2.3V24.8z"/>
	<path class="st0" d="M277,27.4h-4.9c0,0.9,0.5,1.4,1.4,1.4c0.5,0,0.9-0.2,1.1-0.6h2.2c-0.2,0.8-0.6,1.3-1.2,1.7s-1.3,0.5-2.1,0.5
		c-2.2,0-3.8-1.2-3.8-3.5c0-2.2,1.5-3.5,3.6-3.5c2.3,0,3.6,1.4,3.6,3.6V27.4z M274.9,26.1c-0.1-0.6-0.7-1-1.3-1
		c-0.7,0-1.2,0.4-1.4,1H274.9z"/>
	<path class="st0" d="M281.3,29c0,0.8-0.7,1.5-1.5,1.5s-1.5-0.7-1.5-1.5c0-0.8,0.7-1.5,1.5-1.5S281.3,28.2,281.3,29z M278.6,20.7
		h2.4V27h-2.4V20.7z"/>
</g>
<g class="st2">
	<path class="st1" d="M23.9,22.9c-0.5-0.4-1.1-0.7-1.7-0.7c-0.5,0-1.1,0.3-1.1,0.8c0,0.6,0.7,0.8,1.1,0.9l0.7,0.2
		c1.4,0.4,2.4,1.1,2.4,2.7c0,1-0.2,2-1,2.7c-0.8,0.7-1.8,0.9-2.8,0.9c-1.3,0-2.5-0.4-3.5-1.1l1.1-2.1c0.6,0.6,1.4,1,2.3,1
		c0.6,0,1.3-0.3,1.3-1c0-0.7-1-1-1.6-1.1c-1.6-0.5-2.7-0.9-2.7-2.8c0-2,1.4-3.3,3.4-3.3c1,0,2.2,0.3,3.1,0.8L23.9,22.9z"/>
	<path class="st1" d="M28.9,23.5v3.6c0,0.9,0.2,1.5,1.2,1.5c1,0,1.2-0.6,1.2-1.5v-3.6h2.4v4.1c0,2.2-1.6,2.9-3.6,2.9
		s-3.6-0.7-3.6-2.9v-4.1H28.9z"/>
	<path class="st1" d="M42.6,29.6c0,2.9-1.4,4-3.9,4c-1.6,0-3.6-0.8-3.8-2.6h2.7c0.1,0.2,0.2,0.4,0.4,0.5c0.2,0.1,0.5,0.2,0.7,0.2
		c1.3,0,1.5-0.8,1.5-1.9v-0.3c-0.6,0.6-1.3,0.9-2.1,0.9c-2,0-3.3-1.5-3.3-3.5c0-2,1.4-3.7,3.5-3.7c0.8,0,1.5,0.3,2,0.9h0v-0.7h2.4
		V29.6z M37.2,26.8c0,0.9,0.6,1.5,1.5,1.5c1,0,1.5-0.7,1.5-1.5c0-0.8-0.6-1.5-1.5-1.5C37.8,25.3,37.2,26,37.2,26.8z"/>
	<path class="st1" d="M51.5,29.6c0,2.9-1.4,4-3.9,4c-1.6,0-3.6-0.8-3.8-2.6h2.7c0.1,0.2,0.2,0.4,0.4,0.5c0.2,0.1,0.5,0.2,0.7,0.2
		c1.3,0,1.5-0.8,1.5-1.9v-0.3c-0.6,0.6-1.3,0.9-2.1,0.9c-2,0-3.3-1.5-3.3-3.5c0-2,1.4-3.7,3.5-3.7c0.8,0,1.5,0.3,2,0.9h0v-0.7h2.4
		V29.6z M46.1,26.8c0,0.9,0.6,1.5,1.5,1.5c1,0,1.5-0.7,1.5-1.5c0-0.8-0.6-1.5-1.5-1.5C46.7,25.3,46.1,26,46.1,26.8z"/>
	<path class="st1" d="M59.9,27.3h-5c0,1,0.5,1.5,1.5,1.5c0.5,0,0.9-0.2,1.1-0.6h2.3c-0.2,0.8-0.7,1.4-1.3,1.8
		c-0.6,0.4-1.4,0.6-2.2,0.6c-2.2,0-3.9-1.3-3.9-3.6c0-2.3,1.5-3.6,3.7-3.6c2.3,0,3.7,1.4,3.7,3.8V27.3z M57.7,25.9
		c-0.1-0.6-0.7-1.1-1.4-1.1c-0.7,0-1.3,0.4-1.4,1.1H57.7z"/>
	<path class="st1" d="M65.5,25.2c-0.4-0.2-0.9-0.3-1.3-0.3c-0.3,0-0.8,0.1-0.8,0.5c0,0.5,0.8,0.5,1.1,0.6c1.1,0.2,2,0.8,2,2
		c0,1.8-1.6,2.5-3.2,2.5c-1,0-1.9-0.3-2.7-0.8l0.9-1.7c0.5,0.3,1.3,0.7,1.9,0.7c0.3,0,0.8-0.1,0.8-0.5c0-0.5-0.8-0.6-1.5-0.8
		c-0.8-0.2-1.5-0.6-1.5-1.8c0-1.7,1.5-2.4,3-2.4c0.8,0,1.5,0.1,2.2,0.4L65.5,25.2z"/>
	<path class="st1" d="M70.4,30.3H68v-4.8h-0.8v-2H68v-2h2.4v2h1.4v2h-1.4V30.3z"/>
	<path class="st1" d="M84.4,30.3H82v-0.8h0c-0.4,0.7-1.3,1-2,1c-2,0-3.4-1.7-3.4-3.6c0-1.9,1.4-3.6,3.4-3.6c0.8,0,1.6,0.3,2.1,0.9
		v-0.7h2.4V30.3z M79,26.9c0,0.9,0.6,1.5,1.5,1.5c1,0,1.5-0.7,1.5-1.5c0-0.8-0.6-1.5-1.5-1.5C79.6,25.4,79,26.1,79,26.9z"/>
	<path class="st1" d="M95.6,29.5L95.6,29.5c-0.4,0.7-1.3,1-2.1,1c-2,0-3.4-1.7-3.4-3.6c0-1.9,1.4-3.6,3.4-3.6c0.8,0,1.6,0.3,2.1,0.9
		v-4.8H98v10.9h-2.4V29.5z M92.6,26.9c0,0.9,0.6,1.5,1.5,1.5c1,0,1.5-0.7,1.5-1.5c0-0.8-0.6-1.5-1.5-1.5
		C93.2,25.4,92.6,26.1,92.6,26.9z"/>
	<path class="st1" d="M107.1,26.9c0,2.3-1.9,3.6-4.1,3.6c-2.2,0-4.1-1.3-4.1-3.6s1.9-3.6,4.1-3.6C105.3,23.3,107.1,24.6,107.1,26.9z
		 M101.5,26.9c0,0.9,0.6,1.5,1.5,1.5c1,0,1.5-0.7,1.5-1.5c0-0.8-0.6-1.5-1.5-1.5C102.1,25.4,101.5,26.1,101.5,26.9z"/>
	<path class="st1" d="M113.1,25.7c-0.4-0.3-0.8-0.5-1.2-0.5c-0.9,0-1.6,0.7-1.6,1.6c0,1,0.7,1.7,1.7,1.7c0.4,0,0.9-0.2,1.2-0.5v2
		c-0.5,0.3-1.1,0.4-1.7,0.4c-2,0-3.7-1.5-3.7-3.5c0-2.2,1.7-3.7,3.8-3.7c0.6,0,1.1,0.1,1.6,0.4V25.7z"/>
	<path class="st1" d="M116.9,23.5v3.6c0,0.9,0.2,1.5,1.2,1.5c1,0,1.2-0.6,1.2-1.5v-3.6h2.4v4.1c0,2.2-1.6,2.9-3.6,2.9
		s-3.6-0.7-3.6-2.9v-4.1H116.9z"/>
	<path class="st1" d="M125.7,24.4L125.7,24.4c0.6-0.8,1.3-1.1,2.2-1.1c1,0,1.8,0.4,2.3,1.3c0.5-0.8,1.4-1.3,2.3-1.3
		c1.7,0,2.3,1.1,2.3,2.7v4.3h-2.4V27c0-0.7,0-1.8-1-1.8c-1.1,0-1.1,1-1.1,1.8v3.2h-2.4V27c0-0.8,0-1.9-1.1-1.9
		c-1.1,0-1.1,1.1-1.1,1.9v3.2h-2.4v-6.8h2.4V24.4z"/>
	<path class="st1" d="M143.2,27.3h-5c0,1,0.5,1.5,1.5,1.5c0.5,0,0.9-0.2,1.1-0.6h2.3c-0.2,0.8-0.7,1.4-1.3,1.8
		c-0.6,0.4-1.4,0.6-2.2,0.6c-2.2,0-3.9-1.3-3.9-3.6c0-2.3,1.5-3.6,3.7-3.6c2.3,0,3.7,1.4,3.7,3.8V27.3z M141,25.9
		c-0.1-0.6-0.7-1.1-1.4-1.1c-0.7,0-1.3,0.4-1.4,1.1H141z"/>
	<path class="st1" d="M146.7,24.4L146.7,24.4c0.6-0.8,1.3-1.1,2.2-1.1c1.8,0,2.5,1.1,2.5,2.8v4.2H149V27c0-0.6,0.1-1.8-1.1-1.8
		c-1,0-1.3,0.7-1.3,1.6v3.5h-2.4v-6.8h2.4V24.4z"/>
	<path class="st1" d="M155.6,30.3h-2.4v-4.8h-0.8v-2h0.8v-2h2.4v2h1.4v2h-1.4V30.3z"/>
	<path class="st1" d="M165.1,30.3h-2.4v-0.8h0c-0.4,0.7-1.3,1-2,1c-2,0-3.4-1.7-3.4-3.6c0-1.9,1.4-3.6,3.4-3.6
		c0.8,0,1.6,0.3,2.1,0.9v-0.7h2.4V30.3z M159.7,26.9c0,0.9,0.6,1.5,1.5,1.5s1.5-0.7,1.5-1.5c0-0.8-0.6-1.5-1.5-1.5
		S159.7,26.1,159.7,26.9z"/>
	<path class="st1" d="M169.1,24.6L169.1,24.6c0.5-0.8,1.3-1.2,2.2-1.2h0.5v2.3c-0.3-0.2-0.6-0.2-1-0.2c-1.3,0-1.7,0.9-1.7,2v2.7
		h-2.4v-6.8h2.4V24.6z"/>
	<path class="st1" d="M171.9,23.5h2.8l1.8,3.5l1.8-3.5h2.7l-5.4,10.1h-2.7l2.3-4.3L171.9,23.5z"/>
	<path class="st1" d="M183.3,29c0,0.8-0.7,1.5-1.5,1.5c-0.9,0-1.5-0.7-1.5-1.5c0-0.9,0.7-1.5,1.5-1.5
		C182.7,27.4,183.3,28.1,183.3,29z"/>
</g>
<g>
	<path class="st0" d="M306.9,33.7l-3.9-3.9l2.8-1.6c0.2-0.1,0.3-0.4,0.3-0.6s-0.2-0.5-0.4-0.6l-12.4-5c-0.3-0.1-0.7,0-0.8,0.4
		c-0.1,0.2-0.1,0.3,0,0.5l4.9,12.4c0.1,0.3,0.5,0.5,0.8,0.4c0.1-0.1,0.2-0.2,0.3-0.3l1.6-2.8l3.9,3.9c0.1,0.1,0.3,0.2,0.5,0.2
		s0.3-0.1,0.5-0.2l1.9-1.9C307.2,34.4,307.2,34,306.9,33.7z M304.6,35.2l-4-4c-0.1-0.1-0.3-0.2-0.5-0.2H300c-0.2,0-0.4,0.1-0.5,0.3
		l-1.4,2.3l-3.9-9.7l9.7,3.9l-2.3,1.3c-0.2,0.1-0.3,0.3-0.3,0.5s0,0.4,0.2,0.5l4,4L304.6,35.2z"/>
</g>
<g>
	<path class="st0" d="M290.5,19.2c-0.2-0.3-0.6-0.3-0.9-0.1c-0.3,0.2-0.3,0.6-0.1,0.9l0.1,0.1l1.5,1.5c0.1,0.1,0.3,0.2,0.5,0.2
		s0.3-0.1,0.5-0.2c0.3-0.3,0.3-0.7,0-0.9L290.5,19.2z"/>
</g>
<g>
	<path class="st0" d="M291,23.7c0-0.4-0.3-0.6-0.6-0.6l0,0h-2c-0.4,0-0.7,0.3-0.7,0.7s0.3,0.7,0.7,0.7l0,0h2
		C290.7,24.3,291,24,291,23.7z"/>
</g>
<g>
	<path class="st0" d="M290.7,25.7l-1.5,1.5c-0.3,0.3-0.2,0.7,0,0.9c0.1,0.1,0.3,0.2,0.5,0.2s0.3-0.1,0.5-0.2l1.5-1.5
		c0.3-0.2,0.3-0.7,0.1-0.9C291.5,25.4,291,25.4,290.7,25.7C290.7,25.6,290.7,25.7,290.7,25.7L290.7,25.7z"/>
</g>
<g>
	<path class="st0" d="M294.1,20.6c0.4,0,0.7-0.3,0.7-0.6l0,0v-2.1c0-0.4-0.3-0.7-0.7-0.7s-0.7,0.3-0.7,0.7V20
		C293.4,20.3,293.7,20.6,294.1,20.6L294.1,20.6L294.1,20.6z"/>
</g>
<g>
	<path class="st0" d="M296.6,21.4c0.2,0,0.3-0.1,0.5-0.2l1.5-1.5c0.3-0.3,0.2-0.7,0-0.9c-0.3-0.3-0.7-0.2-0.9,0l0,0l-1.5,1.5
		c-0.3,0.3-0.3,0.7,0,0.9C296.2,21.4,296.4,21.4,296.6,21.4L296.6,21.4z"/>
</g>
</svg>
