<svg xmlns="http://www.w3.org/2000/svg" width="10" height="20" viewBox="0 0 10 20">
    <g fill="#002D56" fill-rule="evenodd">
        <path d="M9 18h-.585l.252-1.13c.221-.995.333-2.017.333-3.036 0-.796-.076-1.595-.224-2.376-.638-3.35-2.308-6.214-4.702-8.066-.69-.534-1.502-.963-2.407-1.29V.334a.333.333 0 0 0-.667 0V18H.333a.333.333 0 0 0-.333.333v1.334c0 .184.15.333.333.333H9c.184 0 .333-.15.333-.333v-1.334A.333.333 0 0 0 9 18zM2.667 6.667c0-.184.149-.334.333-.334h1.529c.103 0 .2.048.263.128.418.535.792 1.118 1.117 1.739l.002.005c.276.527.511 1.084.712 1.66l.007.017c.194.557.356 1.132.476 1.723.125.617.227 1.691.227 2.393 0 .687-.068 1.377-.203 2.05L6.74 18h-.68l.2-1H3.333v1h-.666V6.667zm6 12.666h-8v-.666h8v.666z"/>
        <path d="M6.477 15.917c.038-.193.07-.388.096-.583h-3.24v1h3.06l.084-.417zM6.5 12.004L3.333 12v1h3.285c-.03-.351-.07-.702-.118-.996M6.667 13.998c0-.102-.003-.215-.008-.331H3.333v1h3.308c.015-.223.026-.446.026-.669M6.08 10.333H3.334v1l3.028.004c-.081-.34-.173-.676-.28-1.004M4.365 7H3.333v1h1.7a10.565 10.565 0 0 0-.668-1M5.398 8.667H3.333v1h2.508a11.678 11.678 0 0 0-.443-1"/>
    </g>
</svg>
