<svg xmlns="http://www.w3.org/2000/svg" xmlns:xlink="http://www.w3.org/1999/xlink" width="34" height="20" viewBox="0 0 34 20">
    <defs>
        <path id="a" d="M0 0h34v20H0z"/>
    </defs>
    <g fill="none" fill-rule="evenodd">
        <mask id="b" fill="#fff">
            <use xlink:href="#a"/>
        </mask>
        <use fill="#FFF" xlink:href="#a"/>
        <path fill="#002D56" d="M21.915 2.505v7.583h-.716v1.033h-1.53V6.245L13.48 9.06V6.245L7.289 9.06V6.245L.478 9.341v9.975H0V20h26v-.684h-.479v-8.195h-1.537v-1.034h-.715V2.506h-1.354zm.88 11.337h.869v-.868h-.868v.868zm-1.693 0h.868v-.868h-.868v.868zm-5.848 0h.869v-.868h-.869v.868zm-1.693 0h.868v-.868h-.868v.868zm-1.694 0h.869v-.868h-.869v.868zm-4.867 0h.868v-.868H7v.868zm-1.693 0h.868v-.868h-.868v.868zm-1.694 0h.869v-.868h-.869v.868zm19.183 1.694h.868v-.869h-.868v.869zm-1.694 0h.868v-.869h-.868v.869zm-5.848 0h.869v-.869h-.869v.869zm-1.693 0h.868v-.869h-.868v.869zm-1.694 0h.869v-.869h-.869v.869zm-4.867 0h.868v-.869H7v.869zm-1.693 0h.868v-.869h-.868v.869zm-1.694 0h.869v-.869h-.869v.869zm19.183 1.693h.868v-.868h-.868v.868zm-1.694 0h.868v-.868h-.868v.868z" mask="url(#b)"/>
    </g>
</svg>
