<svg xmlns="http://www.w3.org/2000/svg" xmlns:xlink="http://www.w3.org/1999/xlink" width="34" height="21" viewBox="0 0 34 21">
    <defs>
        <path id="a" d="M0 0h34v20H0z"/>
    </defs>
    <g fill="none" fill-rule="evenodd">
        <g>
            <mask id="b" fill="#fff">
                <use xlink:href="#a"/>
            </mask>
            <use fill="#FFF" xlink:href="#a"/>
            <path fill="#FFF" d="M10.297 11.71c-.1.182-.233.324-.399.424a1.58 1.58 0 0 1-.574.203 4.29 4.29 0 0 1-.68.052H7.051V9.593h1.593c.235 0 .462.018.68.053.217.035.409.102.574.202.166.1.298.242.399.425.1.183.15.422.15.718s-.05.536-.15.719m1.959-1.83a2.585 2.585 0 0 0-.562-.953 2.786 2.786 0 0 0-.999-.672C10.285 8.085 9.79 8 9.206 8H5v9.326h2.05v-3.344h2.156c.583 0 1.08-.084 1.49-.254.408-.17.741-.394.998-.673s.445-.599.562-.96a3.548 3.548 0 0 0 0-2.214" mask="url(#b)"/>
        </g>
        <g fill="#002D56">
            <path d="M14.952 20.217h3.78l-1.89-1.395zM4.697 6.217L2.136 9.232 0 14.258v5.525h10.812v-5.525h.01l2.054-5.026L15.5 6.217zM13.884 19.502l2.013-1.485-2.013-1.487zM14.952 16.53l1.874 1.385L18.7 16.53zM19.1 19.502V16.53l-2.012 1.487z"/>
            <path d="M18.349 13.197V9.975h-3.587v3.222h3.587zm.878-4.169l2.136 5.026v5.525h-1.645v-4.217h-6.324v4.217h-1.646v-5.525l2.137-5.026 2.399-2.692s.133-.119.31-.119.282.119.282.119l2.351 2.692z"/>
        </g>
    </g>
</svg>
