<svg xmlns="http://www.w3.org/2000/svg" xmlns:xlink="http://www.w3.org/1999/xlink" width="34" height="20" viewBox="0 0 34 20">
    <defs>
        <path id="a" d="M0 0h34v20H0z"/>
    </defs>
    <g fill="none" fill-rule="evenodd">
        <mask id="b" fill="#fff">
            <use xlink:href="#a"/>
        </mask>
        <use fill="#FFF" xlink:href="#a"/>
        <g fill="#002D56" mask="url(#b)">
            <path d="M0 19.962h7.962V9.556H0v10.406zm4.64-7.153h2.04v-2.042H4.64v2.042zm-3.36 0h2.043v-2.042H1.28v2.042zm3.36 3.44h2.04v-2.044H4.64v2.044zm-3.36 0h2.043v-2.044H1.28v2.044zM8.885 19.962h7.963V3H8.885v16.962zm1.263-14.285h1.78v-1.78h1.878v1.78h1.78v1.878h-1.78v1.78h-1.878v-1.78h-1.78V5.677zm3.378 7.132h2.041v-2.042h-2.041v2.042zm-3.36 0h2.042v-2.042h-2.042v2.042zm3.36 3.44h2.041v-2.044h-2.041v2.044zm-3.36 0h2.042v-2.044h-2.042v2.044z"/>
        </g>
    </g>
</svg>
