<svg xmlns="http://www.w3.org/2000/svg" width="18" height="16" viewBox="0 0 18 16">
    <path fill="#002D56" fill-rule="evenodd" d="M16.062 4.203c0 .13-.103.234-.23.234h-.724a.232.232 0 0 1-.23-.234v-.74c0-.129.103-.234.23-.234h.724c.127 0 .23.105.23.235v.739zm0 1.991c0 .13-.103.235-.23.235h-.724a.232.232 0 0 1-.23-.235v-.739a.232.232 0 0 1 .24-.221h.725c.12.005.215.103.22.225v.735zm0 1.995c0 .13-.103.235-.23.235h-.724a.233.233 0 0 1-.22-.235V7.45c0-.13.104-.234.23-.234h.725c.123.006.22.109.22.234v.74zm0 1.988a.232.232 0 0 1-.222.23h-.725a.232.232 0 0 1-.23-.235v-.74c0-.129.103-.234.23-.234h.725a.233.233 0 0 1 .222.242v.737zm0 1.99c0 .13-.103.234-.23.234h-.724a.232.232 0 0 1-.23-.234v-.74c0-.129.103-.234.23-.234h.724c.127 0 .23.105.23.235v.739zm-4.436-9.95a.23.23 0 0 1-.228.233h-.725a.23.23 0 0 1-.224-.235v-.739a.23.23 0 0 1 .228-.233h.724a.23.23 0 0 1 .228.233l-.003.74zm0 1.991a.23.23 0 0 1-.228.233h-.725a.23.23 0 0 1-.224-.236v-.74a.23.23 0 0 1 .228-.232h.724a.23.23 0 0 1 .228.233l-.003.742zm0 1.99a.23.23 0 0 1-.228.233h-.725a.23.23 0 0 1-.224-.235v-.739a.23.23 0 0 1 .224-.223h.725a.23.23 0 0 1 .228.232v.732zm0 1.991a.23.23 0 0 1-.228.233h-.725a.23.23 0 0 1-.224-.233V7.45a.23.23 0 0 1 .228-.232h.724a.23.23 0 0 1 .225.232v.74zm.003 1.986a.23.23 0 0 1-.23.231h-.726a.23.23 0 0 1-.224-.229v-.739a.23.23 0 0 1 .228-.233h.724a.23.23 0 0 1 .228.233v.737zm-1.18 4.619H7.55v-3.218c0-.13.103-.235.23-.235h2.434a.232.232 0 0 1 .234.23v3.223zm-3.122-4.388h-.725a.23.23 0 0 1-.228-.233v-.739a.23.23 0 0 1 .228-.232h.725a.23.23 0 0 1 .224.236v.74a.23.23 0 0 1-.224.228zM6.374 7.45a.23.23 0 0 1 .228-.232h.725a.23.23 0 0 1 .224.232v.74a.23.23 0 0 1-.228.232H6.6a.23.23 0 0 1-.225-.233V7.45zm0-1.993a.23.23 0 0 1 .228-.223h.725c.12.001.22.1.224.223v.74a.23.23 0 0 1-.228.232H6.6a.23.23 0 0 1-.228-.233l.003-.739zm0-1.991a.23.23 0 0 1 .228-.233h.725a.23.23 0 0 1 .224.234v.74a.23.23 0 0 1-.228.232H6.6a.23.23 0 0 1-.228-.233l.003-.74zm0-1.99a.23.23 0 0 1 .228-.233h.725a.23.23 0 0 1 .224.233v.739a.23.23 0 0 1-.228.233H6.6a.23.23 0 0 1-.228-.233l.003-.739zm2.036 7.96a.23.23 0 0 1 .228-.23h.724a.23.23 0 0 1 .228.232v.74a.23.23 0 0 1-.228.228h-.724a.23.23 0 0 1-.228-.233v-.737zm0-1.99a.23.23 0 0 1 .228-.23h.724a.23.23 0 0 1 .228.233v.741a.23.23 0 0 1-.228.23h-.724a.23.23 0 0 1-.228-.23v-.743zm0-1.989a.23.23 0 0 1 .228-.223h.724a.23.23 0 0 1 .228.232v.74a.23.23 0 0 1-.228.223h-.724a.23.23 0 0 1-.228-.233v-.739zm0-1.991a.23.23 0 0 1 .228-.231h.724a.23.23 0 0 1 .228.232v.74a.23.23 0 0 1-.228.232h-.724a.23.23 0 0 1-.228-.233v-.74zm0-1.99a.23.23 0 0 1 .228-.233h.724a.23.23 0 0 1 .228.233v.739a.23.23 0 0 1-.228.233h-.724a.23.23 0 0 1-.228-.233v-.739zM3.11 4.205c0 .13-.103.234-.23.234h-.724a.233.233 0 0 1-.22-.234v-.74c0-.129.104-.234.23-.234h.725c.127 0 .23.105.23.235l-.01.739zm0 1.991c0 .13-.103.235-.23.235h-.724a.233.233 0 0 1-.22-.237v-.739a.232.232 0 0 1 .223-.221h.725c.127 0 .23.105.23.234l-.004.728zm0 1.99c0 .13-.103.234-.23.234h-.724a.232.232 0 0 1-.22-.23v-.74c0-.13.104-.234.23-.234h.725c.123.006.22.109.22.234v.736zm0 1.991a.232.232 0 0 1-.23.23h-.724a.232.232 0 0 1-.22-.232v-.739c0-.13.104-.234.23-.234h.725c.127 0 .23.105.23.234l-.01.741zm0 1.99c0 .13-.103.234-.23.234h-.724a.233.233 0 0 1-.22-.234v-.74c0-.129.104-.234.23-.234h.725c.127 0 .23.105.23.235l-.01.739zm14.657 2.627h-.496V2.232a.232.232 0 0 0-.23-.235h-3.127a.232.232 0 0 0-.23.235v12.562h-.855V.234A.232.232 0 0 0 12.6 0H5.4a.232.232 0 0 0-.23.235v14.559h-.855V2.232a.232.232 0 0 0-.23-.235H.956a.232.232 0 0 0-.23.235v12.562H.232a.234.234 0 0 0-.232.23v.74c0 .13.104.236.232.236h17.536a.234.234 0 0 0 .232-.236v-.74a.234.234 0 0 0-.232-.23z"/>
</svg>
