<svg xmlns="http://www.w3.org/2000/svg" xmlns:xlink="http://www.w3.org/1999/xlink" width="34" height="20" viewBox="0 0 34 20">
    <defs>
        <path id="a" d="M0 0h34v20H0z"/>
    </defs>
    <g fill="none" fill-rule="evenodd">
        <mask id="b" fill="#fff">
            <use xlink:href="#a"/>
        </mask>
        <use fill="#FFF" xlink:href="#a"/>
        <path fill="#002D56" d="M17.066 7.465c0 .138-.11.25-.244.25h-.77a.247.247 0 0 1-.244-.25V6.68c0-.137.11-.249.244-.249h.77c.135 0 .244.112.244.25v.784zm0 2.116c0 .138-.11.25-.244.25h-.77a.247.247 0 0 1-.244-.25v-.785a.246.246 0 0 1 .256-.235h.77c.126.006.227.11.232.24v.78zm0 2.12c0 .138-.11.25-.244.25h-.77a.247.247 0 0 1-.233-.25v-.785c0-.138.11-.25.245-.25h.77c.13.007.232.117.232.25v.785zm0 2.112a.247.247 0 0 1-.236.244h-.77a.247.247 0 0 1-.244-.25v-.785c0-.137.11-.25.244-.25h.77c.134.005.24.12.236.258v.783zm0 2.114c0 .138-.11.25-.244.25h-.77a.247.247 0 0 1-.244-.25v-.785c0-.138.11-.25.244-.25h.77c.135 0 .244.112.244.25v.785zM12.352 5.355a.245.245 0 0 1-.242.248h-.77a.245.245 0 0 1-.238-.25v-.785c0-.136.108-.247.242-.247h.77c.134 0 .242.11.242.247l-.004.787zm0 2.116a.245.245 0 0 1-.242.248h-.77a.245.245 0 0 1-.238-.252v-.785c0-.136.108-.247.242-.247h.77c.134 0 .242.11.242.247l-.004.79zm0 2.114a.245.245 0 0 1-.242.248h-.77a.245.245 0 0 1-.238-.25v-.785a.245.245 0 0 1 .238-.237h.77c.134 0 .242.11.242.247v.777zm0 2.116a.245.245 0 0 1-.242.248h-.77a.245.245 0 0 1-.238-.248v-.785c0-.137.108-.247.242-.247h.77a.245.245 0 0 1 .238.247v.785zm.004 2.11a.245.245 0 0 1-.244.246h-.772a.245.245 0 0 1-.238-.244v-.785c0-.137.108-.247.242-.247h.77c.134 0 .242.11.242.247v.783zm-1.254 4.907H8.023V15.3c0-.138.11-.25.245-.25h2.586a.247.247 0 0 1 .248.246v3.424zm-3.317-4.661h-.77a.245.245 0 0 1-.242-.248v-.785c0-.136.108-.247.242-.247h.77c.134.002.24.114.238.251v.785a.245.245 0 0 1-.238.244zm-1.012-3.14c0-.138.108-.248.242-.248h.77a.245.245 0 0 1 .238.247v.785a.245.245 0 0 1-.242.248h-.77a.245.245 0 0 1-.238-.248v-.785zm0-2.119a.245.245 0 0 1 .242-.237h.77a.245.245 0 0 1 .238.237v.785a.245.245 0 0 1-.242.248h-.77a.245.245 0 0 1-.242-.248l.004-.785zm0-2.116c0-.136.108-.247.242-.247h.77c.133.002.24.113.238.25v.784a.245.245 0 0 1-.242.248h-.77a.245.245 0 0 1-.242-.248l.004-.787zm0-2.114c0-.136.108-.247.242-.247h.77a.245.245 0 0 1 .238.247v.785a.245.245 0 0 1-.242.248h-.77a.245.245 0 0 1-.242-.248l.004-.785zm2.162 8.458a.245.245 0 0 1 .243-.245h.77c.133 0 .242.11.242.247v.785a.245.245 0 0 1-.243.244h-.77a.245.245 0 0 1-.242-.248v-.783zm0-2.114a.245.245 0 0 1 .243-.245h.77c.133 0 .242.11.242.247v.787a.245.245 0 0 1-.243.246h-.77a.245.245 0 0 1-.242-.246v-.789zm0-2.114a.245.245 0 0 1 .243-.237h.77c.133 0 .242.11.242.247v.785a.245.245 0 0 1-.243.238h-.77a.245.245 0 0 1-.242-.248v-.785zm0-2.116a.245.245 0 0 1 .243-.245h.77c.133 0 .242.11.242.247v.785a.245.245 0 0 1-.243.248h-.77a.245.245 0 0 1-.242-.248v-.787zm0-2.114c0-.136.109-.247.243-.247h.77c.133 0 .242.11.242.247v.785a.245.245 0 0 1-.243.248h-.77a.245.245 0 0 1-.242-.248v-.785zm-5.63 2.9c0 .137-.109.249-.244.249h-.77a.247.247 0 0 1-.232-.25v-.785c0-.137.11-.249.244-.249h.77c.135 0 .244.112.244.25l-.011.784zm0 2.115c0 .138-.109.25-.244.25h-.77a.247.247 0 0 1-.232-.252v-.785a.247.247 0 0 1 .236-.235h.77c.135 0 .244.111.244.249l-.003.773zm0 2.114c0 .138-.109.25-.244.25h-.77a.247.247 0 0 1-.232-.246v-.785c0-.138.11-.25.244-.25h.77c.13.007.233.117.233.25v.781zm0 2.116a.247.247 0 0 1-.244.244h-.77a.247.247 0 0 1-.232-.246v-.785c0-.138.11-.25.244-.25h.77c.135 0 .244.112.244.25l-.011.787zm0 2.114c0 .138-.109.25-.244.25h-.77a.247.247 0 0 1-.232-.25v-.785c0-.138.11-.25.244-.25h.77c.135 0 .244.112.244.25l-.011.785zm15.574 2.791h-.527V5.371c0-.138-.11-.25-.245-.25h-3.323a.247.247 0 0 0-.244.25v13.347h-.908V3.25c0-.137-.11-.249-.245-.249h-7.65a.247.247 0 0 0-.244.25v15.468h-.908V5.371c0-.138-.11-.25-.244-.25H1.016a.247.247 0 0 0-.244.25v13.347H.246a.249.249 0 0 0-.246.246v.785c0 .139.11.251.246.251H18.88a.249.249 0 0 0 .246-.251v-.785a.249.249 0 0 0-.246-.246z" mask="url(#b)"/>
    </g>
</svg>
