<svg xmlns="http://www.w3.org/2000/svg" width="16" height="16" viewBox="0 0 16 16">
    <g fill="none" fill-rule="evenodd">
        <path fill="#002D56" d="M14.755.064H1.118A1.12 1.12 0 0 0 0 1.182V14.82a1.12 1.12 0 0 0 1.118 1.118h13.637a1.12 1.12 0 0 0 1.118-1.118V1.182A1.12 1.12 0 0 0 14.755.064"/>
        <path fill="#FFF" d="M9.795 7.01c-.1.183-.233.325-.398.425a1.58 1.58 0 0 1-.575.202 4.29 4.29 0 0 1-.679.052H6.549V4.894h1.594c.235 0 .462.018.68.052.217.035.409.103.574.203.165.1.298.241.398.424.1.183.15.423.15.719s-.05.535-.15.718m1.96-1.829a2.585 2.585 0 0 0-.562-.953 2.786 2.786 0 0 0-1-.673c-.409-.17-.905-.254-1.488-.254H4.499v9.326h2.05V9.283h2.156c.583 0 1.08-.085 1.489-.255.41-.17.742-.394.999-.672.257-.279.444-.599.562-.96a3.548 3.548 0 0 0 0-2.215"/>
    </g>
</svg>
