<svg xmlns="http://www.w3.org/2000/svg" xmlns:xlink="http://www.w3.org/1999/xlink" width="34" height="20" viewBox="0 0 34 20">
    <defs>
        <path id="a" d="M0 0h34v20H0z"/>
    </defs>
    <g fill="none" fill-rule="evenodd">
        <mask id="b" fill="#fff">
            <use xlink:href="#a"/>
        </mask>
        <use fill="#FFF" xlink:href="#a"/>
        <path fill="#002D56" d="M14.755 4H1.118A1.12 1.12 0 0 0 0 5.118v13.637a1.12 1.12 0 0 0 1.118 1.118h13.637a1.12 1.12 0 0 0 1.118-1.118V5.118A1.12 1.12 0 0 0 14.755 4" mask="url(#b)"/>
        <path fill="#FFF" d="M10.297 11.71c-.1.182-.233.324-.399.424a1.58 1.58 0 0 1-.574.203 4.29 4.29 0 0 1-.68.052H7.051V9.593h1.593c.235 0 .462.018.68.053.217.035.409.102.574.202.166.1.298.242.399.425.1.183.15.422.15.718s-.05.536-.15.719m1.959-1.83a2.585 2.585 0 0 0-.562-.953 2.786 2.786 0 0 0-.999-.672C10.285 8.085 9.79 8 9.206 8H5v9.326h2.05v-3.344h2.156c.583 0 1.08-.084 1.49-.254.408-.17.741-.394.998-.673s.445-.599.562-.96a3.548 3.548 0 0 0 0-2.214" mask="url(#b)"/>
    </g>
</svg>
