<svg xmlns="http://www.w3.org/2000/svg" width="20" height="18" viewBox="0 0 20 18">
    <path fill="#002D56" fill-rule="evenodd" d="M13.624 9.124h-1.187V7.628c.662.031 1.187.502 1.187 1.08v.416zm-1.187 1.62h1.187V9.244h-1.187v1.498zm-.14-1.62h-1.189v-.416c0-.578.526-1.049 1.188-1.08v1.496zm-1.189 1.62h1.188V9.244h-1.188v1.498zm.607 6.319h-3.53v-2.855c0-.838.79-1.518 1.765-1.518.975 0 1.765.68 1.765 1.518v2.855zm-4.111-6.32h1.188V9.245H7.604v1.498zm-1.328 0h1.187V9.245H6.276v1.498zm1.328-3.115c.662.031 1.188.502 1.188 1.08v.416H7.604V7.628zm-.14 1.496H6.275v-.416c0-.578.525-1.049 1.187-1.08v1.496zm8.38-4.055V2.305h.113v-.373h-2.899v.373h.113v.466l-1.982-1.705L9.952 0 9.95.001 9.949 0l-1.24 1.065.002.001L.5 8.126l1.239 1.066 1.233-1.06V17.1h13.956V8.131l1.233 1.06L19.4 8.127 15.844 5.07z"/>
</svg>
