<svg xmlns="http://www.w3.org/2000/svg" xmlns:xlink="http://www.w3.org/1999/xlink" width="34" height="20" viewBox="0 0 34 20">
    <defs>
        <path id="a" d="M0 0h34v20H0z"/>
    </defs>
    <g fill="none" fill-rule="evenodd">
        <mask id="b" fill="#fff">
            <use xlink:href="#a"/>
        </mask>
        <use fill="#FFF" xlink:href="#a"/>
        <path fill="#002D56" d="M13.124 12.124h-1.187v-1.496c.662.031 1.187.502 1.187 1.08v.416zm-1.187 1.62h1.187v-1.499h-1.187v1.498zm-.14-1.62h-1.189v-.416c0-.578.526-1.049 1.188-1.08v1.496zm-1.189 1.62h1.188v-1.499h-1.188v1.498zm.607 6.319h-3.53v-2.855c0-.838.79-1.518 1.765-1.518.975 0 1.765.68 1.765 1.518v2.855zm-4.111-6.32h1.188v-1.498H7.104v1.498zm-1.328 0h1.187v-1.498H5.776v1.498zm1.328-3.115c.662.031 1.188.502 1.188 1.08v.416H7.104v-1.496zm-.14 1.496H5.775v-.416c0-.578.525-1.049 1.187-1.08v1.496zm8.38-4.055V5.305h.113v-.373h-2.899v.373h.113v.466l-1.982-1.705L9.452 3l-.001.001L9.449 3l-1.24 1.065.002.001L0 11.126l1.239 1.066 1.233-1.06V20.1h13.956v-8.969l1.233 1.06 1.239-1.065-3.556-3.057z" mask="url(#b)"/>
    </g>
</svg>
