<svg xmlns="http://www.w3.org/2000/svg" width="17" height="16" viewBox="0 0 17 16">
    <g fill="#002D56" fill-rule="evenodd">
        <path d="M8.583 13.919h3.838v-5.13H8.583v5.13zm-4.847-2.432h2.37V8.789h-2.37v2.698zM15.214 7.24a2.82 2.82 0 0 1-2.773-.966 2.823 2.823 0 0 1-4.363 0 2.823 2.823 0 0 1-4.362 0 2.823 2.823 0 0 1-2.774.966v6.496H0v2.181h16.157v-2.18h-.943V7.24zM1.535 6.25c.846 0 1.535-.688 1.535-1.534h1.292c0 .846.689 1.535 1.535 1.535.847 0 1.535-.689 1.535-1.535h1.293c0 .846.688 1.535 1.535 1.535.846 0 1.535-.689 1.535-1.535h1.292c0 .846.689 1.535 1.535 1.535s1.535-.689 1.535-1.535h-.003a.4.4 0 0 0-.028-.186l-.912-2.187V0H.942v2.343L.031 4.53a.4.4 0 0 0-.028.186H0C0 5.562.689 6.25 1.535 6.25"/>
    </g>
</svg>
