<svg xmlns="http://www.w3.org/2000/svg" xmlns:xlink="http://www.w3.org/1999/xlink" width="34" height="20" viewBox="0 0 34 20">
    <defs>
        <path id="a" d="M0 0h34v20H0z"/>
    </defs>
    <g fill="none" fill-rule="evenodd">
        <mask id="b" fill="#fff">
            <use xlink:href="#a"/>
        </mask>
        <use fill="#FFF" xlink:href="#a"/>
        <g fill="#002D56" mask="url(#b)">
            <path d="M8.047 18.049h3.597v-4.81H8.047v4.81zm-4.544-2.28h2.221v-2.53H3.503v2.53zm10.76-3.98a2.644 2.644 0 0 1-2.6-.907 2.646 2.646 0 0 1-4.09 0 2.646 2.646 0 0 1-4.09 0 2.646 2.646 0 0 1-2.6.907v6.09H0v2.044h15.147V17.88h-.883v-6.09zM1.439 10.86a1.44 1.44 0 0 0 1.439-1.439H4.09a1.44 1.44 0 0 0 1.439 1.44 1.44 1.44 0 0 0 1.439-1.44h1.211a1.44 1.44 0 0 0 1.44 1.44 1.44 1.44 0 0 0 1.438-1.44h1.212a1.44 1.44 0 0 0 1.44 1.44 1.44 1.44 0 0 0 1.438-1.44h-.003a.375.375 0 0 0-.026-.174l-.854-2.05V5H.884v2.196L.029 9.247a.375.375 0 0 0-.026.174H0a1.44 1.44 0 0 0 1.439 1.44"/>
        </g>
    </g>
</svg>
