<svg xmlns="http://www.w3.org/2000/svg" width="20" height="13" viewBox="0 0 20 13">
    <g fill="#002D56" fill-rule="evenodd">
        <path d="M13.61 12.011h3.538l-1.77-1.217zM4.398.098L2 2.728 0 7.115v4.822H10.123V7.114h.01l1.923-4.385L14.514.098zM13.028 11.678l1.884-1.296-1.884-1.297zM13.662 8.827l1.754 1.208 1.755-1.208zM17.805 11.678V9.085l-1.885 1.297z"/>
        <path d="M17.095 6.366V3.555h-3.358v2.811h3.358zm.823-3.637l2 4.385v4.822h-1.541v-3.68h-5.92v3.68h-1.542V7.114l2-4.385 2.247-2.35s.125-.103.29-.103c.166 0 .264.103.264.103l2.202 2.35z"/>
    </g>
</svg>
