<svg xmlns="http://www.w3.org/2000/svg" width="17" height="16" viewBox="0 0 17 16">
    <g fill="#002D56" fill-rule="evenodd">
        <path d="M14.89 11.256V14.4c0 .188-.151.339-.34.339H2.24a.337.337 0 0 1-.339-.339V5.045H.678V15.98h15.397V5.045H14.89v6.211zM16.753 4.348v-.866H0v.866h16.433zM16.132 0H.622L.074 2.786h16.603z"/>
        <path d="M5.628 5.195l-3.03-.037v5.458c2.466-1.788 2.936-4.48 3.03-5.42M2.598 11.708v2.334h1.75c-.15-1.524-1.167-2.108-1.75-2.334M14.193 5.158l-3.03.037c.093.941.564 3.633 3.03 5.421V5.158zM14.193 14.061v-2.353c-.584.207-1.6.81-1.75 2.334h1.75v.02z"/>
    </g>
</svg>
