<svg xmlns="http://www.w3.org/2000/svg" xmlns:xlink="http://www.w3.org/1999/xlink" width="34" height="20" viewBox="0 0 34 20">
    <defs>
        <path id="a" d="M0 0h34v20H0z"/>
    </defs>
    <g fill="none" fill-rule="evenodd">
        <use fill="#FFF" xlink:href="#a"/>
        <g fill="#002D56">
            <path d="M14.89 15.256V18.4c0 .188-.151.339-.34.339H2.24a.337.337 0 0 1-.339-.339V9.045H.678V19.98h15.397V9.045H14.89v6.211zM16.753 8.348v-.866H0v.866h16.433zM16.132 4H.622L.074 6.786h16.603z"/>
            <path d="M5.628 9.195l-3.03-.037v5.458c2.466-1.788 2.936-4.48 3.03-5.42M2.598 15.708v2.334h1.75c-.15-1.524-1.167-2.108-1.75-2.334M14.193 9.158l-3.03.037c.093.941.564 3.633 3.03 5.421V9.158zM14.193 18.061v-2.353c-.584.207-1.6.81-1.75 2.334h1.75v.02z"/>
        </g>
    </g>
</svg>
